<mxfile host="app.diagrams.net" modified="2022-01-21T10:15:16.348Z" agent="5.0 (X11; Linux x86_64) AppleWebKit/537.36 (KHTML, like Gecko) Chrome/97.0.4692.71 Safari/537.36" etag="b_h4Cc4ixHKgdkbSsfMj" version="16.4.2" type="github">
  <diagram id="XR8aMwm_rl0TR5m5LSGC" name="energy/silence">
    <mxGraphModel dx="568" dy="776" grid="1" gridSize="10" guides="1" tooltips="1" connect="1" arrows="1" fold="1" page="1" pageScale="1" pageWidth="827" pageHeight="1169" math="0" shadow="0">
      <root>
        <mxCell id="0" />
        <mxCell id="1" parent="0" />
        <mxCell id="DJth2JMcS43AdMSc6y-M-2" value="" style="shape=image;verticalLabelPosition=bottom;labelBackgroundColor=default;verticalAlign=top;aspect=fixed;imageAspect=0;image=data:image/png,iVBORw0KGgoAAAANSUhEUgAAAnMAAASSCAYAAADaeGgTAAAAOXRFWHRTb2Z0d2FyZQBNYXRwbG90bGliIHZlcnNpb24zLjQuMiwgaHR0cHM6Ly9tYXRwbG90bGliLm9yZy8rg+JYAAAACXBIWXMAAAsTAAALEwEAmpwYAAEAAElEQVR4nOzddXhaZ/vA8W8CAaJN0tR9ta1bp+22zu2ddy79zV3e+Tp3907eubu7u7drt3XadVvdPW3jQBLg98dzzkECBD8Q7s915QqBw+EOTeHmfp7nfgp8Ph9CCCGEECI3FZodgBBCCCGESJwkc0IIIYQQOUySOSGEEEKIHCbJnBBCCCFEDpNkTgghhBAih0kyJ4QQQgiRwySZE0KYaRdgDfAt4Ejhee8DGoELUnjOROwC+LSv3uaGklLb4v+9BgdcXwC8CdQBR2Q8KiHylCRzQohISoEzgfeARUAz0ATMA54HDkjBYxwG1AA7ARun4Hy6k4Ey4KQUntNs36KSJy+wgcmxRNIdOAToBhxrcixC5A1J5oQQ4RwBzAceAsYDfVHVFicwBDgGeBf4keDKTLweA34AngJ+T+I8oa4BfgFuSuE5zTQMlfCCqn6daGIs0dQCdwE/AZNMjkWIvFEgO0AIIUJMRL0hA/wFXA18Ari063oC/4dKmKqB1cDOwL+ZDTMn7AJ8rV3uA6xM8Dy3AJejqqJDgSWoJNqbXHgJ2xaYql0eAiw0KQ4hBFKZE0IE+w9wh3b5HWAr7bsr4JjVqDlpWwOLUcndm0BxpoLMMxbgeO3yrUA7MADY07SIhBBZRZI5IYSuAJWkFaKqbEcBrVGOnwccrV0eBZwWx+NYEowxH+2Nf5j7BVSVFLrWfEAhRBIkmRNC6PYENtIuX42aH9eZycCX2uWzQm67DjVh/19UAncFaiGFBzhHO+YE7RgX4dlQK1J/AhpQK1SnAhNQq0P1FZW7hNzvG+36R0KuD328zYDXgFXadX8DFxP5tXEUcA/whxZLK2qI8VGgX4T7JOtk7ftrgBt4Tvv5QNSCg3AG439uto1wzHX4/33CKQWuQv2uzahk8mtgn07iXaid97IIt/dCzWX8RTunG1iK+v126eTcQogwrGYHIITIGvqwXRNqaDVW7wK7A8OBgaih11DXoJKHNUB9jOftjqpCjdF+bgbWaT+/DDwQR4zh7A28jUo86gE7Kpm9A7Va9MyQ4zcFfkMlel7UcLMHGISqSo5HDUuvSDKuQD2A/bXLehL3HioJqkQtRLkvhY+nGwB8DozUfm5AJa67aF+hSXKs9kH923XTfl6L+pvoAxyufd0DXJjg+YXIS1KZE0LottC+/4KalxWr3wIubxjm9irgfOBI1Py6avyJSTTPoxK3RtSQbyUqWeyJWmV7dhwxhrKihixv0uLpo517mnb7GfirlLoSYA5q/lp37T6VwH6o6lIf4NIkYgrnOKAItbJ4inadG1XFgvQMtVqBt1CJ3ApUAlaJet4HoZLJMxI47xbaebsBXwGjUW1p+qOSVn316wX4K7dCiBhIMieE0PXQvq+K835rAy6HG/briWpBoicgPlSFLZqd8A/nHYWq5ugJ5nrUkO4rccYZyIKqKN6Mf8h1Carlh77EP3Q48R/UsOxzqMqY7iP8yeleScQUjt6C5IWQ6/XH2xR/5TJVJmjnbAf2RVVH9edkMXAwahg7XnehGkNPR1VF/wq4bR1wEf6K3zXIghohYibJnBBCZ9O+x9vuIvB4d4RjHozznIdr3/8EPohwzL1xnjPU3WGu+xe1sAM6NuatJ/zvZ0UlgpDaeXPb4G+k/HzIbVPwx3kyqXWk9v1Dwvf+8wIPx3nO3sBu2uUbgbYIx92pfa8Bto/zMYTIW5LMCSF0erWsR9SjOqoJuFwb5vZGws+ji2Yr7ft3UY6J95yBvMDsCLct076XhrmtFFUpfBD4AjX86QJu0G63hblPovQkbSowN8zteoI3gdRuhaY/999GOWZJlNvC2SLgcrTzzsdf6Q0d5hZCRCALIIQQun9QKx+3Qq0+jbWjuP5G7UWtfAyVSKNcfbh2dZRjkul43kbk6pA+7FoQcv3uwEuoYWNQw9FzUCt6q1Fz51KlBH+FbBzRf9dK4FDgxRQ9tp6ch0vMdfE+91Xadw+dL4CpQ/37l8f5GELkLanMCSF0X2jfK4lv7tdB2vefCf9GncguBR7te7QqYSbnVPVCrfDtiZqrNwQ1dLgjapHCWyl+vMOBijiODx1qDUy27BHuE+n503sL9oxwe7T7RtKkfbeg9syNRl/puj7OxxAib0kyJ4TQvYW/rcYNxFa53wlVsYLUtshYqH3fLMoxW6bw8TpzACoJaUKtZl0YcvuwFD+evkr1HVSFMNKX3qh5F1SCqWsKuBxpHt+ICNcv1L5vGiW+raLcFk7gYocdoxw3BH9l8Jc4H0OIvCXJnBBC58Lf6HUsamVhtNeIEfiH9ibjX62aCnqVcCdghzC3W0l9G5Bo9Aqhk467Yujz6FJlGOr3BjWsG81rqH+3AoLblKzFX9naP/ROqMUd+0Y4p/7cT0A1Hw5VQfytQ+ajVrGCakgd6YPCRO37rIDjhRCdkGROCBHoOVTTVlBDd98DexD85tsPuAT4EdUjbB5qfpeH1Hka1UwW1LDmbgG3DUa1FRmawsfrjL5YogdqVwR9O7KhwPtE3okhEXpS1kjklby6etRzAapiGPiart/3CFQDZP3fcATwOpHnDD6AShBtqN8tsAq3MfAp4ReHdOYi1N/IONRK2VEBt1UDt6NazniB80hseF6IvCTJnBAi1IWoJr9NwHaonQCaUKtH16K2XrodNbfuQ9SiieUpjmE9qjLUgkoev9QeexmwAJUQHBtwfDKLIWLxLv42HTeikqg1qFWmQ4DrU/Q4FlRSBmqINZYt1fSecwPw7+IBqlfbOu2cD6H+DZeiql6FRG4XMxc4HZVMbYKqkK1CDcH/pT1O6NZtsfgWNb/QpcU5E7XAZYn2/RJU1fNkVMIohIiRJHNCiHDuQw3FXYlqD7IeNeG/ELV/6cOouU/7E33VYzK+Qs2LewG1IrYMVdl5ArWCdmbAsc1pikHXBuwM3IpKhiyonnOPoIakU/Uc7A301S53NsSq+xT/iuHAodaFqET7ZVSyVID6Pe5E/dtFSxSfQ/V5exeVRFdqx9+Heu4XxRhbqJdQ1b0HUM9jGaqqOReVXI4Cnknw3ELkrQKfL90faIUQIi22R83VA7XNVDJ954QQImdJZU4Ikav20L6vQRI5IUQek2ROCJGtiqLc1hf/ispXMxCLEEJkLUnmhBDZ6lfUCsiBAdc5UBu9T0HNtVqLWowhhBB5S+bMCSGyVR3BuwE4Ua1B9IrdSuAQ1N6lQgiRt3KtMncEqi3BXIJXbQHcBvyLmjtzSYbjEkKk3sGolat/oVqP9EAleN+i/o9viCRyQgiRU5W5clRLhG1R7Ql+B0bjbyzaF9XrqgaV8PVFNd2MaM2aNb5FixJdYS+EEEIIkTljxoypJcye1bHsvZgt9kJ9Il+m/fwVak/IV7Sf9aalfVE9kDrtO7Vo0SLGjh2b4jCFEEIIIVLP5/OFrUDlUjI3gOBGlUuBPgE/7wI8j2pC+X9E3grmNO2LmpqaCIcIIYQQQuSGXJozZyM4QfMSvBfkN6iEbztUV/YNIpznMWAMMKa2Nl2N64UQQgghMiOXkrkVqD0adf1Re/qF+gfVFX7LTAQlhBBCCGGmXErmPkPNm+uJ2iNyO+06UL2nttIu90Qtkvg9w/EJIYQQQmRcLs2ZW4na9FtvRTAR2BMYitqg+SGgF2rhw7Wo9iUijRzlZbgam8wOQwghhMhruZTMATyjfYWzTebCEHucdgL7nHM6r1x1Iz+/+5HZ4QghhBB5K5eGWUWW6LfhCPY553QAJtx0tcnRCCEyafO99+C26d8EXddrg8FsuMO25gQkhMi5ypzIAhe+/qzZIQghTGApKuLYO28EoMfggaxZuBiAS9592Thm4uhxpsQmRD6TypxIWkGh/BkJkQ9O/N/txuWhY1XDgOKKCrPCEUJo5F1YJK3IbjM7BCFEBmy0g7/qdvg1lwIw9sB9zQpHCKGRZE4k7eQH7jI7BCGESQ685DyzQxAi70kyJ5I2bOutOj9ICCGEEGkhyZyIi6Os1OwQhBBZQl4PhMgOksyJuPQdOTzibYddcyn20pIMRiOEMNPpj/3P7BCEEEgyJ+K02V67h73+wtefZdzhB3HLtC8zHJEQwiwDR48yOwQhBJLMiTjt8H+Hhb2+34YjMhyJECKT7CVSdRciW0kyJ4QQolNV/fqYHYIQIgJJ5kRYZdVVTJoxlUkzpkpTYCEEw7cZE9Nxk2ZMTXMkQohQ8i4twrr+24+My3f9McXESIQQ2aCgsMDsEIQQEUgyJ2IycNONzQ5BCGGinY/7P7NDEEJEIMmciMl5Lz5hdghCiCiMaREF6amgVfbqGfOx/UeNTEsMQojwJJkTMUvXm0SuKCgowGK1mh2GEB0EzlM748kHTIxEueDVZ8wOQYi8Iu9MImZ7nnmy2SGYInRC912HHsOK2fNMikYI2PXEoynvUcMn9z/K9d9+HHTbsLFbmhSVEMIsksyJmOVbMldosVDZu+PQ0kVvvsDE0eNMiEgIGHvQfux/4dkA7HzsBJOjEZlgtdkotFhodTrNDkVkKUnmhAhD2iuIbFTRswcTbrzK7DBEht3+y7cAfPXU83x4z0MmRyOykcyZEyLEwZdfaHYIQoR17ZfvmR2CyCB9UYtut5OOZdKMqRRaLCZGJbKRJHNCBJg0Yyo7HHW42WEIIfLcCffeFvG2qz9/J3OBiJyQa8ncEcACYC5wUsht5wH/AIuA55EhZBGn3U4+1uwQhMgafUcO59SH7wHAUlRkcjT54bhJNxvVuNG77xzxuIoeNRmMSuSCXErmyoFJwA7a1y1Aj4DbG4HNgKFAL+DITAfYVfTbcITZIZhiv/P/a3YIQkTkKCvN6ONNfOM5NtxhW8YeuC/l1VUZfex8tdmeu8V8rNVmS2MkItfkUjK3F/AtsAxYCXwF7B5w+1NAK9AO/AlUZzrArmLn4/Ov0/u4Iw42OwQhotp0j11NedwJN13N3uecbspj55OBo0fFdfz1333U+UEib+RSMjcANYSqWwr0CXNcCbAf8H6E85wGTAem19RIqbqgsJBJM6ay+d57sM0h4wHYav+9TY4qswotFg67+hKzwxAiqiNvvNK0xx574L6mPXa+OO+lJ+M63lGa2UqtyG65lMzZAG/Az17AE3JMIfAccD+wMMJ5HgPGAGNqa2tTHGLu2fXEowE49s4bOeL6K0xtyXHUrddy1WdvZ/xx7/x9csYfU4hoCgoL6TNiGIVWWbUohOhcLi0SWAHsEvBzf+DHgJ8LgCeAvwFpxBOjmgH9zQ7BoFcEK3rU0LAmM4m29JMT2eik/93BqJ23B+C+o0+hzeU2OSKRTic/cJfZIYgcl0uVuc9Q8+Z6Ar2B7bTrdA+j5tJdk/nQctc2hx5gdggA9BwyyLh87VeRRshTa+9zTsvI4wgRj7LqKiORAzjvxSe46M3nMxpDvu/DnGmB/95d1Y5HH0FVn95B12190P7G6t0Nd9jWpMi6hlxK5lYCVwJTgSnARGBP4CLU6tbTUK1L5mpf+TeLP4dd+t4rGX/M/5x2YlL377XB4NQEIkSA679NfmJ7Vd/e2IqLE75/ZZ9eSccgYnP5R6+bHULaDd58Uw667AKu+uxtJs2YysDRo6js3StoHuipD9+DvbTExChzWy4NswI8o32Fk0uJqTDZGU/cn9T9t/+/wzjkiol89L9H+PLxZ1MUlRCpcdWnwXNPbz9gAlV9erPw9xkUWApxlJZSt3KVSdGJQNk01SVdznn+0aCfIy32uGXal7LvdYJyLZkTXdDN077ocF15TXcaa9em7TGHbzMmqfsfcsVEAPY99wxJ5kTWC1f5vnzr3SJu3C7DrCIbjNp5B5b89TeNa9eZHUrWk2qWMF24JfZDt9o884EIkUdu/ekrBmwSvrdZQYG8NWSCNP6NrLiinJMfuJPrvvnQ7FBygvyPzVP20hK2/7/DzA4DW7Ej7PXH3nVT2h4zXXuv3v7LtwzYeKO0nFuIdDj/5SexWDsO0Bx2jfRdzITbf/nW7BDSrtASX3udgkKVltw0xb++UbZa7Jwkc13EricdQ/9RI2M+/pZpXxpDhWayl2R+wuvBl1+Y0vPZiouZNGMqVpuN8195KqXnFvnFjOHNO377vsN1I8ZtnfE4RNc0ePPRcR0fbgHQfuf/l4123C5VIXVJkszlKKvdblw+4JLz2P+Cs7jg1Wfo1qtHlHtlRpHD3vlBmuHjxqYxksy49aevgn6W3nUiUSc9cKfZIQhNcUU5k2ZMZbO9du/84AT0HTk8LefNNmc983Bcx5dWdgv7oeaUhyalKqQuSZK5HDRpxlRun/6N0Z9n52MnGLdd88V7APQePpR9zj0j7P17DR2S1vhu+/mbmI89+tbr0hZHOJaioow8jtVmM/59oiV3Jd0qmDRjKiO32yYjcYnsNmj0xqY87qQZU9n91OPZaMftqOyde21J0jH37JArLwLguDRN+Zj4xnNpOW9XMPag/c0OIefIatYcM3r3nTs9JjB5KK+uMhoDP3D8GSz49Q8ueeeltMWX7S5+64WMPM4pD8b2KVIfGt/lhKOY9cOPnRwturrSqkrTHnvfCB/+zLbV/ntz1K3XMumw41g+a06H22//5VusNhsfP/AYXzz6dMoeN7TBrcicI2+4Iuz1xRXlOBsaMxxNbpDKXI454d7b4jo+cIeHs599JNXhJKSzalU69Rg8MCOPM3zb4NYn+u9c2atn0PWDN1PzSfJxjpL+nBx923VmhyKyVJHDzlG3XgtErmTpVbl9zlY7usRSEY+FtGdJnr6YIVW2O/KQlJ6vK5FkLkcUWizsfsrxSZ/H7PlcqXyBHLn9tpzz/GMpO18mXP3Fu0H/jjsff5SJ0fgVOexR3wD120575J6g6wdttgmTZkylqm/HKsYdv34fcWePnQKmBmy5315JRC66stApG5NmTKW8pnvE4wutwSsnx088J+HHjnfivuioZmBqGyJna/U4G0gylyPu/H0y+56X+3/IG++6k3G5tLJbQucITCwGbz7a9AQ1XoH/jo6yjj32zBD4phmacJ94n78aPHL7bYOe73NfeBzouONAQWEhliIrPYcMCvvvc+Al5wX9rM/jtFitplZuRfa77usP2POMk5g0YyojQhZQ3fnb5KCfdznhKPY47YQMRhebXJyXmIh0jjj0HTmczdO0OCUXSTIn0iLSm3FQYhDnxsrR3uSPueOGqPctKCzMqgTBrIRFf9xCqyVsNQ3grj9/CPp5k906n6epn1sXac4LwLjDD+5w3Rb7/kfdL2CvxmS3XBNd115nnQrA6Y/9r9Nj9znn9HSHE7djbr/e7BAyIp0j1RPfeI5j77opqLNDPpNkLgcks2G2mTpbNdvZSlarzcb+F56NrdjB0DFbRD12i33+E/RzodWCo7zM+DlfhvJqBvY3ErbQCtv+F55tXL7zt8lc9enbERtHT5oxlZJuFREfZ8iWm4WtKuqPOfbA/TqcTxeuIe1/TjsRUJPddcluuZZNLEVFTJoxle79+wVfH1CJ3KCTv3GRuGyblzlky83MDiEjNkxDb7jqfn34v1uuMX7O1KK2bCfJXA7Y/8KzzA4hIcmumt1+wqHseuLR7HrSsfz36Yfiuu+dv03m5h8+N5KLXU7Ijrlp6Xb5h68bl+/68weGjt3S+HnXE4/ucHy0xtE3Tv40YlPnQ6+6mLOfe7TD9bueFLlT+/F330JZ96qIt4dzQMhwbDYprewWc4X1jl+/A+CKj99gq/H7qOqoxRLUsPesOP/GRey66oe54opys0OIaqMdxqX8nFd+8hZjxu9j/JzqeXm5SpK5HLD9hEPNDsEU+mTmPc84KabjLwrzCU0fyu07YljqAssh/33qwaSGczeJ0Aqnz/Ch9Bk+tMP1+51/ZsRzbfqfXbn+m47d3aMJ7KGYbW74/pOE7neUVlW48/fJnRwpUmnXk47pckNyliLpLiYUSeZEWiWzBYvP64vreD256D1sA+O6Ux+6O+HHzxf9NhoR8bajAoYzskFV397UDBpgWkWi0GIJW42L1ow626sn+WL/C87i9unfUNm7F4ddc2nce4aK7LX1wePNDsF0ksyJtEpqCxZffMkcwIhxY7n47RcTf8wc02voEHY7+bikznHha8+mKJrkDN82+tZue555Mld9+jaXf/AaN035zJTefJGqadH6FwZuGC7Md/Xn7zDu8IOMRRThxLMlYb4rKCykul8ftj38IE5+4C4mzZga1y5AqRBtwVW+kBqtSDu9inH1DvHNW/H6vHE/Viyr27oKi9VqzEvc7/wzuXdC5OHoTA4vJbq10hmPh/+3K7RY8Ho87PXfU4KuP/2x+5g4OvVzciIZvPmmEW/r1rMHK+fMy1gsInl7nHo8H/8vfCP1cUd0XHEt/AoKC/F5vRGncOh9K0XmSDKX5UJXv+WyGyd/GtfxFhkGichqt3P79G+Crjv/laciHj8+g4toDrrsgpSeb6vxe9N/1IZRjznwkvPZ6dgjAVKS4BU57Nz28zfMmTadx844P6b5bfqbV+DjyxtafKr69uaCV57m+t3G42lvz/jjV/TsQe+hgznw4uxdeJNJoX+/j51+Pqc9eq85wYioJJnLcld8/IbZIZjGkqLNs0O7wncFoYlcZ3Y46vD0BBLGuMMPSun5Jtx4VdTbCy0WI5ED2OaQ8fz41vtJPaY+TDR82zExJXKBO2M4ystwNTYl9fj5Sm8+fcdv32e06morLubWn77K2OPlqmxO5IorKnA2NJgdhmlkzpzIWoNGb5yS84w77KCUnCcb7HbycVLtCRGabB1xfXLzZ5KdL3XzD5/Tb8MR8u8Uh0KrhTv/mBJ0Xe8wq6VTTf93ysdErqw6uE3Q7b9+x24n+1sL5drf745HZ+4DazaSZC6LWaz5XThtWrc+Jeexl2bHllmd6T9qZMTtvfSms9Faf+SjnkMGxXR9cUXkBsjg3xnDUV6WksnbF76eHYtKzNRrg8ExHTdpxlTu/G0yhSGbsp/7Qvr3Xc7Xf6dJM6Zy/bcfGc3FbcUOrEVF7Hf+fykoLKSgMPdSg9A5tfkm9/7FoisEcn535HFHHMykGVODGormo74jh6fkPLnSi+mCV5/h5qlfhL1Nbzorgl363iudXr/Jbjtz05RPw1YauvXqEXT9zT98nvog89RmneybabXZsJeGb0oNRGxYLfyu+OjNpM9x158/BLXPuf6bD7krpEoqsl+uJXNHAAuAuUDo0r07gSXA26F3yjWHXd1xu6N81H/UyJScp6STqky2mTRjalDfssC+eSI+k2ZMDdoPONQ1X7yXwWjyy4ZRuv8XFBRw+y/fcsu0LzMYUXaItCdyIuwlqdnqcZfj/bvDlFZVpuScIrNyo2ShlAOTgG0BD/A78D6wRrv9c+A5ukAyJ1Ir1RPyM+GOX7/jmp324YbvPjY7lJw1cPSoDtf1HrYBK+fOB+A/Me4sIhIzaNOOc1717fXu+vOHTIeTNcpruqf0fFV9e7N++cpOjyu0Wrjzt/CLeQIXEInclEuVub2Ab4FlwErgKyCwjv8Z0GhCXCkVujm6SF6uNgCVRC455730ZIfrLn77RWNYde8oTWNF6o3eYxfu+vOHvE7kAEZ00hw7XrGOPERK5LqSIoedq794l0kzplJa2c3scDIql5K5AcCigJ+XAn0SOM9pwHRgek1NTSriSqmaQQPMDkGILi/XVurlOktRESfcc6vZYWSFyj69Unq+zhZxhNt+rqu67edvqOzVE0h87+RclUvJnA0I3BLAixpujddjwBhgTG1tbSriSqmKHtmXYAohRKIGbrqxLOAJUEDqR1/CTSkoKCjImyRO5FYytwII3A6hP2rBQ5cy9sB9zQ5BCCFSYvg2YzjvxSfMDiOrpGMqzXkvPcnI7bfl2LtuoluvHkB+z0vMR7m0AOIz4FagJyoJ3Q443dSI0mDsgfuZHYIQQqTEGU/cb3YIWWebQw9Iy3n1XUg276QlTD7pP2okS/+eZXYYGZFLlbmVwJXAVGAKMBHYE7hIu/094BtgIKp1yWWZD1EIIYQQ2eCCV58xO4SMyaXKHMAz2lc46fm4I4QQIq/1HTmc5bPmmB2GEBHlUmVOCCGEyLgt9v2P2SEIEZUkc0IIIUQUnW0tprf/2GjH7TIUkRDBJJkTQgghoth+wqERb7vlx6+My6c8NAkAR3mZkeAde+eNedXrLdvsfNz/mR1CRkgyJ4QQQnSioLDj2+WRN17ZYX/USTOmcvMPnxs/b773HsblO377Pn0BirAOuPhcs0PICEnmhBBCiE6E6w+39UH7x3UOizXX1hyKXCHJnBBCCBGnXN3zWXRNkswJIYQQnbj8w9eDNnC/7edvzA1IxEzfr7Urk2ROCCGE6ER1vz6A2sBdFjPklgtee8bsENJOkjkhhBBCdFll1VVmh5B2kswJIYQQQuQwSeaEEEII0aV19aFxSeaEEEIIIXKYJHNZxFbsMDsEIYQQokvqytU5SeaySFXfPmaHIIQQQnRZAzYZZXYIaSHJXBbptcFgs0MQQgghuqzzX37S7BDSQpK5LFJosZgdghBCCNGldcXhVknmssiORx9hdghCCCFEl9fVes9JMpdFBm8+2uwQhBBCiC7v+m8/MjuElJJkTgghhBB5pysNt0oyJ4QQQoi81L1/P7NDSAlJ5oQQQgiRl674+A2zQ0gJSeaEEEIIkbcmzZhKkcNudhhJybVk7ghgATAXOCnktk2AP4BFwP3k3u8mhBBCCBPc9vM3TJoxlXFHHGx2KAkp8Pl8ZscQq3Lgb2BbwAP8DowG1mi3fwfcCnwGfAXcA7wT7YTTp0/3jR07Nj3RAn1GDOWiN19I2/mFEEIIYa5fP/qMXz/4lNnTfsbT1pbWx/L5fL8AY0Kvz6Xq1V7At8AyYCUqYdtdu60HMAT4GJXovQjsHeE8pwHTgek1NTXpjFcSOSGEEKKL23LfPTnloUkUl5eZFkMuJXMDUEOouqWAvplpf2BxhNtCPYbKasfU1tamOsYg9x9zWlrPL4QQQghzvXjZtdw74SRaGhpMi8Fq2iPHzwZ4A372oqpwnd1mmoV/zGDi6HExHVtosXDn75PTHJEQQgghInnivxP55/sfzA4jbrmUzK0Adgn4uT/wY8Bt/UJuW5KZsFLD6zE99xRCCCHy0iVb7pT2+W7plEvDrJ+h5s31BHoD22nXgRpibUYlexbgWOD1zIcohBBCiFwycfS4nE7kILcqcyuBKwF9/42JwJ7AUOAu4HjgWaASeAaQMUshhBBCRHT3EcebHUJK5FIyBypJeybCbb+iWpUIIYQQQnRq2T+zzQ4hJXJpmLXLq1u12uwQhBBCiLwQ6wLFXCDJXBb55ukXzQ5BCCGE6PK+f/E1s0NIKUnmssjsqT+ZHYIQQgjR5b1z2z1mh5BSksxlkab1dWaHIIQQQnRpdx5yjNkhpJwkc1mkWZI5IYQQIq1WzplndggpJ8mcEEIIIfLCcxddZXYIaSHJnBBCCCHywh+ffml2CGkhyZwQQgghuryutoI1kCRzQgghhOjyutoK1kCSzAkhhBBC5DBJ5oQQQgjRpV2/+wFmh5BWkswJIYQQGfDuHfeZHULeali9xuwQ0kqSOSGEECIDvnv+FbNDEF2UJHNCZKmXr7wxJzeCfuWqGxO636OnnRv3fSI9P8+cf1lCMQgRyTU77cOt+x1u/Pzx/Y92OGbe9N+YOHqc8XX51rty7/+dbPwsRLpYzQ5ACBHe9Pc+AlTCMmnG1ITO8fVTL+Dzefn66Rc58JLzGXPAPh2OmTh6HFsfPJ4jb7girnNftOl23PXnDx2u//ndj/jPGSfTvX/fuM43e+rPYa/X3wR3PekY9r/gLAAu3nwHvB5P2OPfuf1eZnz5LTfvcyhXfvxmXDEIEUnz+jqa19cFJWVfPPZM1Pu0Ol0s+evvNEcmOvPzux+aHULaSWUuy6yct8DsEEQWeOPGO4J+/u3jzxM6zwf3PMiH9z5MS30DL195A1dsu3vQ7c9r3dB/evv9Dvd99477eOHSa/n4gcfCntvn80V83NvGHxH2+nirE4HHf/3UC0aFIzCRCz3n9y+8CsC6pcvjeiyReg8cd7rZIaTEzG8mmx2CSMJr191qdghpJ5W5LCP7swqAqa+9HfTzC5dcw9AxW1DRo4Zrdtwbn8+Hp62dW370dzMPreCtWbi4w3ndzS3cefDRNKyppaW+Iei263c/gIqa7lzw6tO4W5xB83v2Ofu0oGNv2eewsHHff6x68/a2e/j4gceC7qcnXRNHj2P07jtzwr23Gbc9etp5Hc514x4Hhn2McCaOHscW++7J7yFJ74Lf/mTIFpvGfB6RWgt++9PsEFLihUuuMTsEkQRve/gqfldSEO3TdVc3ffp039ixY80OI8gZj9/P8G3HmB2GMMErV9/EP9/9QNO69XHdz15SgrulJU1R+emJ4kMn/pd5038DYKOdtueUB+8C4L6jT2HxnzNjPt+l771CzyGDmHTYcSyfNQeA/5xxEnufdSoQfxWvs7hF5k0cPY6CwkLu+mOK2aEkJZXz3bLt73HZP7Ppt9EIs8NIq640X9Hn8/0CdEgSZJg1y/zw2ltmhyBM8vM7H8adyAEZSeQALhu7CxdvsYORyAH8890UY+gznkQO4PYDJjBx9DgjkQP4/JGnZLJ4F+Pzevn7u47J3K37Hc6t+x3O1Nff4aJNtwu67YmzLspUeF3KNTvtE/X/ztPnXdrhugdPPDOdIYkMkWQuy/z19XdmhyBEWG0ud5cYrvjp7Q+4fOtdzQ4jrzwZkpxdNnYXahcvpXbxUt644XZ8Ph9/fPaVcfs/303hpStuyHSYOe3izXcwpumES+geOO50/voq+P1lzcLFuJsz82HQLJNfet3sEDKiqyVzA4Fqs4NIRld4sxQim716zc20Ol1prf5NHD0u4RYtXVVgy442l7vD7c9NvJLnL76ai7fYQV2Rx1OAEhG6ujv071ufv3jXoccCalHHbeOPzExwJnr/7gfNDiEjciWZ6wdMBpYArwCOkNv3An4B5gGjMhuaECJXTHkluFXJpVvtnPLH+PDehwHVokXE5/dPvjA+0PqInszdffjxmQgpp00cPa5Dv8oVs+cycfQ4njrnYhMjy5x2d8cPDl1RriRztwIvAgOAduCMkNtXAEcCuT3LVgiRcldu9x+mvfEuAG/dfFfQbe2trSkfcv322ZeMyyvmzEvpufOJs6Gpw3WvXXuLUd1b9u9smVupiTbXVu9XKbq2XEnm9gee0S4/B+wdcvufwNxMBpQpoZUEIUR8XI1NvH79bRHf+PUh10gLL67eYa+4Hs/T3m5cvuuQYyIe90NI+xkRbOHvHduaTH/v4w7XPXb6+RmIJruFa+0j8ksuJHNVgFP7AlgK9EnifKcB04HpNTU1SYaWHnoPr+t3PyBvJm+Gummvg80OQeSpwITu+t3G01LfwMTR4zrdImzJ3/92WJUZzkWbbc8Dx5/BmyGNoQGePDs/hr4SFZgo62b98COXjtkl6Lpsrtgt+PWPlJ5v8V9/B60IT8RaabCd87ItmXsULdEK+NoU8AYc4wWSWSXwGKpHy5ja2tokTpM+a5cuY+LocTSsXsP6FSvNDidhXq834RfV9ctT93t/cE/2T4B1NjSaHYIIcNGm23HpVjvTsMb/GjHjy28jHv/UuZdw75Enht0VI/T/gM/rNd7QQ3cW+PvbrrPTwJ+ff53U/eNZDBY4LyqbEzmAn1M87PnVk88nfQ53c3MKIsk+z0680uwQMibbkrnT0RKtgK/vgUrAph3TH7UQIi+EW/WVK6a8/EbMx16+9W4s/XsWAN9p2zGlSktdfUrPlw7v3nGv2SGIAD6fj/bW1g7Xz/vltzBHw6wpPyb0OIGT0KMN575z2z0Jnd9MyTakD+2fGO7fI1Cu9CdMdWVu2T+zkj7Ht8+90vlBOejPgHY3XV22JXPheIFvgKO0n08A8nPsMcfM/ekXIHyjSt19R5/CI6eeS6vTyT1HnsCN/zmId2+/F4Cb9z4kJXHkQocDWfmYGx464b9Ax71zY0k0rtt1/7DJhp6E6Nurhb7Z33XosXz/4mvJhN0lRHsdySWuLOzr1tYFV3y6W5ydH9SF5EIyB3AuagXrUsAFvAyUAx8CFlSCNxfYBtW65CdTohRBFs/4G6BDo0rdN8+8xOI/ZzJn2s/GdXUrVxmX1y1bkZI4UvHJVQjdxNHjmPra23z15HNx3a+xdm1Mxz14gurIv/TvWUwcPY4Vs9Xartevvy3a3bJOKkcVvn3uZf6dPC1l5zNTw+o1KT1f8/rkRx7+ijKFIJfcf+zpXDpmF24/YAJXbLOb2eFklNXsAGK0ANg25LpGYD/t8jP4V7uKLBE432jxX38zcJPgFoDzIwxZpdqyf2dn5HFEfvnw3ofxeDz8/vEXKT2vz+cLW8Gb9sa7HH5t9EUY2WTKq8mvxP/g7gfY/8Kz+fqpF1IQUdeUiu38wi0sAbh2531pWrc+6/aTDeeDux8wVkCvXrDI5GgyL1cqc3ntw3sfMjuEpD15dse9FmcHVOSEyEWf3P8YK+fONzuMrORpa0v6HF8//SKXb70bjWvXpSAiEav7jj6FiaPHJbRXtFm+fvpFs0MwlSRzOSAVq5Uy7fmLrw76uWnt+qDbvnrqedMWd1y02fY5MVFaiFD5+Hfb6syvuU/xuHbnfVN2rpeuuIFb9j2cS7bYkcV/zgy67bXrbjUu58pCk3yTK8Osee/uI47nwteeNTuMmP3+Scehpxv3OBCv10vDmtqwt8dj4uhxFFot3Plb/K0cfF6vcQ6dvbSEW6Z9mVRMQmTCxZvvwJ2/T+aHV9/izZvuzNohsFXzFpodgmHuz78ybOyWZoeRcqmsnP3yfseGzLof33yPH998L+i6GV9+y+jdU78dnkiMVOZyxLJ/Is/7ypUGu3WrVgfNo4tFtFV83nZPyj4huptbePCEM2l1ulJyvmjm/DidK7bdnUu32pkP7nmQy8bukvbHFF2H16P+7t+86U4ALtliR5MjCk//0JQNHj7pLLND6HKeOf+yoJ1TQl+Lb9rzYJyNHbdkS4crttk9I4+TzSSZyyH66rmJo8dx0abbcc2Oe3PRptultMFuKjxwfOjWuYn77ePPjctN69Yz9Y13OrxoPHLKOZ2e59b9DmfWlGlRk7/5v/zO5Vvvqp7fzbbn/mNPTzzwEPcceYLxgvfIKefgbm6hvbWVr596Iad7CQrzedrb+SOP+mnFSl/9+uhp5wLw8QOPmRlOXtD7Jv7w6lusX7GSb55J/Ty2n975oMN1qVgEkuskmcshH977sJGM+Hw+muvqk27MmQ6pbIoZOLn8ul32443rb+9wzJwfp3d6ntrFS3nsjAtiflyf1xt2b8jOLJn5j3F54e8zjAROb4gsRDo8N/FK6latNjuMID7MfW168pyLePzMC5g9VS20+vbZlxI6j6ct/ErPZHyTYCzZbuY3k4Oqxun4kPHq1Ten/JxdgSRzXURgBeuNG+/otIlprnA3t/Dq1Tdz31Enm5K4XrTpdsyaMo0b9jiA+b/83uH2/x1zKh/f/ygAU994h3snnGQkcPcfe1qGoxX57MY9Dow6HSPfeNs9Qb3p2lxu/p08jddv6PiBMBqfL/XDxT+88lbKz5mN4p1WE6vbD5hgXI5lZCYfyAKILuKFS65h5jeTWfTnX6xbupxpb7zLXX9MiXj8xNHjKK/pznVfdyxZZ5twZfVM8fl8RkVPb+a63ZGHcOhVajhh7dJlLPrjL7547BmzQhTCMOen6fTbaETS5/n2+VfY+dgJnR+YYx4/U/1fPvya2HeTSHaP2XDWLl2W8nNmI3eadrtYvWARdx58NM119TE34+7qpDLXhfz20WesW7ociG3ycVf6T/DZI09l7LF+eudD43JgyxUhzNZYm1w/tmX/zmbi6HHM/iGxvWYDeds9SZ8jXS7adLuYj61dkh+JV65ZOXd+l3oPS5Ykc11YpJVGb986ycSo0uPzDCZz7V1wH0PRNfz1dfit82IxcfQ47j78eIAus3VWJKFTNt644Y4IR6ZvN4FLt5K2HvG6cY8DzQ4ha0kyl4cmv/SG2SGknNeTvVUAITKldtESnrng8rjvl49NYC/abHueOvcSrth2d6a+/jbX7bo/F2+xAxdvsUPQcaneS1XXVeY1d+apcy+J+z637Ht42OuzbZFPNpFkLo909c7dV22/Z8Yea9ob78o8OZGVZnzxDS9cei2e9nYu2XKniMc1aENUkw47LlOhZRWf18vMr7835nU11q7F2+7pMDwsK9GTM/Pr7+O+z9olSztc9/e3keeAC1kAIboQZ0MjT51zMSfdf2faH+v1629L+2MIkajfPvqM3z76DIC/vvqWPiOGccs+hwFQXtOdw6+5NKGKST5KZw+zd267h4Mui71lUj64eoe9wl4fbn9v4SeVOdGlzPwmeHuvXz74xKRIhMgOT593mZHIgapASSIXXfP6uow8TrQdbvJVS30DAF887t++MvDvV4QnyZzocvTh5Hv/72Reuvx6s8MRIiddsW3+bpF02/gjM/ZY9avSMycvm1y+9W5BP69btqLT+3z8v0eMy/nSyiUZkszluR/fet/sENJmyV9/mx2CEDnL3dzCnYccw8f3P9ql59qGo1eHMuGGPQ7I2GOZpdXpNHaDuGzsLty89yHcdegxHY575eqbgn7u6vO8U0nmzOW51669hW0OGW/83N7aitVmMzEiIUS2WDlnHivnzDM7DFNkMom4eIsduPO3yZ0fmMOem3hl0M8rZnf8u/o5oIeniI9U5gR1K1cZl1O5ubwQQojOeds9NK3LvwbkV++wF2/dovqe3rTnwSZHk9skmRM8c76/L9XSv/81MRIhhMhP1+68r9khZFxLfQNTXn6DiaPHsX7FSrPDyWmSzAmWzPwn6Oc506abFIkQQggh4iXJnACCJ5p++9zLJkcjhBD5582bYu+R+dBJZ6UxEpFrZAGE6GCxrAIVQoiM++HVtzj0qosj3j5x9DjspSU4ykrzoqWJiF2uJHP9gFeBQcAU4ATAFXD7FsD/gD5Ao3b7HxmNsAvJVMNMIYQQwQJX0dqKHdz609dBt7ubW4wtyITQ5cow663Ai8AAoB04I+T2nsCxwDDgHuCujEYnhBBdXOPadWaHkHdanf6axcVb7GBiJCLb5Uoytz/wjHb5OWDvkNs/BRZql38FqjMSlRBC5IkvHnva7BDykj6f2dvuMTsUkcVyIZmrApzaF8BS1HBqJMcCb0S5/TRgOjC9pqYmJQEKIURX99tHn8d87PT3Pk5jJEKIUNk2Z+5RYKuQ6yYC3oCfvUCkjygHA+OAaJsKPqZ9UVtb60ssTCGEyC/xbHHV6nJ1fpAQImWyLZkLt/1AIVAJ2IBWoD+wJMxxewGXoYZg29IUnxBC5CWfL/bPvt+/8GoaIxFChMqFYVYv8A1wlPbzCcDrIcfsBlwP7Afk354oaXDPkSeYHYIQIsv98OpbYa9fvWBRhiMRIr/lQjIHcC5qBetSVEuSl4Fy4EPAgho2HQxMA+bSMdkTcVr69yw+vv9Rs8MQQmSxD+5+0OwQhBDkTjK3ANgWNcR6CmrOXCOqEudBtSTprX0fBhxuTphdyxePPWN2CEKILOJqag762d3Ssd/Zi5ddm6lwhBCaXEnmRBa4df8jWDlvQdRjls+em6FohBCZ9uZNd3R6zK8ffpaBSIQQgSSZE1FdtNn2fPrg41y61c7ULlrCk2dNDHvcNTvuzWvX3sKkQ4/NcIRCiEz57eMvjMsPHBduvZoQwgySzImofF4vnz3yFO2trQCsW7Yi7HHNdfX8+Nb7mQxNCJFhPq+Xn97+AIAFv/1pcjRCCJ0kc0IIIWL26jU3B+0f+tH/HjExGiEESDInUqDN5TY7BCGESaa8HG3DHSFEJkgyJ+J23S77Bf182dhdzAlECGG60BWuQojMy7YdIEQOaFy7jkdPOw+rzcaq+QvNDkcIYbJHTzuX0x/7H3cefLTZoQiRlwri2aKlq5k+fbpv7NixZochhBBCCNEpn8/3CzAm9HoZZhVCCCGEyGGSzAkhhBBC5DBJ5oQQQgghcpgkc0IIIYQQOUySOSGEEEKIHCbJnBBCCCFEDsvr1iTAGmBRmh+jBqhN82N0BfI8xUaep9jI8xQ7ea5iI89TbOR5ik2iz9MgoEfolfmezGXCdML0hBEdyPMUG3meYiPPU+zkuYqNPE+xkecpNil9nmSYVQghhBAih0kyJ4QQQgiRwySZS7/HzA4gR8jzFBt5nmIjz1Ps5LmKjTxPsZHnKTYpfZ5kzpwQQgghRA6TypwQQgghRA6TZE4IIYQQIodJMieEEEKEVwyMMDuIHCDPU2zS9jxJMpdeRwALgLnASSbHkq0cqImgs1ENnC8wN5ysZwP+Bp4wO5As1g14BVgGzEM9Z6KjC4E5qNeos0yOJdtUAO8Aq4BLAq4/D1gMzAL2yXxYWSfc89QdeBX1tzUPmGBKZNkl0t8TqOdrFXBVMg8gCyDSpxz1prst4AF+B0ajdp0Qft2BXYC3tMszUY0Ul5gYUza7DtgaWA6cYm4oWes51IeDmwE74AbkhS7YYOAbYGPUB6r5QF+g2byQskoZsA0wBPUafgowFPgY2AoYAHyB6sbfZlKM2SDc87Qh0Bv19zUM1Ry3B/I8hT5PuqdRz9cU4KZEH0Aqc+mzF/AtqjqwEvgK2N3UiLLTWuBN1JttLSqJqzQzoCy2ETAWeM3sQLJYb2A74BbU35QLSeTC0d9YvYAVaARazQsn6zQBXwLtAdcdjPq/14j6oL4Qldjls3DP07+oRA7UqFQbangxn4V7ngD20K77MdkHkGQufQYQvO/rUqCPSbHkik1QVYK/zA4kCxUA/0MN84jINkYNG76JGgq7C/XciWDLUFXeaagK01Hkd+UkFvKaHr99gF+BBrMDyULFwA10HHZNiCRz6WNDferVeVHDrSK8GuB54ESkkhLOGahPu3NNjiPb9QRGAecAWwLbA+NNjSg7VaASuPOAu4GLUBU6EZm8psdnGHAncLrZgWSp64AHgfWpOJn8502fFai5YLr+pKCU2kVVAR8AVwA/mxxLtjoWNQ/zcKAaKEVVnu40M6gstBr4BVU1AfgcGGleOFnrGOBP1AeEb1BDiP9BzQkT4a0A+gX83B+Z2xvJIOAN4DjUcLTo6CjUdKyLUdNDfKhRhRcTOZkkc+nzGXArqlJQiJrHI59QOqoA3kdN/JQ3ksi2C7h8ArADksiFMw14FDWZfy1qTsqVpkaUnVzA5kARamrDCFJUIejCPkSNHtyFWkBSjVrYJoL1Qy1oOxU1xCrCGxBw+TrU3LmEEjmQZC6dVqLeRKZqP09EVoqFcy6wBXCv9gWwJ2p1nRDxakYNsX6OWsn6DPC1mQFlqReA3VD/z5zAs6hEWCjlwG/adwdqlOVU1PM2E5UMn4JMCQn3PBWgps28HHDcKPJ7gU2kv6eUvTZJaxIhhBBCiBwmCyCEEEIIIXKYJHNCCCGEEDlMkjkhhBBCiBwmyZwQQgghRA6TZE4IIYQQIodJMieEEEIIkcMkmRNCCCGEyGGSzAkhhBBC5DBJ5oQQQgghcpgkc0IIIYQQOUySOSGEyC4TgHrgNbMDEULkBknmhMgdC1Ebe8fztZUZgaZJD+Ai4HNgCWqz80ZgMfANcB1QalJsqXQMUAEcDnQ3OZZYPEP4v71m4B/gPmCQWcEJkQ+sZgcghIjZQqC9k2NKgd7a5VeBX9IZUIYUAlcCl+JP1lqBNdptfYEBwM6oxKI58yGm1D1AT+ArYK3JscSjBVihXbYC/YANta8TgIOAr1P0WFZgF+AA4GZgVYrOK0ROKvD5fGbHIIRInQ+BfYGVwMbAOnPDSZodeAv1O6Fdvg/4AX9i6wDGAScCVwBLMxxjvnsGOB74FNg74Poi4FDgAVSFcS0wFDWEnKxtgana5SGoDzpC5C2pzAnRdZyEP+k5jdxP5ACeQP1OblR155Uwx7hQFZ9UVX1EarSh/r08qPl/3VFDx0+YGZQQXZHMmROia+gP3K1dfhZ4P82PV0D6Xz8OQM0fAziH8IlcIjIRu/B7B38VdVMT4xCiy5IXNCG6hieAbqghxvOiHFeCGor8HTW3rBGYDpwP2MIc/wxqMvsn2u2TUPOivKhkK9AOwAvAAsCpnXsGcAfQJ95fCLha+/4z8HgC93+G9Mc+RrvfbO1+tajhv9PCHDsSeAT4G/Xcrwd+Rf17BLpOi/vfkOsH419csC1QgxpyXoCqXC4FHgSqo8Q7BHhUu48LNdfsZWAYcJl27oVR7p+INtTzAuH/xspQyfqXwGrt+HXAZwQP24KqzvrwD7GC+l305+WEkOPj/XsXIifJMKsQue9UYC/t8slEnpM0BJXYjNB+XgsUo1a8bgUcrJ3HFeH+j6LeLFcATQHXW1Dzos7Qfm5HzdkrBTbRvk4BDkGtOo1FP1SiBIklcqHSEftVwI3aZRfq+eyJSrTcwGMBxx4PPKk9XhsqieoBbIFKvm6J8/cZgBq67KvFa0E9Z/8Ftge20WIItA/wBirBAZU4gWqFsi/wbpwxxKoC9buCSrxCfYN/1XW9Flcf4D/a14moxBygAZiHmkvZX7tuEf7KX0PAeZP9exciZ0hlTojcNhBVcQKVsHwW4bhS1OKIEcD3qMURNaiqyH6oyslO+JOTUBsCBwK7ohKIKvxz1G5BJUNe4BrtvANQScoYVCWkCnhbuz4W2wdc/i7G+0SSjthHAjdol2/WjumPWoyxDWqhhq4b8DAq4Xo64DGKUcliIsnqg8CP2u/TH5Uw6cnjZqgEKNAGqOSvBLV4ZBOgl/Y1BtXe5dgE4ojFOajf3QO8GeZ2C6oCOhKoRCWl/VG/H9ptehXtLVQV8fCA+++iXTcM//Oe7N+7ELnF5/PJl3zJV25+Ffh8vs99ynyfz1cW5dhLteP+jXDc8drtjT6fzx5w/TM+vzPD3G+Iz+dr026/IMJjV/p8vhXaMQ/G+LudF/C40X6vaF/pjP1I7TpvyPMV7mubgDhGxBD3ddqx/4ZcPzjgPP/6fL6ikNutPp9vsXb7eyG3PaVdvzDC89nb5/OtDzgmkef5k5DrHT6f78KA5/iaCPfvGeH67QJ+321Cbts24LbBYe6b6N+7fMlXTn5JZU6I3HU6sAdqrtBJBA8fhjpe+35fhOP0il4ZaugvVDNqYUWoI1DTNVajhivDqcNffQqdqxZJYPPf0OHCeKUj9kXa9wLg6E4efwnq3wj8CzqSdT9quDZQO6o9CKhKnK4Q1SIEIv/7ryT5BSY7AnO1r/moOYGTUM/h6fgrmaFWR7h+ZcDlfnHGkuzfuxA5RebMCZGbBgN3apf/R/S5aKXARtrlK4GJnZy7d5jrFqCawobaUvv+Ax2Ti0A/ad/7A+WoiejRrA+4XIO/GW0i0hH7NFTitBdqLtwJqKHUt+iYfC5HDYGejlrUcQDwEGrhQWfPQyT/RLh+mfY9MBkehhqGhehD1osTjEVXguojF2gJ6jmKFK9uO9Rih020c2yASrR08SxWSMXfuxA5RSpzQuSeAuAp1JvdbODyTo6vDLjcD/VmGe5L5whzjkjJVJX2vbOdCuoCLpd3ciyo6o5ubAzHR5Ou2A9ArZRch6pKvYRaUXopqmFuoDNRc/OWoua0PYpK8m4nsS3IwiWn4J/MXxBwXeCWYJGqYOCvHibqU+1xbah5eF+h5gZORs1ZC6cK+AKYgkp090bNX/wcf6udeFUGXE70712InCLJnBC557+oyfxeVEXI2cnxgcNMu6HecKN9hRtu83Zy7spOYugWcHl9xKP8puCvcE2I4fho0hV7K3ArqmJ3PKqCVwPchlpsEMiHSuCGoIY8P0cl45egqqrpHCXxBFzuEfEotSAjFdpQ28jtjaoEVqMqluGS1seA3VHtUP6DqiBugVo9fHGCj5+Kv3chcookc0Lklg1Q1RyAuwjutxVJPf69K0enOJ6/tO/jUKsSI9la+/4PnSefoCpPz2uXj0CtEE21VMXuBJ5DxXihdt1BAfcL1I5KbPZEJXU+VBXrkDjijteigMubRTluyyi3JaIN+D9UAjwCtedsoGLU8wRqOPQLgvceHpbg46bz712IrCTJnBC5owDV2qIUmIlqpRGrD7XvZ+HvMxaOPc6YXkclJH3x92oL1Q3Vqw3gxTjOfSMqEbCgWlpsEmdsnUlH7A/jH64c3Mmxb+FPOjo7NhmrUA2QQQ0Bh6sCbonqQ5dqy/EnuKfi324O1BCrHktdmPueGuW8zQGXwzVJTtffuxBZSZI5IXLHuajeWO2oYb14VnnegaogjUAN8W0VcJsF1ej2JTp20O/MDNQCAIB7UfP3KgJu3wK1crAvMAu1ujBWi1FDrC7U3KdpqBWRoZPsq1F9x74ABmUo9gmo53REwHU24AJU0u1D7ToAaj7dY6iqmD6XrRA4Dv/k+1/jiDsRejV3JPAq/l0tClB91z4icrPpZD2Dat4L6vnW5/CtDnjMqwJiKkZV6qIlcwvxJ80n49+iTU/s0vX3LkR2Mrs3inzJl3zF9DXM5/M1+xSXz+ebG+NX4DkO1e6rW+9TPcWaA647LuQ+z2jXh/YQC/yy+3y+1wPO0eZT/c7WBlz3t8/n2yDB332sz+eb7QtWp8VeG3L94AzFfkLA7et8Pt8in8/nDLjuqoBjdwm4vl6LuyngusdDzn2ddn20PnPbRvh9LtNuXxjmtocD7u/x+XxLfOp59PlUv8KrtcsLIpw70lcsz/MAn8/XoB33WsD1FwfE1O7z+ZZr39t9Pt8RAbdNCHPOlwJuX+9T/w4nBNyeyN+7fMlXTn5JZU6I3HAx/uEiO5FX6EVasQdqqHJTVN+0+agKSC/UMNwrqCGw5xKIzY2qjB0EvIdaHdobVS2ZjNordkvtMRPxM6rVxFGoqtIC1PBcP1SV5Q9UxecA4m+vkWjsX6DmLP6FqgjVoOamPY+aK3dTwLF/ANejqm/tqOd8JWqYdQ+iV6BS6UzUczgZNSexCvVcXoharKC/HzSHvXdylqAWe4B6vvXefHei5g7+gNqKqxS1IGQPOi4iCXUGaieMxai/5XUEbxeWrr93IbJOgc+X7Gp0IYQQXcDjqPmBX6NWgQohcoRU5oQQQhTgT+CmmxmIECJ+kswJIUTXF9rEONSp+LcAezXNsQghUkySOSGE6Pr2Ra3qPJDg5r19UCuEH9J+fhXV8FcIkUNkb1YhhOj6ClCLCvZA7QixGtVKJXCrrw/x99QTQuQQWQAhhBBdXzlwJGrl6Aj8Pd1WobYhex6VzMkbghA5KK+TuTVr1vgWLVrU+YFCCCGEECYbM2ZMLWH2WM7rYdZFixYxduxYs8MQQgghhOiUz+cLW4GSBRBCCCGEEDksXytz44Hx3bp1MzsOIYQQQoik5Gtl7n3gtPr6dO0rLYQQQgiRGfmazAkhhBBCdAmSzJmgomeHhShCCCGEEAmRZC7Ddjp2Atd++R41A/ubHYoQQgghuoB8XQBhmjHj9wGgrLqa2sVLTY5GiNwwYMAAjjjiCAYNGkS3bt0oKCgwO6Sc5/P5qK2t5bXXXuPHH380OxwhRBIkmcuwip41ABTZbSZHIkRuGDduHMcccwxvvfUWTz31FPX19Xi9XrPDynkWi4UhQ4Zw3nnnAUhCJ0QOk2HWDCvvXg2AvbS0kyOFEAAHHngg//vf//jyyy9Zv369JHIp4vF4mDt3Lvfddx9HHHGE2eEIIZIgyZxJHGWSzAkRiz59+jBnzhyzw+iyFixYQE1NjdlhCCGSIMlcBgXO87GXlpgYiRC5o6CgQKpxaeTxeGQOohA5TpK5DCpy2I3LDhlmFUIIIUQKSDKXQbbiYuOyo0wqc0IIIYRIniRzGWQrdhiXZQGEEEIIkb22Pmh/zn/lKbPDiIkkcxlkK/FX42QBhBD5aeedd8bn80X9Ovnkk43jhw4dykMPPcScOXNwOp00NDTwzz//GC1FgKD7ejweFi9ezPPPP8/AgQPN+BWF6BKOvPFKBmy8EcUV5WaH0inpM5cBvYcPpaKmGldzi3GdzJkTIj/9+eef7L333h2ur6ys5Nlnn+Wnn37iqadUNeCYY47h8ccfZ9GiRTz++OP8+++/VFRUMHr0aIYPHx50/7fffptHH32UoqIiNt10Uy6++GJ22203Ro0aRX19fUZ+NyG6ioJCf62rvHs1zoZGE6PpnCRzGXDha89gsVp55/Z7AWhzu+nWq6e5QQkhTLF+/Xo+/fTTDtc///zztLW1ccIJJ+Dz+dh99915+umneeWVVzjxxBNpb2+Pet5FixYZ5/3ggw9YsmQJzz33HIcccghPP/10Wn4XIbqq6n59jcvl3atZvWCRidF0ToZZM8BiVTlzzyGDAJg1ZRp9NxxOcUWFmWEJIbLEQQcdxDHHHMMll1zC/PnzAbjnnntYsGABJ510UqeJXDi//PILAD169EhprELkg+79g5O5bCeVuQyqGdAPgJnfTGGT3XZmgy03ZeY3k02OSojcdOAl59N3w+GdH5hGy/+dw7t33JvUOWpqanj00Uf57LPPePjhhwEYOXIko0eP5vLLL6etrS2h826xxRYA/P3330nFJ0Q+qg5M5mq6mxhJbCSZy6DuWjK3cp765F1WXWVmOEKILPDII49gs9k46aSTjOs22mgjQM2vi1VRURGlpaXYbDZ23HFHJk2axHfffceHH36Y8piF6Oq69+uDp62dgsICyqQyJ/QhVoDu/VUy17C6FgBHWZkpMQnRFSRbEcsGRx11FIceeijHH388y5YtM653OFQbo3iGV8866yzOOussAFwuF9dffz333nsvPp8vtUELkQeq+/Vl3fIV2EtLKK3qZnY4nZI5c2lmtdk6XNdYuxav14ujXJI5IfJVnz59uP/++3nnnXd47rnngm5bsWIFoNqSxOq1115jxx135Mwzz8TlcrHTTjvJNmhCJMhWXIyruZk2l5sim73zO5hMkrk0s9qKOlznaW/H3dRMsSRzQuStJ554Ao/Hw2mnndbhth9//JHGxkaOOeaYmM+3fPlyJk+ezCOPPMIhhxzCnnvuyU033ZTKkIXIG4UWC962dtrc7qCtOLOVJHNpZtEqczO+/JY3briD/x1zKgDOpiYZZhUiT51yyinsu+++nHnmmaxZs6bD7S6Xi3vuuYftttuOa6+9Nu7zf/311zz44INceOGFjBs3LhUhC5FXCq0WvB4P7e7WsCNs2UbmzKWZXpn766vvmP7eR8b1rqZmisulcbAQ+WbQoEFMmjSJ33//naamJvbaa68Ox8yYMYMbbriBjTfemOuuu45dd92Vl19+mWXLltGrVy/GjBlDSUkJxx9/fMTHueKKKzjggAN4+umn2XzzzXG5XOn8tYToUixWKx6PB3KkMifJXJpZi1Qy197aGnS9q1Eqc0LkozvuuIOKigo233xzPvnkk7DHnHDCCTz77LMcdthhHHXUUZx88snceuutlJaWsnbtWmbOnMlDDz0U9XGam5s5/fTT+fTTT7n55puZOHFiOn4dIbqkQouFNrcbn8dLkVTmRJFdZfTtrcG9olxNzVT0qDEjJCGEiY488kiOPPLImI9/6aWXeOmll6IeU1BQEPb6zz77LOJtQojICi0WPO3t+DxeHBXZX3iROXNpZtGGWdvbgitzzsZGHDLMKoQQQmQdi9WKt92jFkDkQGVOkrk00ydOtrtDkrmGRsqqq7AUdVztKoQQQgjz6AsgZDWrAALnzAUPs8785nscpaVsvvceZoQlhBBCiAj0YdZcWc0qyVyaGZW5kAUQs6f+TOPadQwds4UZYQkhhBAiAoul88pckcPOQZddQGlVZWaDC0OSuTSzGnPmOm6WvWr+QnoOGZTpkIQQQggRRaE2Z67d3RpxB4gt99uLHY8+gj1OPSGzwYUhyVyaGclcSGUOYPWCRfQcPDDTIQmRU3w+H4WF8lKVLhaLRfZvFSKEJcKcOUtREVvuvxdWm43eQzcAoLym2qwwDdKaJM2sRWqY1dPasTK3ZuFiSqsqKa3sRnNdfaZDEyInrFixguHDhzNr1iyzQ+mShgwZQm1trdlhCJFV9DlzbdriRavNRntrKxNuuoot992T4vJyBm22CQB9Rw43M1RAKnNpZ4lSmWtYo15As2G8XYhs9e6773Luueeyxx57UF1dLVW6FLFYLAwbNozzzjuP1157zexwhMgqFqvVqMwBRnVu2NgtARi8+WhjZK20sps5QQaQylyaGQsgwsyZczY2AeAoz/6GhEKYZerUqSxdupTDDz+c8ePHU1lZKY1wU8Dn81FbW8sLL7zAjz/+aHY4QmSVwNWsoN7Ly2u6G83+N91jF6w2G5729qxY7SrJXJpFmzPnalLJXHF5eUZjEiLXLFmyhLvvvtvsMIQQeaLQajGaBgMU2W303GAwAL988Alb7b83ACvnzKfX0MEmRekn4xVp5m9N0rEy59Iqc8VlshOEEEIIkS0KLRa8nnbatWRu7EH7c+pD6gPll088Zxy37N/ZWG0200cLpDKXZvq4u8/r7XCbs6kZAEeFVOaEEEKIbGGxWvF4PKyYM4/2tjb2POMk47ZV8xbwxo130LB6Db20Fa2WoqKwI3CZIpW5NCvUGg+G42psBKQyJ4QQQmSLgoIC9d7d7mHV/IX88Opbxm1erTAz9bW3mfnNZCOB06dUmUWSuTRTkyjDJ3OtThee9nYcZbIAQgghhMgGBRaVGnna2wFYPONv47aHTzor6Fh/MmfuIghJ5tKs0GoJO8SqczU1UyzDrEIIIURWKLSoGWj6qNq/k6exesEi/nfMqcz/5fegY/X58GYnczJnLs0sUYZZAZyNjThkmFUIIYTICharBQCvNqrmbGjg9gMmhD22vU2GWfNCQWGhUaoNx9nYJJU5IYQQIkvolblo7926bKnMSTKXZoXW6JW5xjVr6dajRwYjEkIIIUQkRmUuynu3zt9UWCpzXZrFYo36B1G3chWVvXtmMCIhhBBCRFJoDZ4zF41/AYQ9rTF1RpK5NIvWmgSgbuVqSqsqjX3fhBBCCGEeiyV4zlw0+ladUplLrSJgd2AvswPR6VuCRLJ+5UoAKnv3ylRIQgghhIigUEvmYpszJ8OskRQDIxK872hgK2Cf1IWTnEKLBU8nlTmAqj6SzAkhhBBmK0xozpwsgNBVAO8Aq4BLAq4/AlgAzAVO6ni3IL8Cr6UjuEQVWqL3matboVXmekkyJ4QQQpjNos2Zi1aI0WVL0+Bs6jPnBe4HPgC21a4rByZpP3uA34H3AQvwSsB9bwY+z1Sg8Si0FEYdZq1ftQav1yuLIIQQQogsUGjMmYthmLUtO1qTZFMy1wR8CZwQcN1ewLfAMu3nr1Bz4l4BdslgbAlTw6yR/yA87e001q6lsk/vDEYlhBBCiHD8c+ZiqczJAohYDAAWBfy8FOgT5fjNUFW63YALIxxzGjAdmF5TU5OKGKPqbAcIUPPmpDInhBBCmM9SFEdrErcbkMpcZ2yo4VedFzXcGskfwNGdnPMx7Yva2lpfUtHFoNBi7XR5c93KVfQZPjTdoQghhBCiE8Ywa0xz5rJjmDXbK3MrgH4BP/cHlpgUS0I62wECYP3ylVTJMKsQQghhurhak8jerDH5DDVvrifQG9hOuy5ndNY0GGDdsuUUOeyU13TPUFRCCCGECMfYziuGOXP6MfoKWLNk0zBrOfCb9t2BWuBwKnAlMFU7ZiLQbEZwiVLJXOTWJABrly0HoHu/vjTWrs1EWEIIIYQIw7+dV+eVOQBPW7tRzTNLNiVzjcCwCLc9k8E4UiqWYdZ1S1UyV92/Dwv/mJGJsIQQQggRhtFnri22ZM7r8RiNhs2S7cOsOa+wsLDT7H7dctU4uKpvtIW6QgghhEg3S5Ga/xbLnDkAj8f8ypwkc2lWaLF02qum3e2mzeWmuKwsQ1EJIYQQIhyjMhdjMuf1eExP5rJpmDWTxgPju3XrlvYHslitMS1vdre0YC8tSXs8QgghhIjMP8zaFtPx3naP6Qsg8rUy9z5wWn19fdofKJbVrKCSOVtJcdrjEUIIIURketPguCpzMmeua4s5mWtuwSGVOSGEEMJU8Q6zetrbsVikMtelqdWs0VuTgErm7CWlGYhICCGEEJEktJpVFkB0bbEPszplzpwQIq9ZiorY+bj/o6JH+vfNFiKSuJO5dhlm7fJUaxKZMyeEEJ3ZcIdtOeDiczn3xcfNDkXksfhbk0hlrssrtFpi+oOQOXNCiHzXY9BAAMqqq0yOROQz/3ZesQ+zymrWLi6e1az2EknmhBD5q+dglcwVFppb5RD5rbDIiqe9HZ/PF9Px3napzJllPPBYRvrMWWLsM9csw6xCiPxWM3gAoFpDyIdbYRartQhvJ83+A3na22XOnEky22cuhj8Kd0sLFqsVq92e9piEECIbVfXpbVwuqawwMRKRzwqLrLTH2DAYtGFWqcx1bZaiWHeAcAJgl+qcECJPlVVVsWbREgBKukkyJ8xhsVpjni8H0pqkyysoVE+v19t5nzl92xCzJ1EKIYQZbMXF2IodrFm4GIDSyvRPgxEiHIs2Zy5WMmeuiyvUk7kYhln1YySZE0Lko7LqSgBWL1gEQEmFVOaEOSzWeIdZ201/75ZkLo30CZFeT+cZvkcbijU7uxdCCDOUVql2JKsXLNR+rqTIYeeyD15j+DZjTIxM5Bs1zBrHAgjZm7Vr0xMzTwxz5vTxeX2DXyGE6OocZaWM3mMXwN9bbtW8hXja26noUUPNwAH0GDSAQ668yMQoRb6xFBXFOczabnohRpK5NCrUNt6NJcOXypwQIt8cds2lnHDPrQzZYlNjmLVh7VrqV62hsk8vihxqdb+0KRGZZLFajXnssfBkwZw5KQOlkdFFOo7KnNl/EEIIkU72khJGbLc1f331HRvvsiMAYw7Y11j40Ly+jvUrVzJm/D6Ud69W95HdcUQGWaxxLoCQHSC6Nj0xiyWZ88gCCCFEHth0z1054Z5b2f2U47AVOwCoGdgfR0UZXq+X1hYnaI33R263DaCGY4XIFEuM23DqpDWJeTKyA4Q/meu8NYlRmTN5EqUQQqRTRU0NAHv99xQAGteuo7SqkuKyMtxNzfh8Pnxh2jlV9+uT0ThF/rIUFeFpizOZkwUQpsjIDhCF8QyzeqQyJ4To+sqqq9T2R9qH3fm//E5pVSX20lKcTU0AvHrNzR3ut8sJR2c0TpG/4h5mbfdgscgwa5dl9JmLpTWJzJkTQuSBsu5VrFu2gunvfcyahYtZs3AxpZXdKK4ow9XUDMC6ZSuY9sa7ALiam1k5b4Gx2lWIdCuMM5nLhr1ZpQyURsYwqzQNFkIIQFXmmtat59VrbqbIbmebQw/AYrVS1ac3rsYm47gWbeTE2dBIS129bO8Vg+KKctwtLRSXldFcFzzyZLXZsNptQc+xCM9aVBTXatZsmDMnmUMaFWqJWSx95qQyJ4TIB2XVVaxdsgyvx4O7pYWm9esB6D6gH/On/24c11zXAEB7axstDQ1U9eltRrg5Yfg2Yzj2zhsprao0rps4elzQMSc/cCcjxm3d4XrRUaHVEtecOU8WJHMyzJpGljhWsxpz5qRpsBCiC9Mrc7rmdXUAOEpLcTX5q0bu5hYA1ixcTEtdg+zVGkFxRQVnPHF/UCIHGCuFdSPGbQ1AzaABmQotZ6kdIGRvVqGJZ5i1qzUNrurbm0kzpjJw9CizQxFCZJHSbt2ChgDr19Qal51hhgDn/DSdlvoGijO4V2tJtwoufO1Z9jrr1Iw9ZqK69VSrg797/lXuO/oU/pk8FYCKHjVBx+l7jQ7fWrZG64zaASL27by8Ho/phRhJ5tLIWM0aZpl9KGM7ry4yZ27Y1lsBsMNRh5sciRAiW1htNixFVqPqBqrypk8z0RdAAPz0zge8dt2tTH7xdVrqG7CXFGO12TIS55b77UW/jUawzcHjM/J4yXCUlQHwz/c/sPjPmXz7zEsAdOvZI+g4fQ5YRc/gJE90ZC0qor21Nebjs2HOnCRzaZRI02Cz/yBSpc3lBtTQiRBCANhLigFwt/iTOU9bGwXayv/A4VdPWxs/vvkeXo+HZm0xRKYWQRiPU5CRh0uKo0ztjuFqVolw/eo1AHTr5U/m7CUlxpZoxeVlGY4w91htRUYlMxae9nYKCwspKDDvD0aSuTQyWpPEMPbe1SpzxeXlADjkhUMIodG35WoNSOYAlv07G4BfPvgk7P1a6tViiEwlc/qOE+U13bEUFWXkMROlf2B2a1XN+lVaMhdQmQtM7PTXZhGZJd7VrFlQjJFkLo301awxVeb0OXNdZAcI/UVXtuER4fQdOZxrvniPyt69zA5FZJCtRK8iBSdzT519MXcdegzN6+vC3k9P/kIn9aeLniAVFhZS1Se7/0bt2musXplzt7TgbnFSVl1tHBO4OEIqc52z2opob42nNYn5OzjlazKX0e28YmlN4u1irUn0ZK6sShp9io623HdPuvXqIXMq84yjRK/MOYOub1hTy4rZ8yLer1WbtlHkyEwyZw/4ENqtV8+MPGai9MQzcL6hq6nJqIIGHuNuacFRIclcZ6w2W1xz5rJhAWO+JnOZ2c4rntWsXaxpcEmlVpmTT4FZp8fggWz6n11NjaGlQQ2bDdp0Y1PjEJmlJxjukMpcZ9qcLgBsxcUpjykce2mJsXAtU4+ZKEd5GV6vNyhBdje34AhI5vTnvW7lahlm7YQ+rB5XZS4L3r/zNZnLCEs8e7N20cqcvaS4yySoXcV/n36I4+++xdQ3qRKtzYTVnpnViSI72LQFEK6W+JK5VqdKVDI5zNpYuzajj5koR2kp7uYWfD6fcZ2rqTmouqhPd6lbsVKGWTthtalkLp45c+2trbhbWqQy11XFtZq1izUNLgnoCSXVuexSUdMdgEGbbRLzffqPGsl+F/w3ZYl5idYAtshuT8n5RG5wRFgA0ZlWl1aZc2Tm78VRVkrT2vUZfcxEOcpKcTc3B13nam6muMz/uquvZJXKXOesemUujmRu2hvvcsU2uwetxs40SebSKJ5krqtV5oor/C8Y8kkwu+grAwdvPjrm++xw1OHsdtKx7H7KcSmJQa/cZnvVQ6SWvgAi7mHWTM+ZKy2hYa2qzFmz/AOHvbQkaL4cqOc3bGVu1WocZaVd5n0mHSxaL8N45sxlg65RBspShfEMs3pSO+Ze0bMHnra2iKvDihx24wUyHewlJbTUN1DSrUI+CWYRi9VqVEpDO8RHo1fQ+o/aMCVx6HMqM/XmLCKz2mzsdOyRVPbuhc/rZfa0n5n59fdpeSy9QuQOWQDRGf8wa2amBqjK3Dr1mFn+N9qtVw+aQl7nXU3NQT0+7aUluJqbjQ9yjrJS47IIpg+zxjNnLhtIMpdGhYWxJ3MAnrb2qJ+YuvXqwZb77YWrsZlpb7wTNEeiuKKcbQ4eT6HVSt+Rw9hin//g9Xr54dW3jL5DurLqSnY+7v948uyL+fvbyQn8Zp1zlJWyfsVKlczJ6qmsUd2/r9H/MJ69Lst7dDfunwql2krybH+jzFVVfXuzxT7/obOutwUFBWx7+IFU9+1jXLfFvntyzY57pyUue0kxnrb2uKse+gfPTA152ktKaNSSuaIsrh5bbTb6bzSS7194Leh6d3NzUFsoR2kp7qYWY7u04vJySeYi0IdZ45kzlw0kmUujeFazgra/W5TK3LgjDuY/p50IwNK//2XJzH+M27Y99AD2v/BsdR6vlymvvEl5TXd2+L/DIp6v97AN0pbM2UtKqFu5mn4bjsAhlbms0XvYBoB6c4ynAWu3HqrpaHW/Pp0cGRv9sYuyfD5SrjrkiosYtfP2MR3buHYdr117C/Wr17DDUYez0Y7b0a1Xjw4fAlPBVlKM2xnfECuAz+ejzeXOSGJV5LBjsVppqW+gva0tqz9w9B+1IVabjQW//xl0vaupOag1ib20BHdLC67GRgD5gB1FIqtZs4Ekc2mkD7PG0mdOHdcetelg4KKCHkMGBiVzgzcfzZpFS7jz4KPB5zP2OgzXvbygoIBbpn2Ztoa++v6LdStXATJnLpv0HTEMr8fD/F9/p7x7ded30FT0qMHT1o69pISy6qqkJ/rqbzQWqxWL1Wr8vYrklVVXMWrn7fn8saf5/JGnOz3e6/Hg09pwtLncbLTjdvQYNDAtyZy9uJhWrc1IvFpdrowkVvpQbqvTRZvTldUfOCp7qx54tYuWBF3vam7GYrUa02nsZaW4mpqDKnMiPH3/3/a23JozJwsg0sgSxwIIUBW8aJU5R1kpdStX4fV46DFwQNBtAzfdhIW/z8DT1hb0xuhpa+vw1d7aSnNdXVzDbPEI7GkEUFIhLxzZos+IYdQuXkr96jXGitLOOMrLsBU7WPTnX0Dw1kCJstpsxrypbB7GykVl1apR9/JZc8P+/w/90hM5wBha1M+RakXFDqNnXLxanc6MzJnTF+W0Op0ZSyATFalvn74gQp835yhRc+acWmVOOgxE5m9NklsfMCWZS6N4VrOCtllvlDlzjrIymtbVsX7FSnoM8idzlqIiKmq6s2bR4phja1pfF7TFSyrpLzCNa9fi9Xqxl8qWXtmisndP1i5dRktdQ1ClNxq9lcnKeQsAKEly55RCq0UbxlJNu7P5zTIXGd3+41wxChgLptKVzNkcdqPNSLzaXO6MVMmCKnMud1avuNZfa0P79umtSvQVrfYy1YvO2SCVuc5Yc3Q1qyRzaRRvMudt93SSzJXiam5m7dLlVAXMXdKHMUOXp0fTvD6NlTl9/8WmZtpcrqx+Mcw3Jd260VxXT3NdPbZiR0xtF8q04djV8xcCwW1nElFkU4+pT8CWFa2pZVRr4ng90LXUN+D1eCjrnqZkLplhVmdmh1ndLS20ulxZ/fcZaXs0V5NK7vTE3l5Sog2zanPmpDIXkd7rNdfmzEkyl0bxtCYBNWcuWtNgR2kprqYmnA2NOAIbQobZm68zzXX1aavM6XPx3M3NuFsyMzQiYlNa2Y2Wugaa6+oAqKjpfN6cXqVZvWARQFwLJ8LRd33QkzlbcfbOScpFoRuvx8Pn89G0vi59w6wOB20JV+ZcKR2SH7LlZmy8647Gh0+df5hVzZnL5qbB9tJS3C3ODu8x+r+9/lrsKCtVyal2bLIfyLoya1FuVuZkAUQaGa1JYl3N2lllrrwU19xmPG3tQYsXisv1ZK4p5tjSWpnTS//NLdo8l+z9ZJtPLFYrjrJSmuvrWTrzXwCGbLk565atiHo/faGEkczFODwbid6zTipz6eFIsDGvrmndesrTNszqMD5IxKvV6Qz6EJuMqj69OfvZRwBY9OdM7j/2NGPuoD2g2tXqcmHN6mROrVINpVdl9fcJvbGwz+fD1dQslbkoEtnOKxvka2VuPPBYtyTn/nQm3spcZ61J9D34XKE9hLQXOFdj7Mmc3tA3HQLfTFqdLuwliVXmCgoLpaqXQvq/d/P6OpbPmkPj2nWMGDe20/uVd6/G6/FQt2p13C1NwulQmZNkLqWSqcyBSubKqmNf6RwPWxILIJxNzXFN3A+tuAXSm1bP/ekXBm26Md0H9AuKEVTy2OZyZ/Xfp6O0JGzSro/S2EtLsdpsWIuKjOOcjY2yACIK/2pWSeZywfvAafXaBOx0KbRY8Hq9Qc19o/G0t1MYJZmzl5XibGzC1diEo7SUAq35q5HMxTHM6mpsotBiifqCl6jAFVatCQ6zFhQUcPZzj3DxOy+mOry8pQ+rt9Q34PP5WDVvAVV9ewcds8GYLTq80Jd1r6K5rh6f16s+BCQ7Z06rzDXXqf9/UplLrUgrHGPVUt+QtmG4omJHwnPmXI1NMbdT2vrg8dzy45cMHD0q7O36a5K+qMce8BoVuAAi2+fM2bUP+KECh1n9fw/qOmdDE8Xl5YwYt7UkdWHInDnRQaHFEnNVDqDN7aZIq1qEstrt2qerZuM/qv6fVB9mdcYxzJrOibDG/ostLQm3E+g7cjiDNxtNdd8+9Bo6JNUh5iW9FUmLlkQ5G5uCVrX12mAwZz39EAdecl7Q/cqrq4yWFS0NDRQnWZnT/8adxpy57H2zzEWO0lJana64XnsCuUO2gkolm8OR8GpWZ2NTzMOsG2y1GQDjJ54TMQ7A6JdoKwlM5nKnMhdpmDWwNYn+b+nSK3MNjfQcPJDTH7uPKz56I3PB5gi9MufJsTlzksylkcViiXm+HEC7u9X4QwrlKFMJkqrMqf+oxdoLWyLDrE79P3sakjl9WLW1xamSuQSGWbv16mlcHr7NmJTFlirpqGimmz5HstlI5hqDqmxjD9ofgKrewdW6su7Vxj6VLQ0NSc+1NCpzRmuS7J2TlIsivcHHytnUhKM8TclcceILIFxNTdhLiqM2Vvc/jnrN2WCrzakZ2D9sHODvq2eLUJlrc2V302B7SfhhVr2fqKOspGNlrrGRHoMHAuo1IV3TbXKVvp2XDLMKQ6E1gcpchBcOPWELqszpK5X01iRxzJFxpbEyZy8ppr21FU97u7aaNf5PtuUBqyx7bTA4hdElr+/I4dzy45dse9iBZocSF/15XLt0GaA+oet/O72GDmHcEQcBHVerlnevNt70mtauj2vniHCsebIAYtBmmzBy+20ZOmYLIwEpr+nOmAP2Nb76jBgGqAn5W+zzn5QkDg6t23+i3E3N2EtKjGkcqVJosahm0YkOs2ojD8UxVOcqe/U0dqAZssWmHW7XE7ZmrTIXOK/XVuLA6/HQ3tqqmgZnceXYXlpiJGmh1JZepQHdBfQ5c8Ef+lPRBLwr8feZy61kTlazppGaMxdfMhepJYBRKm9qMZZMF+vJnL48PY4qoLNRn1ORnmFWvbt/q9OV0DBrRY8aAJbPmhPUUy8b6PvdDth4I6a98a7J0cSu34YjWLNoSdCLuqO0lEKLhUveeck4rsfggRQUFhqr+8qqq43hqLpVq9lwh22TikMfZtWHe7N5GCsRRQ474yeew/YTDjWumz3tZ1bOnc8mu+0UtKl949p1fPrQExxyxUQKLRZeu/YWfnzr/aQe3xFhHlWsnAErIZ0NjUnFEkivyCa8AEJ/zSovN6rLkVT27sXsaT+z6X92pe+GI+Ddj4Ju11+TjGHWkMqcPq9PNSrO3r9Pe2lJh4bBOn2hXGDfT/BPsdF169WTFbPnpTfQHKLPmZPVrMJQmMAwa1GEJq76pytXU5PxCVWvzA0cPYp1y5bHFZt+jnQNs+rDPK1OZ0KrWcu7V9O8vo41i5YEvfllA33OWKJzkszSb6MRLPt3tvGz/kYdWJ19787/YSt2sOcZJwFqOMpeUmxU5hpWrcFeUoKjvAxHWSkn3X8n57zwWEyrYnVGaxLt8bvSdl6HXXspF7/9IttPOJR5v/zGX19/B8CIbcey0zFH4mlt47EzLuDmvQ/hpStuoLx7NYddfYmRnFSl4G/dXlqS8EpWCGhrkeJ5c8ZctESHWY3RhOhxFVotlNdUs37FSlbMnku/jUZ0OKZI623oH2b1/w2q/WP9H0YLCwsjTn8xm72kBHdT+GTO3dSCo6zMX5lrCV+ZqwyY0iJUZS7XhlhBKnNplcgCCGuEBRCBK1b9lbkyKnv1ZIOtNufDex+KK7a0LoAoLjY6krtbnAl9sq3oUUND7VrWLVvBqJ22T3WISXFoc1CiJcLH3nkjpVWVPHJK+AnYmVDRsweNa2rx+XxY7Xa69+/HzwEVCj2Z0+cnfnDPg3z73Mv0Hr4Be5x+In9+8TX2YvW76nPm6lap/Xa79exB35HD2XiXHQCYcNPV3LD7AYDaIcLT1mZUN2zFDixFRcbj6X/jrU4nbW53l5ozt/VB+7N2yTJevfpmfnrnA0AlF/ucfRp/ff09i/74yzi2buVqBm+2CW1uNx/c8yBXfvJWSoa8HKWlxr9TIpzGB71SiN6CMC5FAc14E+GvGEZ/zeq34UgKLRZWzZ1PVZ/eDB27RYdjjMqctn1Z4AfOkm4VxhQAfX5fkcOedU1kCwoL1QfnCIm7u6VFfRgL6PsJ/qR45bwF9Bw8MGh+slB95rLt3zoWksylUdzJnMsdU2WuzeUG1JtmZR81WX3ZP7PD3i8SVxqHWe1Bw6xOCgsLKXLYjbhjUd69msbataxfvoIihz1o3pbZ9GGLaInw5nvvkalwwqru14crP3mLTx58nM8fecqYBL5moX//Xv0Teu9harVw/eo1AHz+6NNsfdD+/Pfph4wGwY3acFS9liRU9urJ4M1HG+fS36A3GLMFZz39EKsXLOL2AybQb6MRnPLQ3VTUdGfi6HFAwHCb2531w1jxsJeWYLFamfbGu0YiB6oZ+If3PtzheK/Hw5s33Wn8XL9qDd16Jp/MRZtHFQv9vimvzGn/zgkvgND+XjfaaTscZWVG9aw6ZBpG35HDAZg3/Tf6j9ow7BxPe7GD9tZWowoZOMwa+FrTaiRzjpQOOaeCnoBGGmZtc7lwlJX5F3Rox+lD8GuXLKOkopxu2pQWoVhtNjw5Nl8OJJlLq0KLBU8cw6xtrdGGWf3zHvREqaRbhdEPqiXOF5r21lba3G6KK9IzzNoaMGdOXVcSVzJX0q2C9StWGglGRc+a7Enm9MpchEQ4cOJ4Za+eSVVJErXl/nsDsNOxR/LVE89x6JUXAVC7eIlxjLNBVR8OuuxCQCUTAOuXrcDV1By008PaJcu0+y/F097OmAP3ZeDoUSz49Q/q19SyyW470WPwQM56WlWIew4ZxKFXXcx2Rx5inOPAS8/n3dvvNSpz7W5tgnkXSeb0hSMt2vMar/rVa+iprTJMhhpmTWLOXJo+6CU7zKq/Fuxy/FHscvxRUY9dMWcejWvX0bh2HUV2e4dFIbbiYlpdLnw+X4ctB8u6V7N05j+AP/HMxuqxnmxHmh/Z6nJT3qPGWFSjP+8lWrP89StW0nPIoC41zSEVLFZrzi1+AJkzl1aWeFezRq3M+VesetracLe0aMmcut6ZwBuIq6k5TQsginE7tTlz2qfBeFeE6UMd9atrAajokT0rrvz9/cI/d1V9ehmX+2hVgkwbsa2aw1ZSUcHFb7/IBlttDsCaRf5kbvXCxdQuXmq0GtHfLH0+Hyvm+CdEf/bwk0ZFr3HtOj575Cm23HdPagb0Z9qb7zHtjXexFhVx5pMPBMUQmMgB7HTMkdiKHf7KnMtNmzO1+22ayUjm6hNL5hpWp6Yy5ygtNSpOiTDm08bYoDdWegU20WHW5vV1vHXzXcyb/ht/ffUtALN++JGb9jyY63cbz/W7jefBE//Lkpn/8Np1twLQuE59ACwLqc4FLnIIbZ9U3r3aqES3Ot1BsWeTzppDt2kflGwOB562dmP+9p+ff836FSv5/oVXaW+N3A4rX8mcOdFBInPmLEXWsPczGoFq/yH17bj0PmGJDAE4GxqNFbGpFNj7yG3Mm4pvEURxRTktDQ00rtGTue6pDTIJ9k7mzAX2tTIr7j7DhzL1jXdwNTYzcPQo6levYfmsuUEv/M3r67h1v8MZsMkotjvyYNYt9S+imfLKm7S53Xx4z4Ms/XtW0Lm/fPxZyqur6NarJ39+/jWtTicf3vsQG+4wjhWz51G/eg1v3HA7gzcfzW4nH4u7uYUlf/3D+IvOobSqkiK7Ha/Xi6e9XavMZV/VIxF6UpxoMte0vo7iivK4XzcCFVotFDnsEYfeYuGKcW5avIxh1gSTOVB/l1NeeTPi7Q1rarl3wknGz/pcz/Lu1dQGfJApctgDRg/87ZOsWhWvaa1K5ozKXBZ+4OgsmXM7nRQ57GrXjYBq6PoVK7lpz4MBfbVu1/j/lypWW1HOrWQFSebSKt4X5Xa3mnRptdmM+SA6R3lZ0Ao1ta1SBcXaUFjoCqVYuJqacaRh2x5bSXHQnDmI78VQn3vkrG+kYe1aAGNeR+/hQ7EWWaldvBRXUzM1A/tjKSpi1bwF9Bg8EHtJMetXrKK0shvrV6yMa2g35vg6mTNXErDnrxnNhSt69qCkWwUrZs9jysudd3hf8tffvPrX30HX/fbRZ/z20Wdhj/d5vbx9691B13315PN89eTzQdfN/+V35v/yOwAbaYtYyqqrsdpsxr9LJubMWW02agYNYOWc9LZf0IelWzppmxGJfz/NkoTnZ9lLtKG3lFTmUvu3q1e/Eh1mTYQ+NWPgJqNY9s9seg4ZiM/rw1FWavwNtjpdxoIen88bdL9WY5g1G5O54FWqodqcbmzFxdgckRs1t7W6KZLKXBBZACE6SKRpMGifGkOTudKSoB0e9MpccUU5rqbmhD7Ju5qaYmrAGa+gOXPa93iSmsC5R952D41r1zF489EceeOVbK3tUlC3chXT3/+EPU49HtC3pgr+XdYuXc5zE6/oUFlKhtVux2K10up0YS8pCZuwB/WsCmnLUt2/L72GDGbWDz+mrbVJryGDAFg5d35azp8IvZ9XWXVV0MrATMyZO+Dic9l+wqFMf+9jZn7zPaCGklfOnU9BQQGFVisWqwWbw0F5TXyVVE97O7Om/Eh7a6vRsibRylxgS5BEkzk9AUumz1yby42nvT0NlTlt7lbIa1s61a1cg9fj4YCLz+WAi88Num3Oj9MBVaEevs0YJr7xXMD9VgKBq1mzMJkrif5vrf/fKnLYIybQ7e5Wo8InFEtRUU7OmZNkLo2+ePSZuOYDtevJXJh5c/ay0qBPYC31DfQaOoSSivIOTSBj5WxsoiIFc3QCFRQUaKtZ/X3mIL7KnJ7M6W9oqxcuYuT2qlHtT29/wLzpv3HY1Zewx6nHM2vKNJrW17HV/nsz85vJTH/vIw67+hIoKKB7/76c8tDdXLfLfin7/fS2JPWrVqtKYGlph/mKtmL/v19oj70T77udviOG8fR5l/LXV9+lLK6gGLWh85b6xCpE6dCkzV0qr66iyGYzPri0OV1BCy3SQe+jNeaAfRhzwD4pP7/e6Nf/ISSx/4+hey4nwm7sw5l4ZQ60qn2K2xYVGatZU18tj8TZ0MD/jj6VjXbajj1OO4EP7n6Q0qpKdj3haL5+6gUAXr7iBvpuOIIR48Yy7vCDeOe2e5kzbXpQrNk4FcBoORKhCtvmcmEpslJcVhZxnmK0RvX5ylpkk2FWEWyJtiIqVvobXLheczaHI+g/ZEuDvzKX6Kd4V2PqK3P+ZfDBq1njmTNnDFdpFY4n/3sRVX1742lvNybi//P9D5RVV7F6wSJ8Xi+fP/o0tYuW4PP5mPXDj7S2ODn4iolsP+FQNaE1RWVz/dNwQ+1alcwVO8Ikc+p3dbc4O1Qk9Tf8PiOGpS2Zs+mf2FsyVwHpTLPWz6usu1aZcwdU5tI8H8leVsq86b/x2nW3GvsuDthkIybceFXQcbN++JH37roffL6YzltQWMBFb75gLFoorarE3dKS8BuBXmFJpiVIZyscY+Vqak5D02D/nqeZtGTmPyyZ+Q/fPf+Kkfh8/dTzxuW6VaupW7Wav7+dzCcPPBaUHBmtSbJwzpz+wTLSMKv+PJdWV0acpxitUX2+UsOskszlivHA+G7dktswPNX0T4Hh/nMVORxBLQ/WLV1BRU13eg/dIOHWF87GppR/+taHFd1G0+CWoOtjETpc5W5p6TBk2Ly+zkgQILh/mv5Gpu92UFZVmbL2IPqn4cZaNZcv3O9lKy7G6/XSXFfXIYm1WNV/ud5Dh0R9nILCQvY993Smvfk+a5csjS/GkuCEOhu0Ol24W1ooq65Sc+bcgXPm0vtm4igtpX7V6qAJ8Cvnzmd6QANlX4wJXKiW+gZKtcqG6o2YePuc0D2XE+FvEJtsZa5JNQ1OIb26lWifuWQFJmmRqlmh10d7TTabv8NB5GFWgNLKSmOf2lBtblnNGspiK0r6/48Z8rU1yfvAafVZNAwFqs8cEPbNzVbsCPp0NVPbJqhmYP+EK3POpibsJcXGJuCpoCcSRmuSBCpzZVWVAJ3uv9gZfSVbaFuCZETb01Gnz3l0N7d0qDrpfQF7dZLM1Qzsz24nH8cVH70ed4xGMpfBuUmx0Od5FjnsRjKnKnPxb/cWD0dZadgXZ5/PZ3wlqnl9nbGKNdnG1oELIBKVqn97V3PqK3NFxQ7aXO6knu9MczY04mlvp6JndjXWLbRY2ObQ8axesMiYnhNKf78oreoWcWi7zS2rWUNZi3JzNWu+JnNZyfgUGOaTkq04eJh11fyFRrKT+DCrul8qX7T1YcXQBRDhhtJ6DR3C2c8+wnkvP0mfEcOM68u7V6vKVkDlLRF6r6hwHeATpc+H088dqTLX5nLTGjLMarXbjWG+yt69OtwvUGDM8c5rtJWU4PV6Mzo3KRZ6c1arzeYfZm1pSWjv3niENoxNpab1dZRVBVbm1iZ8rlQMsxq93FqSq365GlPfg1Jv1JtLPO3trF2yjJ6DB5kdSpCKmu5079+P7154NeIxRpPgioqoCyCkMhdMTcuRZE4kIXA1a6gih6PDf0g92Um047ze6b24PHXtSUKHWT3t7bS3tYVdzXroVRfTZ8QwBm4yig223My4vqx7NS119Umv9vRX5lI3wVcfbmleVweoTblDqfmNTtxOZ1Ciovf0q1u5iuLyMixaYhdO4KTkgZuMiitGe4naKDzbKiCtLao5a5HdX5lzNjZhtdnS+obiKCtNanuraJrr6iitrgSgvKZ7cpU5fRutJIZZQ7v9JxxLU1PKmwZHa5GRzVYvWEivDQabHUYQ/XU22gf5wA//kZ739lY3RRH2A89XubqaVZK5LKJXK8LNzwj3QqhXGxKtzOmVgHjms3XGGGYNmJQb2JQzUJ8RQ/ntk8+B4AalqdqHtSkNlTm98tG0PlplTlVRW1tagm7X5yfWLlZz4Mq0JCCcwJgHbLJRXDHaAlrDZBN94+8iu38BhN4fMdo+t8mwFBVhtdmMDy6p1rxODbNarFZKK7sl9Xfrr8wlPsxqNOaNMPQWK7U7TPLJ3N5nn8ZRt14L6NMPcjGZW0TNoAFRP3xlWuAiq0gC3y8irmZ1ubHabEFbEOY76TMnkuZfzRquMtexV5DXqypXiSZz+ryaVDa2tYUMs+qXw82LcpSW0rRuvdojtjw4mdM7sCfDmHSfymFW7c1Sr4qGrcxpWwWFrmbVf8c1i5cwbOutKKuuMvZDDVWmDTU31q6NexcJe3FxVq1k1bW2OOnWqydWu38BhN470VFelpa9d/WEJF2VOX2YVU++k/kdfF4v7pYWo71IIvTKXDK7LEDqWpNsud+edO/fj7+/mdxhRX6umP/LH+x28nFstd9e7HrSMfQcMsjYBmvhHzOoX7WGzfbcjTaXm4LCAlxNzTw78UrcTc2c+sg9lHevpr21lZb6Bp48+6KU9L2MZW5kcGUuwpy5Vr1RfVHWTcswi9Vmw9PebnYYcZN0PItEWjllsVqxWK20OYP/s/k8qlt5on3mos1nS1T4ypyrw7yoIoedQosFd1NzhzeOsu5Vxp6KyWpcuy61lTntuTIWQJR0fO6KirUFEC3Bez7q1cfaRVplriry8G9592qa19fRUt8Q99ylbK3MtWrDzmqYVavMNaW3Mmes+EvTnLl1y1dgKbLSe8RQIPHdH3Tu5hbsSey8YHM48LS3J/1m5G5uwVpUlFQ1qqRbBd3798Pr9XLsXTex8a47Ggujcsmcn37B3eLkyBuvpKfWkHv21J8BGLzZaDbbczcAVsyZx7fPvYK7xclZTz/Eha8/a7z2fP+iWsh0wCXnpSSmcB+aQ+k7eUDkYXf/rkOyCEJnKbJKZU4kpz3CatZI2+B4ta1nEm1S6jYa+qZ+mDXwRcbZ0NjhzdphNDdtwdUYPD8nVcOsAE1r16e0KaYxZ06rzIV77mzFxTSuWdthAYR/mFW1yIgWV1l1FU3r1ic03GUvLonYe8pMenJbUFjor8w16FtHpSuZS02rjkj0ljiDRm8MJF4l1yXb363IYU9JhcXdou9GUZLwqvL+o0YC8No1N9Otdy8KCwuNJCiXtLvdvHDJNfQfNZI1CxfT3trKX19/z+Z774HFasVW7MDd4uSvr77F3dzCT2+/z5b77gkFBayavxBnQwOzp/6Ms7GRfc89IyWvb3btQ2W0/+eBWzxG+sAfOE/bmdjU6y4nVxdASDKXRSKtZjVWqIWU1PXKnKctsU/hehk+lasJbcX6m2fAhu719R2qY/aA4a/Afndl3auwl5SwftmKlMTTtG4d3Qf07/zAGOm9sloaGvF6vWHnzNmLi1nrdNKqbXStKw6ZM1caZc5ccXkZLQ0NtLY4Ka2KfFzYGEuKE14Uk05qQUgJPq/XP2dOr8wF7BG8wVabc9oj93LPkSewav7CpB7T+NCQwN7FsVij9a4bqCdzCVbJda7m5qRakxQ5HEnPlwNwNan/v/Ykkjm9ivXv5GlpGULPpL+/nczf304Oui7S3sW1i5fy2SNPhTnHFPY99ww23HEcP7/zYVLxGJW5KMPWgX+LLXXhXw/0Crnsz6oUFBRgLcrNOXMyzJpFjDlzoZW5CM021y5dDiTeU6pVb+ib4sqcp609qE+P3l8skMPYiqZF7RGrJTo9Bg4A1LyyVGhMdWVO75Xl9WoLOyL0mXO5aHO7KSwsNFZq6rttrF+xkva2NsqjxGUvK8XVqIag492lw56tw6wtaiGM2pvVv5oVgldwHnvnjRQ57PTdcETSj6mfN12VuYbVa3C3tDBwtFpx7GxILml0N7UkVZlL1bw0t7G1WOKx1AwcgKu5OecTuVRZOWcezsYmBmwc34KmcOwlnS+A8Lb7uwFE2i9YT1rC7TqUj/RpBYkWSMwklbks4vV48LS3d5gz56/MBX/ifue2u5n78y8s+uOvhB7P39A3dXPmHGWlHZLLlvqGDvtv2kuDK3N6L7WaQSqZC+zWn4zGtesoraqkoLAQn9eb9PlsAZUPPTnpcIy2AEJ/foscDtpbW3GUl+H1eHA3t9C0bj2lUebMFZeVsWbBItwtzrgnotu01iTZptXppNBiodBiMarQLmM1q78yV9FDNWjVd8tIhn/OXPqGnRtr11EzUFV/E53yoHO3NFPdr2/C91fDrClI5lqSX1lbM2iAMT9UqCbVy2fNod9GyX9I8W+bGNvfdaRkLpt3uDCD1aaSOanMiaS1uTv2/dFXTIa+SLc6Xfz6wacJP5Y+By+Vw6w9Bg+kdumyoOta6hsoriin0OLfaSKwYhJYfaoZOABPezvrlqdqmHU9hYWFlFalZuu2Irt/VbFa2NHxzU61JnEa/156o+Hi8jKjQtS8rs7Y6SIce2kJrqbmDvMJY2EvKcnK1ayBMemr6FqdTjxt4Tvsp+LvMt2rWSG4z2PgpPNEuJpakhxm7bjqPaE4mv3DrInqMWiAMT9UKMv+mU3fEcOTbgViKymmva0t5oUuLRF2O/JXYFPX0SCXlWi7uWTjNJXOSDKXZdpc7o6VOa36k+ru6WqoMLXbKfUdOZzl/84Juk7/VBg4L0p/8XA3t+BsbKSkWwWFVgt9hg9lzcLFQUMEyWjWVp2WVlam5HxFAduqtbpcHf6tCgoL1WpNp4tW/VOvVll1lJXh0vqdNa1bF3X4V+1a0ISzqYkiuz2uVYVqmDX7FkAExhQ4Sf+fyT+w87ET2P2U4ykOqOCm4g1GrwCnazUrgFP7+3Y2NiVd/U12Gy1biubMuZuSG2a1FRdT3a8vK+ctSDqWrmTV/AXYih10i3NXl1D2OKvvkSpz+v+LVDaOz2VGi6EkdnIxiyRzWaa9tbXD/IV0blDd6nSmrGlwZe9elHevZvms2UHX6y8km+y6I2c/9yhb7rdnwGrWZmZP/Zkih51xhx9M35HDWD5rTodzJ0qfvB3vIoJIbAGVjzaX2/i38d+uD4m7/JU5PZkrLzUmJTetr4u4AMJSVESR3a7NJ9RfbGMbai20WrDabFlfmQscxnjr5rsA2GT3naio8S+USUX/Q0dZKe2trWkdNtGHVpNd/AB6a5LktvMKbWGUaByQ+DBrnxFDKSwsZPm/szs/OI+sXaJGLboP6JfUeewlJXHNi41UafK3Bkrtbh+5KhX9Is0ic+ayTNjKXECCkGqpqsxV9+/Lf596EE97O/9OnhZ0m57MHXz5RDWxfeRw6letBtSbxqwp05jz43T2Ofs0iivKmTLrjaTj0TVpLURKQxZgJCpwtWCby9VhsUqRNqTqdjr9cxIDK3NNemUu8sKMoCHogAUCem+7aGLpDG+WJTP/MS4v+nOmcbl+1Rp+fOt9NtxhW8pr/A2SU/EhI537sur0v+9k25KAqpRYtV0rEklAbcUO6leHb0QdVxwt+jBrYm/yfUcMB2D5rLlJx9KV1C5RcwhrBvRj3s+/JnwevR1KrCKNdPhfX9LTGijXlHdXrz+NtZLMiSS1t7Z27DOXxmRO32IpWZvuvgtVfXrzwT0PGq03dEv//pc506ZjtRUx5dW3GHvAPhRXVPDLB58Yw21v3zKJgy+fiKXIysxvJod7iIToc0VSVZlTQ6haMud2dzivzZjf6DYqc/oweXF5GXUrVgHQtK4OR2kpG+24Hf98/0PQORwBQ4N61SfWYRB/n7/sG2Zdv3wlb9xwB8UVZayYHfwmX79qNeU13enWq6dxXTLDjcY5ykrTtpJVpydxDSkYmgmcw5RIMldkT80CCL3qk+hQd48hA3G3tLB+xcqkY+lK6laupr2tLel2SZV9esVUPXry7IsZuGnkvZ31Dzqp2O2jKyjX9vHWt2vMJZLMZZk2l7tDzx99l4H0DLO6UlIB6T18KPWr1/D1Uy90uK15fR2PnHqO8XO4/kyr5i8MOiZVmrX+SqmcM+dsrAXCV1GNVWZOp78hp3aMo6wMZ9M8ABb89gcAOx03oWMyp1fmmpqM+Vj6xNxINthqc9X7TpsQnY2VOYCpr78d9vr61WsoLCyk99DBgPqbScWcOUdpKe40rmQF/8rPVPRGNN5cS0uNxtTxSFXTYK/HE3GBTyy69+/LuhT1iuxKfF4vq+cvZMDGGyZ8joKCAnoP24Dp737U6bHh+uMF8no8uFtaUrIPbzjV/fvSa8jgDq9x2chitbLTsRNorqtP2ZztTJI5c1mmze3uOHTnSM8CCFDDfdV9+4S9bYMxW1BQUBB0Xa+hQyjTPr30Hj6UUi3J6DN8KCvnzEt5fMlqd7txt7RQUpmaYVabw2Ek1W1ud4eqpj6HrtXlChhmDVjNqg1rLPj1D377+POwz729zF+Za9Yri53Ef9YzD3PxWy8Yi0yyNZmLpE4bdq8ZNBBQVa5UfMiwl5Ua84LSRf+goP8OyTBagiT45mpzOFL2OtG4di3V/cK/NnSmul9f1oasahfK3J9+ZcgWmxn9J8MZtNkmDN9mDKCGVDfdcze69VKLJqr69sZRWsqKFL3euhrj72UZqys/fpNTHpoU91Se3sOHGqMefUcOD1oYBWpu26Z77tbh/0lFzx70GDww4nkHbDKKEePGAmqnh8GbjVaX7Xb2Pf9MiivKjV1dco1U5rJMW2urkSDp9GFWvWt+Ki349Xc23mUHhmy5GasXLKK0shuupma22n8v9r/wbL547Bl+//RLQH3qP+/FJ1i/YiUvXHIt5zz/KKsXLOL1G26nz/ChfP3MiymPLxWa6+pTV5lz2P195sKsZvVX5lz+Hk7F+py54MRi3bIVjN5jlw498BxGD74WY6/Pkm6xtVbZ4f8O0x4/t5K5xjVqiLJGmxjevL4ORwoWQBSXlVG3clXS54lmwW9/sMsJRzFryrTOD+6Eqym5VhF6U+tUmP/L74w9cD8c5WUU2WyUxbHHcff+fZn74y8piaOrmfXDNHY69kjGHX4Qc3/+VSXwPh/20hIaVtfSd8MRnPH4/wB44ZJrGL7NGLY59ACW/j2LV65We9yCmr6SCs6mprQMswb209tq/72ZPfWnmD6g2UtKOOf5R1mzcDGvXX8bZz39EMtnzeGlK24wjjn48gsZOmYLfv/kC754/Fnj+rOeeZji8jLuOfLEDm1bSrpV8N+nHgTg5StvZOT227Dlvnvy/MVXs8U+e7DJbjsD8OCJZyb1e5tFkrksE2kBRKvThc/nS/njzfrhJ/a/EM5+9pGwt+9x2gnscdoJQddV9enNOc8/Cqgte856+iHa3G6mvvpWyuNLhZa6hg4JcqKK7Haj4hb4b1VQUIDP5wto5uk0KiQ2hwN7SQmFFovRmgRg3bLlWIuK6NazR1DC4e/u3mLskBC6g0agwLYlW+63l/H4uUSvSJVVV9HqdOFqbo5YMY6Hvawk7XPm/vrqO67YdndjBWgyXEm0BCm0WLAWFaWsMjd76k+MPXA/Lnv/VaxFRUGthWKxeuGilMTR1cya8iPLZ8/loMsu6PTYY+7wJzD9R43kojefB2DeL7+x9O9ZKYnH1dgU82r5eAwbu5Vx+bBrLon7/j0GD+Sspx8CVHVO/90Dbb73Hmy+9x4drr/g1aejnvv/br7auHzsnTcal5fPnpuTQ6wgyVzWaXe7Oy6A0JrQpsPyWXN48MT/steZJzNsa/9/vpcuv54Vc+Z16EbfsGYNJd0qsNrs1K9eQ1lVJZaiItYtW56SYaZ0cDY0puzFyhZQ+Wh3uymuKOfqz9+hsncv3C0tfP6oehFpc/lbkxQ5HDi0pf+B7Sv07dh6D98gKJnTP722Op14PR5aGqIno2VaixNPe7uxa0K0DbizkZ4gl1VX0VLfoFp0pGjOXLpXswIpSeTAv+1YIsOs+geL9hRV5n7/5EsGbDyKnY49EoBXr7klYr+yUJ72duZM+zklcXQ1Pp+PJ/57IQM2HkVBAZxw720AzJ72MyO2HctnjzzFH599RZvLTZ/hQ/H5vMz98RcGbz7amHKz8Pc/UxaPs7HRWMWZSkPHbsnqBYt47bpbjWLBM+dfRiw1ifrVayit6oa1yEb9qtWUda8O2hGmva2V+dN/Y9jWY4Ka0bdqXQQidQpYu3QZ7uZm+o4cgc/npW7FKqr69sHn87J26XKacrAliS5fk7nxwPhuMQ5dZVJLQ2OHra9sxambBxPO/Om/8cwFl7PJbjux+M+ZVPfra0xYTWXPN7M4m5rooW0TlqzA1iR6U+DK3r1Y9OdMBm26Mf1GqpYMgcOsNoc9YFspf2Kx4Lc/aahdy45HHcG/3081rg9tL9JS1xB1AUSZti3YmkVL6D10iHr8HKvM6R9WCi0WY76h/sYVi52Om4DFau2wAMdRVprW3R9SzZ3Ezgt6W5xUvVZ4PR7eu/M+ahcvoXl9nTHdQiSvftUa6ld9C8B9R5+CxWJhxdz5bLr7Lvz87ofGKMzaJf7OALN++DEtsaycM5/h245N2eIZUM3TN9hqc37/5AsW/PoHDxx/Bp62NhbP+Dsl59dFW9wRTeDinGVdpBdiviZz7wPv19fXn2p2IKGa19ep3RAsFrweVe4tcqRuHkwkzoZGfn7nQ0CtLO1KXE3xb4kVjtVmo7CwMGiYVTfjy28YtOnGRmuNVqcTn8+ntmcrdhitRfQFEKAqe/989wMb7rBt0OPYAypzoPqYReuTp38KXbNwsZHMuXNszlxg2502l5tWlyuuljkHXnweoPppffvcy4D697LabDgbcymZ869mjZc+tzaVq959Ph9TXnkzZecTHS0O6Ln40zsfZPzx507/lV1POoZBm27C3J9SM8+x34bDKS4vM3rpLfj1j5ScV0Qmq1mzTLMx4d3/5p3KFWr5yNXYnJLtaopCduII3DapdpHag9JI5rRjnI1NlHbr5h9mDVlZ6Wpu7lCFsZcU0+Z2G3M3nA0NOKLEr+8ksSZgjlKqhv0yxevxGH3VVGXOaSQnsdCHlfc++zTjukzsy5pqrU4XXo8nqWHW1jR/8BNdy6I//gJIql1KqL4j1eKHRTNmdnKkSBVJ5rKMfy9R/7BakcNu7Acq4udsbMRRVpr05tahLWICK3NrtGSue/++eNrbjdvqVqyisndPY+l/YGUOVNLlKC0NagFjKykJqlS5Opk/VqpNF1izyD8ko1d1c4n+O7c6nbS2uNSE/ijtGwLpw9e2Yofx75yJfVnTIdH5gkVGZU6SORE7Z0MjDWtq6TlkcMrOWdWnF16vN+0ryYWfJHNZxthLNGACZ2BvMxG/ZNs96Iw9cgO289LVrVptvIkGbqe0fsVKKvv0Npb+O8Mkc0DQ/DC1VU9L0DHRKjX6fXP9hVMfVm5z+nfPiHWoNfD50YepHWXq3zvdq1lTzdXcnNgwa3H6mouLrm31gkX0HDIoZeer7N2LhjW1ObsyNBdJMpdljL1EAypztpJi3FKZS5heDUu2MaZR+XB2HGZ1NTYZK/30LbtAJViVvXsaq2ldTeGTucBEM3QTbVdzc9hO/HuecRI7HTsBW7EDr8dD41rVq83T1t7h2FxgVOa0YVYgpqHWgsJC7CUlRjKrLzZxRKiGZjtXU8eh91iks7m46NpWzV9Irw0GJz16oavs0yvnP1zmmnxdAJG19C18tjlkPAM23giAbr16dIlVpWbR56k5ykshiR2GihzBc5JCh7NaGhro1qtHUIuW9StWYS8pYfTuu+Bpa+9wH7fTn8w1ant72kqKg4ZZIw27bXv4QRSXl/PHZ1/S6nLhbGgKOmeu0RdttLlcxnMcW5NRdUzdqtVU9u5lVOmMbdFyrDLXWSU2EmPOnHzwE3GaPfVntp9wKEfecCUNa2qTPl/fEcNStphCxEaSuSzTtH49qxcsYvg2Y4ztXHw+X8oaROYjozKX5CIIY7WgVpFbs3gJLQ0NzJ/+m3ocbTi3LmBz8UV//oWzsYm+I4exIExvKL0y5wiszBUXhwyzNlNYWIituNioWNlLSujWU23vM/bA/Whcu47GtetwNTXz9i2Tkvo9zaL/bq1Of2UutOdiOPqQZP2qNUE/O4w5c7mV3LY0NFBeE3/fL1tx8DQAIWI185vvWfTHX2yxT8cGvInw+XzM1VayisyQZC7LeNs93H7ABLPD6FL04c9IjSRjFTrMum7pcq7efi/j9ub1avFK7WL/QoTFf87kqu3+E/GcxjBrwDCqrbiY+oDqnitgKFZPcmoG9Vf3b3Fi1yp5nrY2rhyXmhdjMwQPs+pz5mKozGmJsF4R1VcOG6tZW3KrMle/eg39R8W/srAoDa1JRH7web3875is69Ql4iDJnOjyVi1YRHtbG/1Hbcifn38d9pieQwZx2DWX8sIl1xjDDFvsuyeb7Loj65Ytp721jT3PPBmIPCfp9etvZ8orbzFPq9TFwj9nLngCf+COH3prjcCh2B7ahvSL/vyLEduO7RJv4B6tNUmb02UkzDElc1rSVr9SS+a059KYQ9aSW89N/ao1VNR0x2K1dthfcuyB+zJki8147bpbjesOv/YyahcvYf8Lzwag1SmVOSHyjSRzostrd7tZ/u8cRu++M+6WFtrcblqdLkoru9HqdNHubmW7CYfQd8QwJtx0FX98+iXFFRWMn3h22PNFGsZqWree2VN/iis2fTg1cE6craTY2P0BAodi/QmfPgy3at4ClcxpiVAuG77tWAAWz5hpzJ+zxTTMqp67eqMypxY+FDlyc9hRT0p3PflYPK2t1GsfLrr17MH+F5wFqGrzirnz6T10MNsedmDQ/btCYi+EiI8kcyIvzPzme/Y553T2PfeMqMeN3G4bRm63TcTbW52ulO7f54qwmjVwB4dwx+hDiHXaG39hilahmenTB59gt5OP5e/vfqB7f7UncGzDrNpzETJnzuaw097Whs/rTVPE6aEPF+8T0AA51K4nHRP+vitXGc2XhRD5Q5I5kRe+eOwZvnrqeQBumfolRQ47V22/FzdN+RSAK7bZHXdLCxU9e3Dtl++xbvkKbt33cJUIaA1905EUuLVFE8UBqxdtxY6g1iT+LZ6Ckzl3S4sxHzBwE+pc9e1zLxtbcelz5opi6DOnPy8NtbV4vV5j2NVqT91ek5nUWUuHN264A0uRlYMvv5D37vwf3z3/ChQU5FzSKoRIndx/BxAiRnoDyzsOPorSykqcDQ3cut/hRmIE0LB6DQ8cdzrrlq/w76KgbXqdDu6WFpwNjVT26Q2oBKTQYgmaMxeuMldcVoarqRlnYyPQNZK5QEafuRiSOWOnh8Ym3E3NRtVSbRyee0OOqxcs4omzLsLT1sbKufMZOHoU7a2tLP1nFoM23YR/vvsBn89H/arVzPxmstqUPY1/o0KI7Ne13gGEiMG6pctZt3Q5ELzyVLfgt44tRNJp7dLldB/QD/D3TAs3Zy5wkYSjXCVzejuUwi6XzKkkLJadEPx7sLao3RP0ZM5uz7n5crp/vptiXP7rq++MyzO//t64POPLbzMakxAie+X+RBshctzapcuo6R+czLWG9JmDjsOsrsYmo4eepahrJXNejwdXU3NMvQHtpSW0ud142ttxNTUbOz+obfByM5kTQoh4SDInhMnWLllKVb8+FFosxoT/wO3bWp0uvB5PcGWurAxXU5Oxu0VXG2YFcDY2UlzR+RZsjtJSo3rpChlmla2thBD5QJI5IUy26M+/sRYVMWK7rY3tqwIrc6A1Bw6cM1dehrOp2djrtatV5gCcDY0UV8RWmdO37ArcpD6Xh1mFECIekswJYbJ/vptC49p1bHPweGMniMA5c6CGWh1BlTl9mFUlMbOn/py5gDPE2dgU0zCro7QUt7Zll6uxKWjOXLsMswoh8kDX+zgvRI7xtLfzywefsONRRzBi3NYAQa1JQK1oDepFV1qKq6mZ9tZWbt3/CKPfXFfibGigWptLGI29rBRXS0BlTk/mih00rl2b1hiFECIbSGVOiCww5ZU3WTl3vn9lpjO0MtdiLIAorarEXlJsbDtWu2gJ7V1wOFFV5jqfM2cvLQmozPkXQBTZ7bRKZU4IkQckmRMiC6xbupy7jzje+Dm0MudubjYWQPQdORyA5bPnZi5AE7TEOGdOLYDwV+ZsxQ4KrRatz5wkc0KIrk+SOSGykDtkAYQ+zNp/1EjGjN8HgOWz5pgRWsa4GhpxlJay1fh9KLRYGL7tWHY54Wh2OnYCxRUVAFT27kWPQQOMxsr6jhq7HH80lb16ygIIIURekDlzQmSRD+99mP3OP9NomqtzN7dQXF7GBa8+A8C6ZStoXl+X+QAzSJ8HeNQt19CtZw17nHai0YevrLqKj+57mPETzwZg5dz5ANSvVvuz7nf+mUDXbNkihBCh5JVOiCzy1ZPP8dWTz3W43t3cTGXvXsbPC377I5NhmWLmN/7dDvY842SKHHYeOeUcdjnhaLb/v0MZud029B6+AVPfeIfJL70OwL+TpwWdo2Zg/4zGLIQQZpBkTogc8NvHX1DZuyftbe20tjj5+IHHzA4p7Zrr6nn71kn0H7UhJRUVrF+xkrk//UKry8VuJx1DQUEh65Yt5+unXjTu0+p08tp1t+JubqH38A3449OvTPwNhBAiMwp8ebxB8/Tp031jx441OwwhhBBCiE75fL5fgDGh18sCCCGEEEKIHCbJnBBCCCFEDpNkTgghhBAih+XrAojxwPhu3bqZHYcQQgghRFLytTL3PnBafX292XEIIYQQQiQlX5M5IYQQQoguIa9bkwBrgEVpfowaoDbNj5HN5PeX319+//yUz787yO8vv396fv9BQI/QK/M9mcuE6YTpCZNH5PeX319+//yUz787yO8vv38Gf38ZZhVCCCGEyGGSzAkhhBBC5DBJ5tKv62+iGZ38/vlNfv/8lc+/O8jvL79/BsmcOSGEEEKIHCaVOSGEEEKIHCbJnBBCCCFEDpNkTgghhBAih0kyJ4QQQgiRwySZE0IIIYTIYZLMCSGEEELkMEnmhBBCCCFymCRzQgghhBA5TJI5IYQQQogcJsmcEEIIIUQOk2ROCCGEECKHSTInhBBCCJHDJJkTQgghhMhhkswJIYQQQuQwSeaEEEIIIXKYJHNCCCGEEDlMkjkhhBBCiBwmyZwQQgghRA6TZE4IIYQQIodJMieEEEIIkcMkmRNCCCGEyGGSzAkhhBBC5DBJ5oQQQgghcpgkc0KIVHgG8IX5agb+Ae4DBkW5/8KA+1wa52OfGHDfhVGO2x54CpgNtADtQD0wE3gcKInjMU8g/O8b+iWEEGlnNTsAIUSX0gKs0C5bgX7AhtrXCcBBwNednOMsYBIq2YrFBZ3cbgMeQSV9ujVAK9ADGKV9Xa3FHw8fMD/O+wghREpJZU4IkUrfA8O0r8Goatf/AWuBCuB1oFuU+7uBAcAhMT7ef4DRqApgJHejEjk3cBlQDfQE+gNlwA7Ai4A3xscM1Ir/9w33JYQQaSfJnBAindqAV4AztZ+7A4dHOf5H7fv5MZ7/Qu37LxFurwJO0y5fD9wOrA+JbwpwDLA6xscUQoisIsmcECIT3sE/bLpplONe076PA8Z2cs5RwF6oodEvIxwzHCjSLv/RaZT5Q6bYCNGFSDInhMiENqBWu2yLctxM/InZ+Z2c8wKgAHieyHPdagMu79rJ+dLtOtQcu3+1n3cGPkLF6AR+A07q5BzjUEPVK1HDxsuAlwifIA/GvxBjW9Rw8lTABUwPOXYI8CiwQLt9FfAyaqj4MjouLvlBu+6bKLHWoIahfcA+nfxeQogkSDInhMiECtRiA1AJQzT3aN8PB/pGOKYHamjUB9xL5ErTAmCGdvkCYCJg6TzctDsJ+ArYETVXzwFsDjxJ5NW8V6KSqMNQw9XrgD6oOYk/AwdHebyNgE+BzVDzFz0Bt+0D/IUajh6MWuELMAE1fD0qzPke177viFrkEs4EVFV0sfbYQog0kWROCJEJ56CSKA/wZifHfgTMQiUC/41wzH9RCdCn+Ctd4fi0Y13a498F/I5aVVsQU+Sp1weVgJ6OmtPXE9gE1TIFVAWvKuQ+JwI3oX6P81ALN/qgktoXUdXO54DeER7zauBt7bH6AXtq12+AGtouQSWKmwC9tK8xqETs2DDnew1oQL2HHBnhMfX7PUlii0uEEDGSZE4IkU4O1CKF67SfbwDmdnIfvdoGKuFxhNxux5/k3UvnJqN6zM3Uft4Eldj8Cuwbw/2jsRO5x9z5Ee5TAdwJPIF/HuFM4FztsoPgIeFS7XiAs4H/oYZYQVXZTgTmoBK8kyM8pk07ringfgBXafdbhJp/ODPgPr+gVgvXhTlfM2p4F+CoMLePBLZGJe9PRohJCJEikswJIVJpR1SyNhfVf209qmdcHSoxuyHG8zyHGkasQQ2nBjoGVWH6m9iH734FtkAlgcu06zYHPgReRSVYifAB8yJ81UW5z71hrv8MNccMVMVMtx9qWHUl8HSY+7Xh7923Y4THfEw7LlAhcKh2+T78iV6glajVyOHoQ61boRaaBNKrch/jf76FEGkiK5qEEKlUAgwNuW4JqurzTxznaUFNyL8cVbF6IuA2vUnwfXHG1gY8jNoF4mTU0GNv4AjUXLGd8Fe8YqX3mYvHUqAxzPU+VMPlQahqnG6M9r0b/qHYUNXa90jDrDPDXDcMfxL7XaRgUUOt4fyqfW2JmrenJ+oF+BPwx8PcTwiRYlKZE0Kk0qeoN3MbKgn5CtUEeDKwcZznegCVgI0Gdteu20s7z1rUKtZEuIGHgBGolimghgQvjHSHFIu2y4RL+x44n0+fP1eMSpTDfenHhA5J61aEua57wOVoPfaibUumJ2v/F3DdjqiEdBmq8imESDNJ5oQQ6dCGmnO1N6rqUw28RXDFqTPLUUOg4J9Ppn9/FNXOIxmNqMn7C7Wfo60GNZM+/PkdKsmL9rVhhHOEW4AQuKK1R5jbdcVRbnsJlZxuiBrGBjhO+/50yGMIIdJEkjkhRDq1oao261GVsHuiH96Bfvx+qCbCe2vnfDBF8bXi77lWnqJzppo+tDqK1LZVWRRwebMox20Z5bYG/An3/6Eqg4ehkscnIt1JCJFakswJIdJtOf4hzFOJbwXpr6iKlAXVgqMQ1TR3eYz374N/Plk4FvyJTLQWJ2b6GJUc1aBWpEZij/O8q/D34LuU8HOot6Tzhr/6UOsE4ADU3L7PCU4WhRBpJMmcECITngE+0S4/SfB8rc7crX3XV0zGU90biVp4cR2qJUngXLShwAsB530ojvNm0kLgWe3yg6jEOLCKWIPa+3ZyAue+Xfs+ElVh66P9XICqhn6Ev4lwJFNRCywGoHaLAFn4IERGSTInhMiU01Dz1HqjVpXG6n1Uqw+AKXTciqozPYFrUVWoJlTFqAHVPmUCatj2fFQ1KV42/K1Ywn0dksA5wzkX1X7Ehmr1sg61ynQlavHCQ8SXIOteBB7RLh+CWmm7BDUs/gHqObtXuz3aQgh9SHULVMXvvQRiEUIkSJI5IUSmLAEu0S4fDhwd4/28+NuQ3BvnY/6AmpD/MqpC50XtgOBFLdCYhKrYxdvmRFdA5BWmQ0m8f12oJtSuDaeihp0bUVU0GzANuAbYJsFzn4lq/DuZ/2fvvsObqrsAjn+7d+mkLW3Ze08B2UNQFBFkiyAORBRRxO0LbgWsigtFBUVcKCJDkCXbslcZsiltgUJbunf7e/+4SWihu0mTtufzPPdpcnPvzUkayOn5LW0wgyfaMmjT0foo6r8nUoq4xmJuTOvyHbfOaSeEMCErpYr6Y0sIIUQ19zXwKFplsG8hx9RDq0RaoQ10KW6VDyGEEUllTgghRGGsuJHAFdW8/STa98lmJJETosJJMieEENWXXTGPP8aNpcV+LeQYL7TKHWjrxgohKpgkc0IIUX0NQhv4MYT8EzoHoC3PpR/h+ytaH0M9Z91PL7SVOGqgjWqVgQ9CmIGszSqEENWXFdBft+WgjYy1J//I2L+4UXnTewFtjVwXtLn6rgIPUvSIVyGEiUhlTgghqq9NaE2pf6NN2eKBVnW7ACwFBuu25JvOi0ObpDgVbRLn27gxfYwQooJV69Gs165dU+HhMkm5EEIIISxfx44dYyhgLeVq3cwaHh5Op06dzB2GEEIIIUSxlFIFVqCkmVUIIYQQohKrapU5O6An2utaZ+ZYhBBCCCFMzhIrc05oM4iXRSugA3CX8cIRQgghhLBclpTMuQN/oi3S/EKe/SPR1gk8AzxczDUOoI3AEkIIIYSoFiypmTUX+BRYDXTR7XNDWwi7C9ocSIeAVWjzGv2S59x30Ca+FBWghp8vzjVqcOX0WarzaGghhBDCElhSMpeMNufRQ3n2DQS2AlG6+/8A/dASud5lfJ5Jug0fH58yXqL68A4KpE7bllhb2xBx9Dgd772L3g89gLWNDTERkexetpIDf63Ht04wVy+EkxB9zdwhCyFMqGa9Orh5exFx7ASZaem0v3sAt48cRsSx/1j3xdekJ6eYO0Qhqh1LSuYKEow2kaVeJNoyM4Vpg9ZE2wqYDnxYwDELdBsxMTFSViqEV2AAD386l4BGDW55bPeylVw4FEaHe+/i7memcPczUwBIS0rmvbtHkHI9voKjFUJUhP6PT+SupyYBkJ2ZyaVTZ6jdsjmxkVF0bzOcNgP68vOrb3J69z4zRypE9WLpyZw9WvOrXi5ac2thDgMPlOC6g4HBNWrUKEdoVduIWS/hGeDPH++GcHbfQVRuLvXbt+XKmbOcP3gEgD1/rsa3bm1a9u2Jm483vR4cTVDzppzcucvM0QshjK1e+zYMnPIoh9ZtYu+Kv2jarQt127Zi/fxv2fDVIgKbNmb026/x6BchzBkyltjIqOIvKoQwDqWUpW0PKaW+0d0er5RamOexJUqpocZ6rr179yq0tQSr9WZtY6MGPPGIeuD911XtVs1VpyGDVEhYqOo6YmiJr+HiUUOFhIWqnuNHm/31yCabbMbZbOzsVEDjhqpeu9Zq5saV6uW/flP2Tk6FHl+zXh0VEhaqOg0ZZPbYZZOtKm5KqX0F5TOWXplbD7wH1EQbeXs78LgRriuVuTzumf4kvcaPITszk/Z3DwTg3P5D7Pr9zxJfIyU+gaTYOPzr1zNRlEKIiuTq7cmTi+ZTs14dAFKux7PgiWfJTEsr9Jxr4RFkpqUT0KRRRYVZ6VlZW9O85+20u+sO6rVvQ2pCItt++IV9q/7G3tGRWk0akhKfwNXzsvSkKJwlJXNuwEHdT0e0AQ6PAa8CobpjngOM0bt2FbAqISHhMSNcq1Kr4edLjwdG8u/S5awO+YweD47Cw78mG75cWOqRqjHhEXjXDjJRpKZlY2tL97EjqN+hDdfCI7l67gKetfzxrVsbJzc37BwdqFmvDlnpGXzx8BSuX7pi7pCFMKmOgwdRs14dfn9zDqmJiZzetZfUhMQiz1G5uVw+fZZASeZKxM3bi0c+/4DgFs1Iio3j9O59+Natzei3/8ddT0/GxdMDWzs7AA79vZGVH3xSKQeZWdvYcPuoYfjUDuLKmXNEHDtBTnYObQf2w7dubZJj4zizZz8ntoeSnZlp7nArJUtK5pKAhoU89l0FxlGt1GnTCmsbG3YvW0FGaiobv1pU5mslX4/HpxIlcw06tqPDPXdSs14datavi4tHDWIuRtK0e1ds7e3Jzckh7tJlUuLiycrM5MKhMFr07s6dT07i51ffNHf4QgDg6OZKp3sHUad1C5Kvx7P6w8+N8oXYpFtnLp8+S+hvy0t1XlxkFEHNm5b7+as6axsbxs19i5r16vLjS7M4tG4Tudk5WFlZ0WZgP9oM7EfsxUjO7DtAnVYt6DNxHK369SYmIpKT/+5mdchn5GRnm/tllMiwV2fQdcR9ZKVnYOfoYNifm5NDzMVI3Gv60H3sCGIjL7Fy7jyO/rMNAPeavqicHJJi48wVeqVhSclcRZJmVp3g5k3Izsri8ulz5b5WanwCzq2aGyEq0+v36AQGTZtMakIil0+f5eimrRzesJmTO3dhY2eHh78fCdFXb/lSHDfnTeq1b2OmqEV1Z+/kSPt77qTL/ffi4e+HUgpndzds7e1JjInF3cebrIwM/vroi3I/V53WLdj751+lPi8tOQVHN9dyP39V133sCBp2as9Pr7zJgb/WG/YrpTj090YO/b3RsO+/7aHsXfEXtw0bTN02reg5bhQXw45zcM36gi5tUWq3ak7XEfexedGPrP7wM7yCalG7RTPsnZw4sSOUpJhYrG1saHJ7Z+5+dgoT580m6sQprGysqdVYq+9cOnma3X+sZOfPy2Ru00JU12ROmll1Aps2JvrMeXKyssp9rZSEBFw8LD9B7jb6fgZNm8z+1X+zdNZ7tyRsOVlZxEZEFnhu5LH/aHfXHXgG+OPXoC6ndu3FJziIWk0aYWNnR/jhMOKiLpObU9SgayFKx9rWhtb9+zDgiUfwq1+XqP9OEbZxC1bW1qQnp3Dgr3VcOnmaR+d/SPNe3cudzLl6eeLg7My18IulPjc9ORlHV5dyPX910G30/Zzdd5D9q9aW6Pi4qMv8/ekCrKys+N/GFbTu37tSJHMd7x1ERmoa6+d/C0Bc5CXiIi/lOyY3J4cT2//lZOhuOg+7l/aDBpCdlcXKuZ9gbWNNy769GPryc7To3YMlL8wkJT7BHC/FolXXZK5a8GtQj4BGDXBwcaZ++7Y4ujpzZu9B/v31D0PyVsOvptE61qbGJ2Brb4+9k1ORnaTNpW7b1rS/ewBdRw7l6OZt/PLa26VOuiKOnQBg0lcfU7NeHTJSU3Fwds53TGZaOif/3c2Fg0fwDAzgetRlTuwIJVU3SESI4nQdOZQWvbsTf+UqyXHXadm3JwGNGhAbGcWCx5/h5L+7CzzvzK59DJ4xlRGzXqJ2q+aEbdyCo5srtvb2+Deqj7W1DVEnTgLg4lEDBxcXTu/ex8Ujx3Dz9SY2IopLJ0/jFVQLgNjIy6WOPT0pBTsHB2zs7IzyR2JV5Fe/Lj61g9j0zeJSn6uU4ty+g9Ru3cIEkRlfyz49+W9HaIm+E3KzcwhdupzQpfmb9jcv+pHO99/L0JenM+3nhYT+tpygZk1Iio1jw5cLJbmj+iZzlbaZ1dbBAXcfL5p060JaYhJxly6Tk5VFo86duG3oPWRnZnJsyw7qtmlJ4663Gc5Lio0jNSGRln170eOBkVw5c47NC3/Azcebs/sOGiW2lHitc7SLRw2zJXOu3p7cMWkiHYcMIvL4SRY+9TwZqakENW/Kk9/PJzcnh30r1rDs7bllqp5F6r4Ia9arw9n9B0mIvkbEsROcCt2LysmhbrvWBDZtTIve3WnVrxcZqWk4ODsxeMZUABKuXuPEtn+5dOoMmWlpnNj2L8lx1436HojKrVmP2xn+vxeIj75KcItmuHp5cunkab6f/gphG7cU2cz0385dDJ4xlS7DhwBQq0kjMlLTyM3OJiYyiqy0dDrddzc52dmkxMWTm5tL817d8l3j8Pp/OL1Lm/Q3rgxzxaUnJwPg5OYqn+1CBDZrDMDFsGNlOj/hagzulWAFI+ca7tTw8+XCobByX2v3spVcOnmGiR+/zz3PPklC9DVcvTxpM7Af3z45g8jj/xkh4sqruiZzla6ZNaBxAx757AM8A/wLPebs/oPY2TswYPLDJFy9xuoPP+P4tn/JTEsjIfoauTk5NO7aiT4PP0iznrdTv30bnNzdSIyJNUqMqQnaX0fOHu5cv1z60Z5BzZtgZWVtqH6VVtMeXRnz9v9wcnPj/MHDNLytA20G9GXPn6vpPnYE6UnJvDtoOGmJSWW6PkBGSqrh9vovvuXMnv35Ho8+dwGAP975AO+gQK5fvkINP18a3dYRB1cX6rRuwW1D78HaxgbQVs1Y/NyrnArdU+aYRNXS88FRxEREMvve0eRm52Bta0Nudsn+8Lhy5kbf19e6DSAnK7vYP6xqNWmEm7cXKfHxtBs0gN4TxtK8p5bgxV0qfWUuTZfMObq6VNpkzr9hfUbMeoncnBwWPv1Cuf7PKEhg0yZkZWRw9ULZWkUSr8Vg5+iAo5sr6UnJRo3NmHzqBAMQc7HgbiulFXH0OO/ePQJXjxrER1/Fv1EDHv5kDo9+EULI/Q9W65aP6prMVTpj3pmJtbUNf308n6yMDE7u3IWdgwNuvt7Y2tlz5ew5YsIjAG2ajcJGOZ0K3cup0L10HzucoS8/B0CSkZI5fam7tP3mbO3tufOpSfSZqC3esXTWu+z+Y9Utx1lZWeHo5kpGaipetQJw9/XBxdMDVy9PAho1oOvIoVw5fZYvJk7h6vlw3tm1kVpNtSkSajVpSPiRo0b5T/nC4TDqtmnFuf2HijxOPwP+9UtX2PPnagC2A7+9/j629na41/Rl7HuzeOD913mz372VZmSaMC3/Rg04se1fQwJX0kROb97YR7BzdCzxZ/3SydOG25HHTxLYpDGNunQk4eo1stIzSvXcABm6tVkdXc0/CGLwjKk07daFH16YyZXTZ/M95ujmSk5WFlnpGbh5exHYrDF2Dg606NOTtgP7GUZdNu3e1eh90/wa1uPqufBS/271Eq/FAFDD18eikznf2vpkLsJo18zOyCA++ioAV06f5dunZvDsr4u49/mn+fGl1432PJVNdU3mKlUza/Ne3Qls2pifXnnz1s6yBVSWS5IU5O0LkxRjnL9mEnT/wPwbNuBU6N4Cj7F3cqRu29akXI8n6r9TWFlZ8eAHb9GyT0/2rVyLT50ghrz4LPtXryM7MxP3mr6MfutV3H19cPfxxsXTg9zcXKytrfNdNzcnh/2r1vL7W3PJztC+gC6dPEOtpo2wtrXBr0G9QvsZldbXk5/FwcW5zIMcMlJTyUjVkt+1n3zFI5/NpfHtnTmxbadR4hOVl5O7O+4+3kSfPV/ma1wMO16uGCKOn6BRl47EX44u0/lphmTOvIMgHJyd6T1hLAAT573Pgb/WU79DW2rWrY2jqyv2To4At/x/kp6cwp4/V7Plux95cdWv1GrcgINrjBubu4838Veulvl8fTLn7utjaA0wNa+gWtja2RXbxzpvMcGndhC5OTnE3jTgwZiiz55n86IfGTD5Yf5dupzzBw6b7LksWXVN5ipVM2v/SQ8RGxnFwbXG++swLurGPy5jVebioi5zMew4ne67m20//JLvMZ86wTzw3uvU1k1dkp6SwofDJ9C462207NOTP9//iO0/LqVpj6489sWH1GvfhtO79tJ7whia3N6Z49t2EnH0BNHnLuBcw52r58NJvHaNpNjrpFyPJyk2DpWbm+85L58+S5s7+uATHIStnR1XjDD9Cmj/2acnG2PuagwJZnCLppLMCfzq1wUg+vwFs8Vw7bw2grWsU0DoK0XGqsw5urniVSsgXwUxL3snJ7qNHoaVtQ2nQvfg4ulBi97dDSMm1362gNtHDmXA5IeJOnGK/3bsIjUhkcRrMVjbWGPv7ExqQiJRJ06SkZrKtQsXyUxLB+DquQsENC5s+tOyc/Px5uLRsifd+q4x7r6m6TfnHRxE7ZbNuHL2PKDoNX4MnYbcDWj9r8MPh2FjZ4eLpwdOrq5kpKaRlpSErZ0dddq05OLR4/z08pvUqOlLUmycyQfC/PPtYjreexfjQ97h8qkzOHvUYNlbc4kox3tc2VTXZM7ieQcFgpUVNevWpk7rFvz2xvtlLskXJO8KBsZcJmb38lWMmPkinYYMYu8K7c9ZGzs7Hv5kDq6eHmxYsIjk2DjuenoyU5cswNndnVOhe9j+41IAzu07SE52NvU7tOX0rr206tebY1t2sHDq86WOJeV6PE7ubtSo6QvA9StlqzSYUk5WFqkJibh6eZo7FFEGfg3qcS38otH+bfo1qAtoSYS5xOr+0LO2tSnT+TcGQJS/Mmfv5Mhzvy3GKzCAtZ9+xY6ffyc9KRlbe3sadu6AvaMjd0x+2DAf2d3PPHHLNfb8sYpNX3+PnYO9IUkrqehzFwhu0azcryMvK2trXD09ytUiEhd1mYzUNGq3bsH+1X8bLTYndzeGz3yRtgP75dufk5XNPwt/4NqFCBp0akdwi2ZkpKaSEp9AbEQU9k5OOLm5Ym1jQ+hvf9Lurjt45LO52qTr1+ONFl9hstIzWPT0i4x9bxbeQYG4ensy9t2ZzB36QLWZJkqSOQvUtHsXHvnsA0Mn+ehzFwyJkbFkpqVxMew4Z/bsIyM1tfgTSujQ2g0Mnv4Uo9/+Hy4eHmxb8iv9Jz2EX/26+aZUiImIYvD0pzi9ex/L3p6bJ650UuITcPPxwtHVBa/AAHb+/HuZYklLTMLaxsYwaCTVQoevJ8ddx8XTw9xhmIW7r4/W7JxnYEnD2zrg4unBkQ2bb6m2mltA4wb0Gj8GAAcXF1r3782Bv9aVqK+Orb39LXMa2js50ap/b9y8PNn/1zr86tclMy3drMvFXT51BtCmgyiLtCTj9Zmr27YVXoEBZGdmctfUxxk45VFOhu4hqFkT3Ly9AO2Ptq8mTePSydM0ub0z2VlZ1O/Qlu5jhgNay4NSqtSJnP7azh7u5X4debl6emBtY1OuFpGcrCxO79pDi97dWf5uiFHiatazG+M/eBsbW1vWz/+Wo/9sI6BxQ6ysrTi5c7ehaXfP8lv7M9/swqEjPPD+G/jUDuLcvkNGia84l06e5oNh4wBo1b83D330Hk1u78yJ7f9WyPObW3VN5iy6z1yHwXeRnZnF+vnzcXRzY+cvy0xSpp439hGjXzM9OYUPho1j9NuvMXjGVHpNGIO7rw/7Vq7N12ftv+2h/Lc9tMBrpCYk4uzuTg2/mgDEl7Gipq8Q6NeLtdS5iJLi4oxWmbO2taFF7x5cC4+4pcM3aE1WngH+XDlzDkdXF0MneTtHB4a9OgN3Hx9WzPk4X7XW1t6eYa/OoO2d/UiJT+DA6nWs/fQrQBv1N/DJx0iKiWXDV4vyfUG16N2dpt27ErZp6y2jdT38anL3s1Nof/dAUuIT+Hj0ROKiLlOvXWse//oTrK2t+Xfpcpa9Ncco70tZ5B1FGtyiGUHNmzJ4xlRyc3JQubnYOzsB0P7ugfzx7oekJRa8bqmDszN3Tp1E9zHDiTx+kpiLEfjWrc2p0L20vbM/3ro53QY++RhpiUlcPR9u1lnuUxMSea5V1zKfn5GiS+aMsApE3TatyM3NZVavQdRq2phWfXvRZkBfIk+cZOdPv5MSH0/02QuGP0j1Var0pGRDMlee9zIlPgFnd3esbWyMVuFx8/EGIPFa+bq3HNmwhZZ9e1G/YzvOlXJ6qbZ39qfTkLs5vm2n4Y/lEbNeJDYyip9feZOo/04BGH6Wln5FIRtbW5KvV/yI5uNbd5KenELLvj0lmaviLLrPXMPbOhC2aUuZ/zI2t+uXrzD/kafocM+dDHt1Bqd35a++FSdNl8x56JO5Mi4snabru+MTHAhYbmUuJS6emvXqlPo8K2truo0eRq/xYzmx/V+WvxvCmLf/R/u7B5KTlc3S19+jhp8vJ3fuJvL4f3gF1WLq4q9w9/UhMy0deydHjm/dyffTX2Hwc1O57b57yM3NZfrS74n67xR/ffwFFw6F8cD7r9P6jj7s+XM1rp6e9J/0EAlXr7F3xV9MnDebGjV9sbK2olnP2/ls/OMkRF/Tpgz4VPud3z5qGKd27WXl3E9wdHWhxwMjadm3JyjY9fsK2t89kLuffZIfZrxG/0kTSY67zrEt27l95FAunTxtmEC0ea/udBk+hOuXr7Dnj1X5vmi6jLiPvg8/yP5Va1n3xTelfi+d3N3wqR1Mcmwc2VlZ3P3ME7QfNJC4S5dJT0khWLfWaMSxE3z75AyS465jbWND46638egXIfjVr6sNALLK34XB1duTJ779HP8G9Tix/V/qtG6Jb93axFyMoN+j47kWHsH8R54i/ko0Q19+jqbdu3B234FSx29JcnNyyEhNNcoAiKDmTYk+e5705BTO7TvIuX0HWTHn42LPK09/tLz00y05ubsZrblQn8wll3MajSMbNzP05enc88wUPp84pcA/+Bt0ak/jrrdx/uBhwx/PzXt154HZb5CZmkbT7l2wsbPlyPrN1Kjpy8YF35U5gcsr79RUFdHMerOcrCz+27mLpj3K/kdJZVNdkzmL5erlibuPd7lHpFmC/av/5tDfG0s95UZqYhIefjUNlTn9KNnS0idzXkG1SE9JsdipP5LjrlO/Q1u6jLiPWo0bsmbe/AIHWLS76w4CmzYm4VoMtRo3pEWfHrh41CApNo5uo++n4W0d8Ktflx0//06T2zsz5p3/AdD3kQf5cPgE7n1+KvbOTqyc+wk+umrl7aOG8cqa36nh58vWxT+z46ff6P7ASFr26cET335GfPRVvGoF8Ofsj9m+5FcAHl8wj0HTnqDNwH741A7ii4lTSE9JYcrCL5j4yRw+nzCZfo88SHpKCu/fM4r2gwbQ5+FxzFj2A6BVfrYu/pl/f/mD65evkJqQQO+HHqBpj6407d6FtZ9+xaavv8c7sBZ3T3uCsE1b6DL8Pu56ahLx0Vdp1Lkjt48axorZH7Hjp9/x8Pdj6EvPYm1jw4AnHiEpNo5/f/0DAAcXZ1w9PanfoQ3t77mT7555KV+Tbg0/XwZOeYwOg+/E1s7OsD8nK5u9K/7Cs5Y/Tm5u/PFuCBcOHuHymbOGal1OdjbR57RRp027d6Hfo+OxtrHh9zfnsG/VGlr07sEdj0/Eq1YA8x95ijN79mNlbY2VlRW5OTk4ubuTnpRkqBx98+RzdB42mPMHjxj182UO6UkpOBmhmbWGX80yNTmnJSaRkZrK8S07yvX8eSdCN1ZS4qRLctOSyjdNUlZ6BkvfeJ8JIe/Qbcz97Pjxt3zVwz4TH+Ce6U8Z7q+YOw8nNzf6PTqey6fO8OmDkxg3+w3ueupxMlO1uQj1k6KXV3pSMlnpGdg5OpBshmQO4Mzu/bTV/R9lrHnuLJkkcxbGVdcPpKpMfliWBCo1IZGAxg3w8K9Jbm6uoa9GaembEH2Cg0i5bplVOYDk6/G4enkyYuaLADTuehufP/REvibLO6dO4o5JEw3301NSOLppG8e27iBsw2bufWEa3ceOYO+Kv/jzvQ9xr+lDp/vuIfxQGBM/mc2Lq37BxtaWNfO+ZOvinw3XuRh2jNtH3c/+1WtZ++kCcnNyWDlnHus++5oBUx6hVpNGrPl4PgfXbjCcs3TWe0xdsoCGndqz8evvDSuILHlhJg9/NpdpP32LX4N6bP3+Z5JiYtm6+Gf2rVpL1xH3kRQTy4E16/PNX7b9x9/oOX4Mj33xIVkZGYT+9idKKf54N4QZfyzhjS1af9G9K9bw2+vvYefowNh3Z3HvjGmEHznO7SOHopTi3buGM+zVGdz34rOkJSVzKnQPz/2+2DAABrT5Gnf89Bvn9h/COziQJ7+bj6OLC7t+X8Gpf3fj6uWJcw13jm3ZUaKBQdcvXSEzLZ0uw4dgbWNDQvQ1hs98gXuffxp7J0fioi6zaNoLhsmlVW4u+ka/m5tlVW4uu35fUexzVgbpKSkFNrP61q1Nw9s6YG1tjb2zE1fOnCcpJpa6bVvi7O5O5IlTNOjUDisrKzZ89R01/HyJOF62ScRf7dK/3M3V+mq+sxG75Di4aMv/5f2joqyOrP+H/3bsYsjz0xg0dTKhv/3JkQ3/0PeR8TTv1Y1D6zaxdNa7jH1vFkOenwbAvpVrWfnBJ2SlZ7Dhq+9o2bcX3ceOIDc319Bf0hgy09Kwc3QwS2UO4Mxe7d9cw9s6SDInKp6+U6+xpgupjFITtWZWd18fUq7Hl7mipu8z51zD3TCBryWKz9Mk8ev/3uG+l59l3Ow3mP/IU7h5e3HH5IfpNvp+dv2+gt/fmoOTmysZKan53pcVsz9m5dxPDAMGEqKvsfGrRQCsnPsJI2a9RPS5C2xbkn/KmL0r1hQ4uCYjNZVVH3xaYLzXL1/h/XtGUcPPl2sXbizEfmL7v6wK+ZQhz08jJiKSLd/f6CaQcj2ejQu+K/B6iddi+PuzBdz11OOsCvnM8J//tQsX+e3197n72SmELl3Ohi8XopQiJzmbn159k+d+X8wzP2uLd2/57ieuX77Cjy/NYuIncxg3+w3SEpMM/dpAWw6o8/330qpfLy6dPG0YdPLhyAllHtGtlCL6/AWCmzclOe46bw8cSp+Hx+Hh78ehtRs4t/+QWfu/mUt6UnK+ZlbnGu7c/9rztL2zf7HnZmdlYWtnh6OrK27eXiSWsZuFMd73GxOhG28QhIOL9r6kG2ng2eIZr9J97Aj86tel+wMj6PngKNJTUgzTPQH88PxMOg+9h7hLV/JNgXT59FlysrIJaNSA65evlGmS6MLsWraSLsOHGK3aV1rXLlwk4eo1GnRqX2X+SCqKJHMWxs1b6whfVSpzZZGWmISjqwsunh7lWrEhLc/M6JbaXw7g0qkbAxX2rlyDta0NI2a9xEurl+IdHIi1tTVbvv+J1SGfoZQiNaHgjvaFjfzc9fsKLhw+Skx4xC2jKcsqMy0tXyKnt23xLxxcs4G0xKRSPdfmhUvY9sOvt/T72bdyDftW3ppspicl8+OLr/PEws+4duEi6+drSV16cgpfT36W/o8/RJ1WLdjy3U8kxcbhXtOH/7aHsvGb72nQsR33Pv80OVnZfDPluXJPzRN99jzBzZtydt9BcnNy2PT19+W6XlWQnpyMo5sboC3TN/GTObh6ebL+y4XsWb6KrIwMsjOzqNOqBQ4uzlwMO056cjLBLZpx6dQZBj092bC+bMLVsiVzxnBjiULjV+b0TZvllZGSavjM/bNwiW7OyvxrPmdnZLDzl2W3nJuTlcWVs+cIbNq4TEu3FWXNvPmsmTffqNcsrbN7D9Dwtg5mjaGiVNdkzmJHs1a1Ztay0CcrXrUCyjU5b95lblIKSYAsQfTZG5MZ65va/OrXo2XfnmxZtIR9q/4u14oAQIEjW02lrFXl0o7YvnDoCLN6DSIjOSVfFSY7M5O/P12Q71j9hLNxkZeIi7xkGPVojPnh9L+bs6UcUViVpSWn4FkrAGtbG8a+9zooxScPPErUifyd629eleX07n2G/YZkrozdLIxBnxDp++8ag4OzM1npGSaZ/+zK6bOl/rcefuQYgU0bl3nFD0t2Zs9+2t89kJr16hh1PlVLZF38IVXSKmBSQoLlVWvcvL3Izsy06PX2TE3fMdgzwM/QVFoWOdnZpOumSTBXv42S0M9/dXrXPsO+FXM+5p07h/HXx/PLnchVZelJyWVqTsvNzjHaRL/nDxw2rJcsNPpm1mY9bsevfl3+fP+jWxK5ouRd7cGcX8KZaelcC48gsEkjo13TwcXZ8P+SJTh/UFv+ypjVR0txZq/2B1aDTu3NHInpVdfKnMVy8/aq1lU5uNH84OLpka+ptCxS4xNxdHGx6GZWgBc79iY3xzJH24qinT94hFe73mHyJYsqk/TkFBxcXGh/90CSYuM4VspRpbERN/q4xplwXc+SiDpxkuCWN1aBCGzamMCmjUlPTcXdx4uMlFQuHj1R4j+6HF2cjTpRe3md+lebA1I/BVBVEhsRSfyVaBre1qFKvr68JJmzMA7OzkZb97OyyjvKq7zvhf4L1pKbWUHr0yIqL0nk8ktNTMTB2YnGXTtxfOvOUjcpKqX48aVZxEUatx9XWVwMO07bO/tTq0kjBs+YSuMunQo87ur5cE7sCMXByUk3bc0Fzu47eEuzp72zk1FGshpLctz1ck0SbenO7DlAk26dzR2GyUkyZ2HsnZzKtOxMVZL3r9byNLPCjalRLL0yJ0RVop9OyNndnQuHwsp0jQN/rTdmSGV2YM167n5mCs/9vpic7Gz+nP0xJ7bt1OZQi72Og6sLjTp3pFW/XnQbfT8ZySlY29jg5K4NAPn31z9YN/8bkmO1/ncOzs4WlcxVdWf27qfjvXfh16Bele6yIsmchbF3ciQzzTijnCqrjDyjvMrbd1BfEbDUpbyEqIryTvR9MeyYGSMpv6SYWHb/sZLbRw1j/ZcLDZNnGx6PjSMmPILQpcuxsrIy9OH08KtJjwdH0fPB0dw+ahgnd+7i26kv4ODibNF9eKuas3u1FVUa3tahSidz1XUAhMVycHY22pD1yirvX61p5W1m1SVzltRHRYiqLv7KjWQu+uwF8wViJCvmzGPRtJf459vFRR6XdzBOfPRVVn3wKR+OGM+u31fQpFsXGnXpiKOLS74/WIVpxUVdJi7qcpWfoqS6JnODgQWWODWJVObyV+YyypnMndGNENU3cQghTC8hz0S/xprb0JyyMzM5+s/WMo2AvnzqLGs++RIA3zq1sXd2qvZ/sFe0k6G7adylEza2VbcxsromcxY7NYn0mYPMPFW08q5fuOaTL5k7bJxFrwAhRFUjlfD8Uq7Hk5qQSM26tbF3lD/YK9rxLTtxdHWhQad25g7FZKpumlpJ2Ts5klHN/6HnXaaqvLO/5+bkVOiEuUIIzY8vv87Vc1V7otbSuHbhIr51amPn6EBmevX+g72ind69l8y0dFr07sGp0L3mDsckqmtlzmJJZS4/Yy8xI4SoGAdWryPy+H/mDsNixEVdwjPQHzsHB6OugSqKl5Wewalde2jeq7u5QzEZSeYsiI2dHTZ2tlKCz0P6ugkhqoLUxCTcfXwAyJLKXIU7vmUHXoEBBDRuYO5QTEKSOQti7+QEGG8BZiGEEJYhLTEJeydHALJkkvAKd3zrTgBa9O5h5khMQ5I5C+Kg+4culTlNVRgFJ4QQoCVzeplpksxVtKTYOMIPH62yTa0yAMKC2DvrKnPSZ45Xu/Yv0wLqQghhifKOzJdmVvM4tnUHg56ejJuPN0kxseYOx6ikMmdB7KUyZ5CenCJL3gghqozUPJU5aWY1j2NbdgDQvOftZo7E+CwxmXMCGpfx3I7Ap8ByYLjRIqogdo66ZE5GOgkhRJWSv5lVKnPmcOX0WWIjL9G8d9VrarWkZM4d+BOIBl7Is38kcB44AzxczDUOAlOBR9BWeahUbO3tAekrJoQQVU2+ZlapzJnNqV17aNChHVbWlpT+lJ8lvZpctKra9Dz73IAQoLtuexfwBfyBLXm2O3TH69daeR6YZ+J4jc7Wzg6A7MwsM0cihBDCmPJW5qTPnPmc3XsQJ3c3ajVpaO5QjMqSkrlkYBOQnWffQGArEAVcAf4B+ulu986zbdAdbwvMRVuu64DpQzYuW3t9MieVOSGEqEqS4+INt6WZ1XzO7tVSgwad2ps5EuOypGSuIMFA3vVgIoGAIo5/F+gKTNJtBZkE7AP2+egmcLQU+mbWnCypzAkhRFWSd2CbNLOaT+K1GK6eD6dhx6qVzFn61CT2aM2verncaEotyAtFPKa3QLcRExNjUXNfSGVOCCGqPlnOy7zO7j9ImwF9zR2GUVl6Ze4yEJjnfhAQYYTrDgYW1KhRwwiXMh4bwwAIqcwJIURVJcmceUUcPYGzuzveQYHFH1xJWHoytx6t31xNtEEPt+v2ldcqYFJCQoIRLmU8NwZASGVOCCGqmtUffgZApgyAMKvI4/8BENSiqZkjMR5LSubc0KYfmQ2M0N1uBrwKhAI7geeAFHMFaGq2UpkTQogqa/OiH3muVVdUbm7xBwuTuXL6HNmZmQQ3rzrJnCX1mUsCChsr/J2Rn2swMNjSmlkNfeaypDInhBBCmEJOdjaXTp0hqAolc5ZUmatIltnMam9Pbm4uudlFjfEQQgghRHlEHj9JYPOyLjZleaprMmeRAyBs7ezIkSZWIYQQwqSiTpzE2d0dr8CiZjurPKprMmeRlTkbezsZ/CCEEEKYWPTZ8wDUrFfHzJEYR3VN5iySrb092TJhsBBCCGFS0ecuAFCzfl2zxmEsljQAoiJZ7AAIqcwJIYQQppWakEhSbBx+9eqaOxSjqK6VOYtsZrW1t5dpSYQQQogKcPVCuDSzCuOztZPKnBBCCFERrp4Lx6+KNLNW12TOMkezSp85IYQQokJEn7uAi6cHLp4e5g6l3KprMmehzawyNYkQQghREa7qBkFUhepcdU3mLJKNvZ1U5oQQQogKcO1iBAA+wUFmjqT8JJmzILZ29uRInzkhhBDC5OIvR5OTlY13cKC5Qyk3SeYsiDY1iVTmhBBCCFPLzckh7tJlfGpX/sqczDNnQWQAhBBCCFFxYiIipTJXiVnsAAiZmkQIIYSoGLERUdJnThiXrZ1MGiyEEEJUlNiIKJzc3XCu4W7uUMpFkjkLIpU5IYQQouLEXIwEqPT95iSZsyAyNYkQQghRcWIjtGTOu5I3tcoACAtiay9TkwghhBAVJTbqMkClHwRRXStzFjcAwsrKSrc2q1TmhBBCiIqQnZFB/JXoSj8IoromcxbHxs4OQJI5IYQQogLFREThI5U5YQy29vpkTppZhRBCiIoSGxGFtwyAEMZga28PIAMghBBCiAoUczESdx9v7J2czB1KmUkyZyFs7aQyJ4QQQlS0uKhLAHgF1TJzJGUnyZyFsNFX5qTPnBBCCFFh9Mmcd2CAmSMpO0nmLIS+z5xMTSKEEEJUnDjd9CRegZW3MifzzFkIwwAI6TMnhBBCVJjkuOtkpKZW6mSuulbmLG6eOcMACKnMCSGEEBUqLuoyXkHSzCrKSeaZE0IIIcwjLvKSVOZE+dlKMieEEEKYRWzUJbxkAIQoL2lmFUIIIcwjLuoyji4uuHhYTl/60pBkzkLIAAghhBDCPAxzzVXSplZJ5iyELOclhBBCmMe1CxcB8K1X28yRlI0kcxbC1k5rZs2RPnNCCCFEhYqJiCQnKxu/+vXMHUqZSDJnIWykMieEEEKYRW52DtfCL+LfoK65QykTS0zmnIDGZTy3KfAp8DfQ3GgRVQDDAAjpMyeEEEJUuOhzF6QyZwTuwJ9ANPBCnv0jgfPAGeDhYq7xHzAV+A5oZ/QITUj6zAkhhBDmE332PN7BgYbiSmViSclcLlpVbXqefW5ACNBdt70L+AL+wJY82x15zgkBpgCbTByvUd2YmkQqc0IIIURFiz57HmsbG3zrVr5BEJaUzCWjJWDZefYNBLYCUcAV4B+gn+527zzbhjznPAc8Brxo4niNytbOjpzsbFRurrlDEUIIIaqdK+cuAODfoPI1tdqaO4BiBAPhee5HAkVN0XwPcDfgg1ahK8gk3YaPj48RQjQOW3t7qcoJIYQQZhITHgGAd3CgmSMpPUtP5uzRml/1coGcIo5frduKskC3ERMTo8oVnRHZ2tuRI4MfhBBCCLPIzswkJT4Bd1/LKfSUlCU1sxbkMpA3RQ4CIoxw3cHAgho1LGfZDht7Oxn8IIQQQphR4rUYSeZMYD1av7maaIMebtftK69VwKSEhAQjXMo4bO2kmVUIIYQwp8Sr1yplMmdJzaxuwEHdT0e0gQ2PAa8CobpjngNSjPBcg4HBllSZs5XKnBBCCGFWCddi8GtY39xhlJolJXNJQMNCHvvOyM+1CliVkJDwmJGvW2a29vYyYbAQQghhRolXY3Dz9sLK2rpSzS5h6c2spmJxfeakMieEEEKYV+K1GGxsbXH19DB3KKVSXZM5i+wzlyN95oQQQgizSbgaA4B7zcrVb666JnMWR6vMSTInhBBCmEvitWsAuPv6mjmS0rGkPnMVyeIGQNjY25GeYoyxHUIIIYQoi0RdZa6GVOYqBctrZrW3l0mDhRBCCDNKjI0FyDc9Sedhg+k+doS5QiqR6lqZszi2dtLMKoQQQphTbnYOSbFx1Kh5o5l15BuvALDjp9/MFVaxqmtlzuLI2qxCCCGE+SVevbEKhJO7u2G/o5uruUIqVnVN5mRqEiGEEELcIjEmBjdfbwCCWzQ17A+w4MmEq2syZ5F95mTSYCGEEMK8Eq/GUENXmavhd6O5tcFtHcwVUrGqazJncWzspDInhBBCmFtiTCyuXp5Y29jg4uEBQPiRY9x23z1Y29qYN7hCSDJnIWSeOSGEEML8Eq/FYG1jg6uXJ66eHmRlZLDhq0V4B9Wi6/D7zB1egaprMmdRfeasbWywsbWVypwQQghhZonXdKtA+Hrj4ulBSnwCJ7bt5OLR43S8d5CZoytYdU3mLKrPnIuHllSmXI83byBCCCFENZccex0AF09PXDxqkBIXD8CRDZup3ao5Hv5+ZoyuYNU1masQDi7OvL7lLxp3vQ2Aln17YuvgcMtxbj7aqJmk2LgKjU8IIYQQ+SVf15I5V08PXWUuHoCwjVsAaNWvl5kiK5wkcyZUp3VL3Ly9GDD5YfwbNWDivNkM/9/z+Y556OP3eejj9wBIjrtujjCFEEIIoZMSr7XauXjpkjldq1nMxUgunTpDy749zRhdwSSZMyG/+nUBbWSMo7MzALVbtch3TGCzxngHBQKSzAkhhBDmlpaYRE5WNi4eHrh41jAkdwAnd+6mbttWBbaymVN1TeYqZABEYLPGAFhZWeFUQ5tF2rmGe75j3HVNrCDJnBBCCGEJUuLjcff1xtndneQ8/dnP7NmHrb099dq2Ml9wBaiuyVyFDIC4cuY8oC3Y6+qpJY76ZM7D3w/nGu7Y2tsDkJ2VRVpikknjEUIIIUTxUuITqFm3jnY7TzJ3/sARcrKzaWhhEwjbmjuAqmzLdz8S2LQRddq0wllXBbSxtcWvfl1eWPEzu35fAWjt8BkpqeYMVQghhBA6yXHXDa1reZtZM1JTiTh6QpK56ibxWqxhrhq9mvW0bL/L8CEALJ31LucPHTFHeEIIIYS4SWpCIs7uWkvazV2gzu47SO8JY7GxsyPHQpbhrK7NrBUm7tJl7Bwc8G9Qz7DPp3ZQvmPir1wlNzunokMTQgghRAFSExMNt/NW5gAij/+HjZ0tAY3qV3RYhZJkzsRiwiMAqNOmpWFfTd0oV9BKtrGRURUdlhBCCCEKkbcP+80T+keeOAlAYLMmFRlSkSSZM7Fr4RcBcPXyNOzzq1cX0D4g6z7/xhxhCSGEEKIQaYnJhtupN1Xm4iIvkZaYRJAFJXPSZ87Erl+OJjszE1t7e65fvoJngD8169cl+twFPhg2jtwcaV4VQgghLEneylxOdvYtj0eeOCmVOQtQIfPMAajcXGIjLwFw9dwFAJzcXEm8GiOJnBBCCGGB0pK0ZC67kAEOUf+dolaThljb2lRkWIWqrslchcwzp6cfCRN9LtywLzEmpkKeWwghhBClo6/MZaalFfj4pf9OY+fggG/t4IoMq1DVNZmrUPoPw9ULeZK5q5LMCSGEEJZIX5nLTEsv8PGr57Xvc1/dxMLmJslcBUhP0jpSpienGPYlXJNkTgghhLBE+iQuM7Xgypy+OONb1zIqczIAogKs+vAzrKytObZ5u2FfoiRzQgghhEVKuHoNgC3f/1Tg4xkpqSReizEs+WVuksxVgIToa/zw/P8ASIqNw83bi+TYODNHJYQQQoiCpCUm8VyrrkUec+1iBN61AysooqJJM2sFW/7eh8CN9nYhhBBCVD7xl6Px8PMzdxiAJHMV7vC6TTzXqitJUpkTQgghKq3rl6Px8KuJlbX5UynzRyCEEEIIUcnEX47Gxs4WNx9vc4dikcmcE9C4HOd7AaeAtkaJRgghhBDiJtevXAHAM8D8Ta2WlMy5A38C0cALefaPBM4DZ4CHS3CdV4C/jB2cEEIIIYReQvRVAGrU9DVzJJY1mjUX+BRYDXTR7XMDQnT3c4BDaKs32AC/5Dn3HWAD8ACwBuhZIRELIYQQolrS93138/YycySWlcwlA5uAh/LsGwhsBaJ09/8B+qElcr0LuMZdQCTQHXBBS/6EEEIIIYwqNT6R3NxcXL08zR2KRSVzBQkG8s7hEQkEFHH8ON3P19GabAsySbfh4+NTbACdO3dm5MiR+Pj4YGVlVezxQtxMKUVMTAxLly5l9+7d5g5HCCGEEeTm5JByPR5XqcwVyx6t+VUvF625tTivF/HYAt1GTEyMKuoinTt3Zty4ccybN4/z58+Tk1OSpxYiPxsbG+rVq8e0adMAJKETQogqIjnuukVU5ixpAERBLgN5p1cOAiKMcN3BwIIaNWoUedDIkSOZN28eZ86ckUROlFlOTg5nzpxh3rx5jBw50tzhCCGEMJLk2Ou4STJXrPVo/eZqAv7A7bp95bUKmJSQkFDkQT4+Ppw/f94ITycEnD9/vkRN+0IIISqH5Lg4aWa9iRtwUPfTEW2Aw2PAq0Co7pjngBQjPNdgYHBxlTkrKyupyAmjycnJkX6XQghRhaQkJOLiUXQuUREsKZlLAhoW8th3Rn6uVcCqhISEx4x8XSGEEEJUE+lJyTi4OJs7DItvZhVCCCGEsEjpycnY2Npi7+Ro1jgsqTJXkUrUzCqEEEIIUZi0ZK3nl6OrK5lp6WaLo7pW5ko0AKKqmTVrFkopw5aUlMT+/ft56KGH8h1Xp04dwzE9exa9mMbJkydRSjFhwoR8+/v378/atWu5dOkSGRkZXLlyhW+++abIay1atChffPrt66+/LtPrFUIIIUwpPSkZAEdXF7PGIZW5auj+++8nJSUFb29vJkyYwKJFi6hZsyZz5szJd1x2djZPP/0027ZtK/A699xzD3Xq1Lll/5NPPslnn33GH3/8wXPPPUdmZiYNGzake/fuxcaWnJzM8OHD8+2LiDDGbDRCCCGEcaUn65I5N1ezxlFdk7lqPQBi06ZN6KuSv/76K8eOHePJJ5+8JZnbv38/Q4YMoXbt2ly8ePGW6zz77LMcPHiQLl265Nv/yiuvsH37du6///58+2fPnl1sbNnZ2axbt660L8korKysUKrIeaSFEEIIg/TkVACcXM2bzFXXZlahk5OTw5EjR/D19b3lsV9//ZWMjAyeeuqpWx5r3bo1ffv25ZdffrnlMRcX05WblVJ89NFHjB49mhMnTpCUlMTWrVtp0qRJvuMcHR2ZO3cuUVFRpKWlsWvXrnyVQX1T8rPPPssXX3xBSkoKM2fOBCAwMJCff/6ZuLg4EhMT+emnn3jooYdQStGrVy/q1KlDTk4OH3744S3xbdmyRVZ4EEKIasJSKnOSzFVz1tbWtG7dmuPHj9/yWFxcHD/88AOPPvoozs75h14/++yzhIWFsWXLllvO++233+jRowdffvklHh4epY7JxcUl32Ztnf9j2rdvX6ZNm8Zbb73F66+/TocOHfj9998Nc7hZWVmxcuVKnnjiCT777DMmTpxIeno669evJygoKN+1xo8fj7+/Pw8++CDr1q3D3d2d7du3c+edd/L+++/zyCOPYGVlxQcffGA4Jzw8nM2bN9/SHBwcHEyPHj349ttvS/2ahRBCVD7SZ868ytxnbsgLz1CraSPjR1QKl/47zYo5H5f5fBcXF7Kzs/H39+e1116jXr163HfffQUe+/HHHzNp0iTGjx/Pl19+CYCfnx9jxozhySefLPCcadOm4eTkxOOPP86oUaP4+OOPCQkJIVn3F0xRPDw8bjmuf//+bNq0yXDf19eXRo0akZKijSJyd3dn5syZNG/enGPHjjFy5EjuuOMORo0axdKlSwFYvXo1Fy9e5LnnnuPZZ581XMvJyYnhw4eTm6stAfzKK69Qr149evTowY4dOwAtOf3999/zNRsvXLiQH3/8kW7durFz504AxowZQ1paGj///HOxr1MIIUTll6b7vpJmVvOolqNZ9aKiokhOTubMmTM0bNiQHj16sHbt2gKPPXnyJOvWrePpp5827JsyZQqJiYn8+OOPBZ6TmprKuHHj6N69OwcOHOD111/nv//+u6VvXUGSkpLo3r17vm3v3r35jtmwYYMhkQMMjwcHBwPawIyYmBjWrFljqO4ppQgLC6Ndu3b5rrVy5UpDIgcwYMAATpw4YUjk9P74449895ctW8b169fzrbU6duxYli1bRlJSUrGvUwghROWXmZoGgINU5iqX8lTELMWdd96JUoonn3ySPn36FLte6EcffcT69esZMGAAW7duZfLkySxYsID09KLn1Nm5cyf9+vVj4MCB/Pzzz6xYsYLGjRtTVBKdk5NjqHQVJi4uLt99ffLk4OAAaJVDHx+fApOqs2fP5rt/+fLlfPcDAgI4d+7cLeflTR4BMjIy+Pnnnxk+fDjPPPMMzZo1o02bNvmSXiGEEFWbUoqs9AzsdN8/5iLJXDW0a9cuEhIS2LBhAxs2bGDJkiW0atWKqKioAo/fsGEDx44d46mnnsLf3x8PDw+++OKLEj/funXrmDZtGosXL6ZXr16sXLnSWC+lQAkJCVy+fJkRI0bc8tjNCWjeqhxATExMgYNBAgICbtm3cOFCpkyZQo8ePRg4cCCnT58udBoXIYQQVVNmejp2jpLMmUO1nmdOTynFxIkTOXbsGAsWLODuu+8u9NiPP/6YL774gqCgIH7//XcuXbpU6LF+fn5ER0fn22drq33UiqvmGcP27dsZOnQocXFxnDhxolTnHjx4kMmTJ9OyZUuOHj1q2P/ggw/ecuz+/fs5fPgwI0eOZNCgQTK5sRBCVENZ6enYO5p3OS/pM1fNRURE8MorrzBo0CAmTpxY6HFLliwhPj6edu3aMW/evCKvefLkST7//HPGjBnDvffey8svv8wHH3xAWFgYmzdvLvJcW1tbBg4cmG/r1atXqV7TokWLCA8PZ+PGjTz//PMMGTKEyZMns27dumJXtJgzZw4ZGRmsX7+eKVOmMGbMGNavX49rIZ1bFy5cyLhx4wgODua7774rVZxCCCEqv8y0dOwc7M0aQ3WtzIk8Pv/8c0aPHs2HH37I+vXrCzwmPT2dr776in79+rFnz54ir/ftt9/Sr18/xo4di42NDRcvXuTzzz/no48+Iisrq8hzXV1d+fvvv/Pti4yMNAxuKImkpCR69erFnDlzeOmll3B0dOTixYv88ccfHDx4sMhzL168yIABA/jggw/48MMPiYmJ4euvv+bMmTMsWbKEjIyMfMcvWbKEkJAQ/v7771v63wkhhKj6sjIysHMyb2WuwLUwq8u2d+9eBRS6LV68uMjHZas+2yuvvKKUUiooKCjf/nbt2imllLrvvvtKdB35TMkmm2yyVa1t6g8L1OML5lXIcyml9hWUz1TXZlYhCqTv25eXk5MTjz32GMePHycyMjLfY1OnTiU8PJzVq1dXVIhCCCEsSGZ6uoxmNRMZACEK1K1bN0JCQvjll1+4cOECwcHBTJ48mcDAQAYPHmw47uGHH6Zu3bpMmDCBBx98kOzsbDNGLYQQwlyy0jNwdnc3awzVNZlbBaxKSEh4zNyBCMty+vRpTp8+zbRp06hZsyZJSUmEhoYyceJE/v33X8NxISEhpKWl8cwzz/DTTz+ZMWIhhBDmlJWejr2Z+8xV12ROiAJdunSJMWPGFHucp6dnBUQjhBDC0mWmp2Nr5tGs0mdOCCGEEKKMstIzZJ45IYQQQojKKis9AztJ5iyXUgobGxtzhyGqCBsbG5RS5g5DCCGEEVnCcl6SzBUhJiaGevXqmTsMUUXUq1ePmJgYc4chhBDCiLLSM7C2tsbW3nz95iSZK8LSpUuZNm0aDRs2lAqdKDMbGxsaNmzItGnTWLp0qbnDEUIIYURZujXHzdnUWl1Hs5Zonrndu3cD8MQTT+Dj44OVlVUFhCaqGqUUMTExLFmyxPCZEkIIUTVEn7vAwTXr0RZpMA+r6tyHZ9++fapTp07mDkMIIYQQolhKqf1Ax5v3SzOrEEIIIUQlJsmcEEIIIUQlJsmcEEIIIUQlJsmcEEIIIUQlJsmcEEIIIUQlJsmcEEIIIUQlVq2nJgGuAeHmDkIIIYQQogTqAL4376zuyZwQQgghRKUmzaxCCCGEEJWYJHNCCCGEEJWYJHNCCCGEEJWYJHNCCCGEEJWYJHNCCCGEEJWYJHNCCCGEEJWYJHNCCCGEEJWYJHNCCCGEEJWYJHNCCCGEEJWYJHNCCCGEEJWYJHNCCCGEEJWYJHNCCCGEEJWYJHNCCCGEEJWYJHNCCCGEEJWYJHNCCCGEEJWYJHNCCCGEEJWYJHNCCCGEEJWYJHNCCCGEEJWYJHNCCCGEEJWYJHNCCCGEEJWYJHNCCCGEEJWYJHNCCCGEEJWYJHNCCCGEEJWYJHNCCCGEEJWYJHNCCCGEEJWYJHNCCCGEEJWYJHNCCFF1fAco4O8Kej4nYAdwFehZQc8phLiJJHNCVD9uQDLal/55wMq84YhKrAXQDfAFRpg5FiGqLUnmhKh+RgEuutt1gb4mfK4g4ElgigmfQ5iOLdAf+ATwK+DxQ8BiYCewoOLCEkLkJcmcENXPw7qfZ2+6bwrfAJ8Bt5nwOYTpdAQ2AFPRmlRvlg1MALoDYRUYlxAiD0nmhKhemgFdgRzgXd2+YYCHuQISQghRPpLMCVG96Ktw64ElQCzgCIw1W0TVh62RjhFCiHwkmROi+rAFHtTd/gHIBH7V3X+kkHMeQhsokV7Edbfojvkyz74Lun0Ddfcn6O4r3WM3a4XW5+okkAKk6m5/DjQs4rlLwxqtv+BK4DKQAVwDtgMjCzjeEa2v3ybdcZm6nxvQ3hebAs6py43X2QWt+TEU7f3bl+c4/TGj0QYRbEAblBJz0/WcgVfQ+qalAEm66zwD2JfgNeflitZcuglt9GkWEIeW2N9507EP6eILzbPvfJ64HyrktRSkHvARWjNsItp7cR5t5G27Qs55XXfN/3T3ewFr0N6fNOAgpu0eIESlIn8FClF93IPWiT0J+FO3bzFawtIeaAMcNtJzXUDrTxWAlpAkoSUQAJE3Hfsa8CbaqFqFlmjZAY1128NoycOvlJ0XsAzorbufqYunJlrCFQsszXN8Q7Skr5nufjJwRXd8f902AbgPSCjkOZuh9Re00l0/p4BjfIF/AE9dPA55HquHNsVIY939WLR+ax1021C0ZLmoRDuvLbrz0MV8Fe33c4dum4iWYIGWdJ3VxROk2xeO9jvVP14SE4H53Hhd0WjvZV3d9iAwAy3ZK8zDwNdoCX4aWpLdFvgW7f2bXcJYhKiypDInRPWhr779jvalCLAbrQKW93Fj6I2WEG3X3f9Dd78hNxIqgCeAt9ASns8AfyAQLWlqAqxD+/JezI1EpLRs0ZLX3mhJyKNofQSD0RLN7sDWPMe7A2vRkrELaFWrGkBt3c+H0RKL3sDCIp73f8By3WsJBAYUcMyzaBWrWmhJU1PdfhfgL7REbjta9c4Hrbp2N1qFqifae1dSNsActPfVQxdTENpnAN1j+mqf/veVd7qR3tz4Hf5Rgue7Gy3hckBLlOuh/X71r3UJ2nfQh8C9hVwjAPgYeBwt4a0JtARO6R5/XbdfiGpNkjkhqgd/bjSl/XDTY/r7D5C/MmRq7twYhPEJWhPg1TyPnwIGA0fQkow3y/g8E4EeaM2KA9ASDH0ym4M2rUbeytA0tIQlEeiDllDm6h7LABZxo4lvGNCpkOe11z13su5+bAHH+KE1T8bcdMxTaMnkSWAQcFy3X6E1N87Q3Z9MyX9nA4EXuZEIAVwCputu+1J4s2dpWaO9p1bACrTm7Qt5Ho9Cq8qt1d1/l4K5A3PRRkXrq4LHgKd1tx3RfkdCVGuSzAlRPUxAq1BdRGtuy+sHtCTBC63ZsKLchVYhyqbwRC0LmKe7fQcFT49RnEd1P5dwowpVFP1gkG8puH8faJWmi7rbQwo5ZgFa/EX5lVv7yYH2+wLttScX8Ph63U9XSp6AXS1k/5U8twNLeK3idAIa6W7PLOK4D3Q/W1Bw30iFVpm72Xq0pnKA+mWIT4gqRfrMCVE96CtJP6J9QeZ1Ea2ZsbfuuPL0TSuN9rqfRym4aqW3R/fTDu0LXz+f2Y9A50LO6YVW/bHnRvPsmhLE5MyNps6tRRyngL1oTa/NCjnmWAmer6BjXPJc81XguWKu4V+C59G7Ha1C2xJogJYIueZ5vLSDKgqj/91eR6usFmZPntvNgDM3PR6J1t/yZvq+lXW4MQG2ENWWJHNCVH3dudGJ/mXdVpj+aH3JIkwdFDf6OhWVyAHE57ntlud2IFpCUhA73U9vbow6vVLIsXl55Lld0rjcCnn8cgmer6Bj8sZQkkqZYwmO8QR+A/rp7qehNeFuQBtZOr2Q88pK/7uNK+a4ZLSmbhsKfh9TizhXP/BDlqMT1Z40swpR9ZVmYIM1Wj8vPX0Vz5bC/78oS9Mn3Gg+9CjmuBp5bl/Pc7s32hd5QdsF3TEZeY53L0VMpYnreiGP5xayv7hj8sbQl8Jfo377pQTPswAtkbuA1lztjtY8Owx4vgTnl1ZJf7cu3Ei2C3sfhRDFkGROiKrNjRsjEp+h6KTgJ91xD3Gj2qH/Urah4OY8K270jSqto7qfrSj6S1+/FFgScLqUzxHHjb5iPUtwfCI3qpI9ijjOihsDH/aXMqbiJKBN4QHae1NeTtzoC/kqsJEbgwnAePP45aX/3XpTeDM05F/m7YAJ4hCiWpBkToiqbRRa9SOH4vvCLdb9rIdWEYL8ydM9BZzzAEVPDZGi++lVwGOr0Jr77NGSjILYcmPk4q/kT0JKapnu5yS0JuTi6N+nSdyYY+1m96P118oi//x0xvKX7ueTaP34ClOSkaye3OhSE1/A448VcW5KntsF/Q4LswNtpCwUPQpZ3x9wIzcSWCFEKUkyJ0TVph/4sJni+4xt5MYXsP68o2iTxYI2p1nvPMcPQBttmfcL/2bndT/7cKN/m4/u5zXgHd3tGWjzjfnmObcR2rQWbdGqa68XE39h3kHr/+YJbEOb/0zftGeD1k/wlTzHz0F7HzzQRv7258b/lQ5oI00X6e7PpfARr+UxBy3RbYzWry3vHHs2aKtL/ET+lRgKc5UbExu/hjZ3G2gVu1cpOpm7wI2m9kfQKpLWFJ/YZQIv6G4PRxtJXDvP47XQJii+G+11FjfIQwhRBEnmhKi6mgFddbd/LsHxOWgjREHrS+WB1qfrGd3PmmhJYTzadBrr0DrV76NwC3XXdUXrcB8F7Mrz+Ltoc8yBNoHuFbQRjNFo86ENQkusBunOLYsotPnqrqGtOrAarTn1AlqSs4H8zX3XdM8XgZaAbkB7zeG6n9/pXs98tImBTeEk2jxsGWgjUPeh9Sm7oIs9FBjDjfnyipLNjaS5K9rruoTWbP0GWgWyMEnc6JM3Ba3ZOobCJ/nN60e0hC4XrYIbrnveS2i/4wm61zKMoke8CiGKIcmcEFWXvrqWwY2mxuJ8r/vpyI351v5Em3D2H7QvX3u0BGkK2qS1RTmOlhjtRks8XMg/HYVCm6S3F1rz5iW06pwj2tQfrwHNKX+/tFDddd5GSxwUWoUwEm2pqJvnQjuM1l/tVV0cCq3PYIwuzt5or78kgxzKahnQWhffObRKmh9aovsL2vu6uNCz85uL1jT8L9rv0IUbVcfimokno62Re1EXQxw3Kq4led72aJXM82gVPTe0iu9stNUo/i7htYQQhbBS6uYpp4QQQgghRGUhlTkhhBBCiEpMkjkhhBBCiEpMkjkhhBBCiEpMkjkhhBBCiEqsWq/Neu3aNRUeHl78gUIIIYQQZtaxY8cY8s/HCVTzZC48PJxOnToVf6AQQgghhJkppQqsQEkzqxBCCCFEJSbJnBBCCCFEJSbJnBBCCCFEJSbJnBBCCCFEJSbJnBBCCCFEJSbJnAkFNW9K/Y7tzB2GEEIIIaowSeZM6I7HH+K+F58xdxhCCCGEqMIkmTOhrIxM7BwczB2GEEIIIaowSeZMKDszE1sHe3OHIYQQQogqTJI5E5LKnBBCCCFMTZI5E8rOyMTWXipzQgghhDAdS0nmHIEFwCkgHHhWt38acBE4CdyV5/j3gUggDOig22cLfAdEAbuAeqYOujhZGRnYSTOrEEIIIUzI1twB6LgA64DHAW/gGHAAeBJoAQQDG4E6QA+gO1AX6AN8C7QFxqMlhUHAo8BHwH0V9goKkJ2Rga29PVZWViilzBmKEEIIIaooS6nMxQLLAAXEABFAT2ApkAQcBy6gVeGGoVXgsoENgC/gr9v/je4aPwL9KzD+AmVlZgJgI02tQgghhDARS0nm8mqJVmHzQWty1YsEAtCqdHn3RxWwP1W3eRZw/UnAPmCfj4+PUQO/WXaGlszJIAghhBBCmIqlJXM+wA/ARMAeyM3zWC6QU4b9N1sAdAQ6xsTEGC3wgugrc9JvTgghhBCmYknJnCewGngF2AtcBgLzPB6E1vx68/5aaFW7vPudABsg0bQhF01fmZO55oQQQghhKpaSzLkDq4C3gbW6fX8BowFnoDngBRzS7Z+AlqzdgTYCNk63f6Lu3HHAiooJvXDZGRkA2EmfOSGEEEKYiKWMZn0aaAd8rNsABgBL0Ea2pqONUFXAcqAXcA5t4MRY3fGfA4vQqnfngFEVEnkRsnTJnFTmhBBCCGEqlpLMva3bbvaubssrFy35e/qm/enAGOOHVnZZ+gEQ9jIAQgghhBCmYSnNrFVStn4AhKMkc0IIIYQwDUnmTEhfmZMlvYQQQghhKpLMmVB2pvSZE0IIIYRpSTJnQoY+c5LMCSGEEMJEJJkzoex0XWVOBkAIIYQQwkQkmTMhWQFCCCGEEKYmyZwJydqsQgghhDA1SeZMKEsGQAghhBDCxCSZM6Hc7Bxyc3IkmRNCCCGEyUgyZ2JZGZmyAoQQQgghTEaSORPLzsiQypwQQgghTEaSORPLyszETlaAEEIIIYSJSDJnYtkZmVKZE0IIIYTJWFoy5wQ0NncQxpSVkSFTkwghhBDCZCwlmXMH/gSigRd0+z4FzuTZcoDmQF0gLc/+D3TH2wLfAVHALqBeRQRenOxMqcwJIYQQwnRszR2ATi5a8rYa6KLbNzXP442Bn4DjaMncbqD3TdcYDzgCQcCjwEfAfSaKt8SyZTSrEEIIIUzIUipzycAmILuQxx8FFhZzjWHAN4ACfgT6Gy26csiS0axCCCGEMCFLSeaKYgeMRKvMgZastQbOolXyGur2BwPhutupus2zgOtNAvYB+3x8fEwU8g1ZMgBCCCGEECZUGZK5e4GdQLzufjjgBTQCNqP1kwOwR2uu1ctF62d3swVAR6BjTEyM8aO9SbZMTSKEEEIIE6oMydxjwLcF7M8FvgJa6u5fBgJ1t50AGyDR5NEVIysjAztH6TMnhBBCCNOw9GSuDtAArQKnF4iWrAGMA/bobv8FTMyzf0VFBFic7IxMbKUyJ4QQQggTsZTRrG7AQd1PR7SRqo8BfYDFaP3k9JqjVeqygNO64wA+BxYBEcA5YFQFxF2s7MxMmWdOCCGEECZjKclcEjcGMuS1uYB9G4DaBexPB8YYMyhjyErPkMqcEEIIIUzG0ptZK70smTRYCCGEECYkyZyJZWdkYm1tjY2tpRRBhRBCCFGVSDJnYlmZGQAyolUIIYQQJiHJnIllZ2QCSFOrEEIIIUxCkjkT0ydzsj6rEEIIIUxBkjkTy8rQmlmlMieEEEIIU5BkzsSy9M2sMj2JEEIIIUxAkjkTy9YPgJDKnBBCCCFMQJI5E9NX5mQVCCGEEEKYgiRzJpadqR/NKsmcEEIIIYxPkjkTM4xmlWZWIYQQQpiAJHMmZhjNKgMghBBCCGECksyZmD6Zk8qcEEIIIUzB0pI5J6CxuYMwJsMKEDJpsBBCCCFMwFKSOXfgTyAaeCHP/izgjG77Jc/+94FIIAzooNtnC3wHRAG7gHqmDLiksnQDIGRtViGEEEKYgq25A9DJBT4FVgNd8uyPAhredGxfoDtQF+gDfAu0BcYDjkAQ8CjwEXCf6UIumWyZNFgIIYQQJmQplblkYBOQXYJjh6FV4LKBDYAv4K/b/w2ggB+B/qYItLT0U5NInzkhhBBCmIKlJHOF8QbOApuBjrp9wUB4nmOigICb9qfqNs8CrjkJ2Afs8/HxMUHIt8rKyJC1WYUQQghhEpbSzFoYN93PEcBytITNHq1ZVi8XyCli/80W6DZiYmKUkeMtUFZGhjSzCiGEEMIkLL0yp/cb2khXD+AyEJjnsVpogyHy7ncCbIDEiguxcNkZmbKclxBCCCFMwpKTOR+05A3gLiAWiAf+AiagJWt3AKeAON3+ibrjxwErKi7UomVJMieEEEIIE7GUZlY34KDupyPQG5gHTEdrLr0MjNQduxzoBZxDS/DG6vZ/DiwCInSPjaqY0IuXnZkpfeaEEEIIYRKWkswlcesUJKBNV3KzXOBp3ZZXOjDGyHEZRXZGJnbSZ04IIYQQJmDJzaxVRlamjGYVQgghhGlIMlcBstIlmRNCCCGEaUgyVwGyMzOxk7VZhRBCCGECksxVgKyMTFmbVQghhBAmIclcBcjOlKlJhBBCCGEaksxVAOkzJ4QQQghTkWSuAmRlZEhlTgghhBAmIclcBchKl2ROCCGEEKYhyVwFyMrIwN7J0dxhCCGEEKIKkmSuAmSlZwBgK9U5IYQQQhiZJHMVICtDS+akqVUIIYQQxibJXAUwJHMy15wQQgghjEySuQqgb2aVypwQQgghjM3SkjknoLG5gzC2rPR0QCpzQgghhDA+S0nm3IE/gWjgBd0+b+BX4DRwFhit218XSAPO6LYPdPttge+AKGAXUM/kUZeQVOaEEEIIYSq25g5AJxf4FFgNdNHt8wXmA1uAhsA+YJnusd1A75uuMR5wBIKAR4GPgPtMF3LJSZ85IYQQQpiKpVTmkoFNQHaeff+hJXKgVeCy0JphCzMM+AZQwI9Af6NHWUYymlUIIYQQpmIpyVxx7gIOAIloyVprtKbX1WhVO4BgIFx3O1W3eRZwrUloVb59Pj4+Jgz5BmlmFUIIIYSpVIZkriEwF3hcdz8c8AIaAZvR+skB2KM11+rlAjkFXG8B0BHoGBMTY4JwbyXNrEIIIYQwFUtP5uoAv6P1h7tw02O5wFdAS939y0Cg7rYTYINWyTM7qcwJIYQQwlQsOZkLBP4AHkNrYs27X993bhywR3f7L2Binv0rKiDGEtFX5uydJJkTQgghhHFZymhWN+Cg7qcj2khVK8AH+DnPcc1127doAyJOoyV7AJ8Di4AI4BwwqgLiLhGpzAkhhBDCVCwlmUvixkCG4mwAahewPx0YY7SIjEhGswohhBDCVCy5mbXKULm5ZGdlyQAIIYQQQhidJHMVJCs9A1upzAkhhBDCyCSZqyBZGRlSmRNCCCGE0UkyV0Gy0tOlz5wQQgghjE6SuQqSlZ4hyZwQQgghjE6SuQoizaxCCCGEMAVJ5iqIVOaEEEIIYQqSzFUQqcwJIYQQwhQkmasgWRkZ2Ds6mjsMIYQQQlQxksxVEGlmFUIIIYQpSDJXQaSZVQghhBCmIMlcBZHKnBBCCCFMQZK5CpKVIct5CSGEEML4LC2ZcwIamzsIU5BmViGEEEKYgqUkc+7An0A08EKe/dOAi8BJ4K48+98HIoEwoINuny3wHRAF7ALqmTLg0spKz8Da2hobOztzhyKEEEKIKsRSkrlc4FNgep59DYAngRbAUOBbwA7oC3QH6uqO/1Z3/HjAEQjS7fuoAuIusaz0DACpzgkhhBDCqCwlmUsGNgHZefYNBZYCScBx4AJaFW4YWgUuG9gA+AL+uv3fAAr4EehfIZGXkCGZk35zQgghhDAiS0nmChIMhOe5HwkEFLA/qoD9qbrNs4DrTgL2Aft8fHyMHHLhsjKkMieEEEII47M1dwBFsEdrftXLBXLKsP9mC3QbMTExyojxFsmQzEllTgghhBBGZMmVuctAYJ77QUBEAftroVXt8u53AmyARNOHWTL6ZlZZ0ksIIYQQxmTJydxfwGjAGWgOeAGHdPsnoCVrdwCngDjd/om6c8cBKyo23KJJM6sQQgghTMFSmlndgIO6n45Ab+AxYAlwDEgHHkUb3LAc6AWcA2KBsbprfA4sQqvenQNGVVj0JSADIIQQQghhCpaSzCUBDQvYvxl496Z9ucDTui2vdGCM8UMzjqyMdEAqc0IIIYQwLktuZq1SpDInhBBCCFOQZK6CyGhWIYQQQpiCJHMVRAZACCGEEMIUJJmrINLMKoQQQghTkGSugugrc7ZSmRNCCCGEEUkyV0Fys3PIycquVpU5Kysrc4cghBBCVHmSzFWgrIyMatNn7s6pk3hx1a8413A3dyhCCCFElSbJXAXKysioFpW5Bh3bccekifjWCebe56eZO5xya9W/N4NnTDV3GEIIIUSBJJmrQFnpGVV+bVYHZ2dGv/0/roVHsOX7n+g0ZBBNunUxd1jl0n7QAHpPGIuLp4e5QxFCCCFuIclcBaoOzax3Tp2Eh39Nfnn1LdbM+5LocxcY/r8XsLKuvB81jwA/ABrd1sHMkQghhBC3qrzfsJVQVnrVbmb18KvJ7SOHsvfPv7hwOIycrCw2fLkQr8AAgls0NXd4ZeYZ4A9Aoy6dzByJEEIIcStJ5ipQVe8z1++xCWBlxYavFhn2nfx3N7m5uTStpE2ttg4OuHl7AdC4621mjkYIIYS4lSRzFagqN7N61vLntmGD2b1sJdcvXzHsT01IJCLsOE26V85kzsPPF4Dww0fxCgzAOyjQzBEJIYQQ+UkyV4GqUjOrb93a1G7V3HD/jkkTUbm5bPrm+1uO/W/nLmq3bI6Te+WbpkTfxLrnz9UANOoqTa1CCCEsi6Uncy8BZ/Js6cAgICvPvl/yHP8+EAmEARbXW70qVebuff5pJn/zKTX8fPEOCqTjkEGE/vYnCdHXbjn2v527sLaxobEuEbKxs2Poy9P534Y/LT7B0w9+OL1rH9cvX6Gx9JsTQghhYWzNHUAx3tdtADWAg8B6IApoeNOxfYHuQF2gD/At0LYigiyprPR07J2qxtQkvrWDcXB25t7np5GVnk5udg7/fPtDgcdGHD1BakIiTbt1IS7yEsNenWGo6tVu1ZyTO3dVZOil4unvR25uLvHRVzm9ex/Ne3Yzd0hCCCFEPpZemcvrAeB3ILuQx4cB3+ke3wD4Av4VElkJJURfw83bG2tbG3OHUi5W1tZ4BgaQHHedtgP70WHwXez8ZRlJMbEFHq9yczkVuoeOQwbxzC8L8a0TzM+vvgVAULMmFRl6qXkE+JMUE0tOVhZXTp/D1csTJ3c3c4clhBBCGFSmZO4RYKHutjdwFtgMdNTtCwbC8xwfBQQUcJ1JwD5gn4+Pj2kiLURMRCQ2drZ4+ltUjllqHv41sbWzY/2XC7kWHkFWegabFy0p8pzQ3/7kwsEj/PHOB7w14D72rVzDtQsXCWzWuIKiLhvPAD/iL0cDEBt5CQDvoFrmDEmUkYOLMwGNby7oCyFE5Wfpzax6HdD6y/2nu68vjYwAlqMlcvZAbp5zcoGcAq61QLcRExOjTBFsYWIuRgLgUzuI2Mioinxqo9KP6Iw+e54vH52Kq5cHyXHXizznzJ79nNmzP9++yBMn8w2isEQe/n5cOnUGgNhI7ffnFRRI5PGT5gyr0rG2sWHQ05PZ+esyrl+6UvwJJjBg8iN0f2AE7wwcRuK1GLPEIIQQplBZKnOPofWBu9lvgBPgAVwG8s4bUQttMITFiI3QEjif2kFmjqR8vIO1tzk2Ior4K9FlTmyiTpzEOyjQopstPQP8DZW5uMjLAPgEl216Ev+G9Rn73ixcPGoYLb7KIrhlM/o8PI7uY0aYLYZGnTtia2fHbcMGmy0GIYQwhcqQzLkAg4Gluvs+aMkbwF1ALBAP/AVMAGyAO4BTQFwFxlmsxGsxZKalG5KhysonOJDsrCzio6+W6zqRJ04BENjUMptaXTw9sHN04PplLYnLSE0lKTYOrzI0s3oFBjDpq4/pcM+dtLqjj7FDtXh1WrcEoHkv8wwgcXJ3J6BJQ3Jzc+k6fAjWNpW736oQQuRVGZK5UcDfQLLufgDaqNazwKvASN3+5cAx4BwwG3iqYsMsmZiISHyCK3dlzisokOtRl1G5ucUfXISoE1pFz1IHQXjqpiW5rqvMAcRGRuETVLrfn4tHDSZ9NQ87BweSYuNocntno8ZZGdRp3QKAmvXq4FMnuMKfv36HNlhbW7P9x6V4+PvRrEfXCo9BCCFMpTIkcwvRBj/ohQH1gAZoU5Ec1u3PBZ4G6gDtudG/zqLEXIzEuwo0s8YYoc9fakIicZcuE9jcMpM5D91Alfg8yVxc5KVSV+YGPvkYXoEBfPvkDI5t3k6jzh2rXWWodqsWhB8+CpinOtegYzuy0jP4+9OvSIi+RteRQys8BiGEMJXKkMxVKbERUXgH1cLKysrcoZSZd1At4nQjO8sr6sSpSlCZu9FhPyYiCs8AP2xsCx871LJvL17+6zeCWzbHt25tugwfwq7fV3DhcBgnQ/fg5OZK7ZaWMfDDxtbW5H0W3Xy88QoM4NC6TVw6dYYWvbqb9PkK0qBje8KPHCUzLZ09f66mSbcuuHh6VHgcQghhCpLMVbCYiEjsHByoUdPX3KGUiZO7O87u7sREGGdsSeSJk/jU0SYgtjQeAX5kpKaRmpBo2BcXGYW1jQ0eAQVPL+Pk7s7wmS/gUzuISV9+xKg3XiErI4P1X2rjd07v2kdubi6Nb7+tQl5Dce6Z/hQvrfoVdxN+HvVNrBePHOP4lh3Ua9+mQge9OLm7UatpI87uPQDA8W07sba2puFtFrdIjBBClIkkcxUsVjc9SWVtavXJM5LVGCKPncDa2pogC2xq9a1Tm7io/BXIGP2I5EIGsQye/iTONdxZ+PQLZKalUa99GzYvXEJyrDZ1S1piIhFHT1hMv7nGt9+Gq5cnY9+diZW1af47qNO6BdlZWUT+d4pjW3dgY2tboa+/Xjutv9yZfQcBiDz2H2lJyTTq0rGYM4UQonKQZK6C5Z1rrjLST5gba6Rm1vAjxwCo27a1Ua5nTMEtmt4y7Yr+dRfUb65um1Z0vv9eti7+mWObtzP/kafYsGARWxf/nO+4k//upnar5ji6ud5yDTcfbyO+gqK5eNTAv0E9Io6doFHnjvR7bIJJnqd2KWX0ZgAAyN9JREFUqxZc+u802RkZRBw9QXpKCnXbtrrlOFN1PajfoS3ZmZlc1H3WcnNyOLt3P406SzInhKgaJJmrYPHRV8nOyqq8yZxuJG6ckSY9TktM4sqZcwV+uZuTe01f3H19iDx+It/+pGsxZKVnFDgiuc3AfmSlZ7DhS22hkpiLkfz96QKy0jPyHXdy526sbWxo1j3/iMrO99/L65tXV1jnfP17vmLOPA6uWc9dT01iwkfvUcPPeE2u1jY2BLdsxsUwLZFSublEnThFcMtm+Y6ztbfnlbXL6P/4RKM9t16d1i2IPHGS7MxMw77Tu/fhExxUpmlmhBDC0kgyV8FUbi5xkZcMqyhUNt7BgYb58ozlwqEw6rRpaVGDQoJbNAXg4tH8yZxSitiogke01u/QlguHw4p9b8IPhxEffZW2d/U37Otwz50Mn/kiubm5dB9bMRPr1mvXhuzMTCKOnuCnV99k9Uef07RbF15Y8TPdx44wSrNr7VYtcHB25sKhMMO+iKMnCGzSON8axa3v6I1XYAC9xo/G3smp3M+rZ21jQ1Dzplw8cjzf/lOhewGqdHXO1t6ewGaNLbLqLYQwLknmzCDmYmSlrcz51gk2NBUby4XDYbh41MC3bm2jXrc8gls2Iyc7m0snz9zyWGxE1C195hxdXajVtBHn9h8q9tpKKQ79vZGm3bvi5O5GUPMmjH77Nc7s2c8f73yAf4N61O/YzlgvpVD12rch4ugJsjMzyc3OYfPCJcwd9gDnDx5h6MvTefK7+UWO2i2JjkPuIiM1jeNbdxr2RRw9jp2jAwENGxj2dR0xlNSERJzd3blt6D3les68/BvWx97JkYtH8ydzV8+Hk3D1WpVN5lr06cG7uzYxfen3TP3hK/wa1DN3SEIIE5Jkzgwunz6Lf4P6ePj7mTuUUgto3JDLp88a9Zr6qk3dNsZpanWv6VvuJCS4eTOunDlHdkbGLY/FRkThHRyU7znqtmuNtbV1iZI5gINrNmBrZ0fr/r259/lppMQn8P2zL7Nv5RpSExO5fcR95Yq/OLYODgS1aMr5g4fz7Y+LvMQ3T0xn6evvUa9d63I1+do6ONB2YH+ObNhMRmqqYf/FY1q1U9/U6t+oAfU7tGXjgu84f+AwPR8cbbR5+PRr/+r7y+V1etc+GnXuaLKBH+bU+o4+pCUl8fOrb5Gbm0ubarjqiBDVSdX7X6wS+PfXP1Aok3U4NxWvwACc3Fy5dPK0Ua977cJFUuITyt1vzsWjBvf/7wX+t+FP7nmufAuABLdoSuSxguedPrVrLw7OTjTuemN6kQYd2pKTlU34kaMlun7k8f+4Fh7BXU9PpkHHdqz74hvSk1PISs9g34q1tLqjD65enuV6DUWp3bIZtnZ2nDtwpMDHdy9byeld+7jj8Yk4uGjTxljb2NBtzHAmznu/RFPJtOrbEyc3V/b+uTrf/rjIS6Rcjye4hZbMdR1xH1kZGexbuYYt3/+Md1AtWvbrVc5XqKndqgUp1+OJLaCPZ9imrbh6edL+7oFGea7yCGjcgA6D76LdoAFG6cfXoGM7zuw9wL6Va7hw8Ei1XEJOiOpEkjkziL8Sze5lK+k8dDCetQqer8wS1WqiraEa9Z9xkznQ9ZsrRzJna2/P9N++p/OwwcRejKTzsHvLPJeZZy1/XDw9iCgsmft3N6kJibQbdIdhX/0O7Yg4duKWwQ5FObhmPW7eXlw5e57dy1Ya9of+thxbOzs6Dr6rTPGXRL12bQDy9WW72eqPPsPVy5O7n5lC97EjmP7b9wx75Tla9u1F+3uKT4A6DRlEbOSlAquVEcf+I7hlM9x9feg4+C4Or/+HlPgEjm3ZTtyly3S8584yv7a8ardqfksTq96xzduIOP4fdz75GDZ2dkZ5vrKwc3Tg8QWfMPbdmYyb/QbjQ94p1/W8AgPwDPDnnG4qliMbNlOrccN8y6h5BwfxyOcf4O7rU67nqsxsHRwYN/sNajVpZO5QhCg3SebMZNM336NULv0fe8jcoZRYrSYNyc3J4coZ4zazgpZU+Deoh5O7e5nOb9SlEx7+fix+7jW+f+5VHJyd6Dx0cJmupa8YRRwrOAnIyc7m8Pp/aNm3J3aODtg5OhDcohnn9h8s1fPsW7mWpNg4Vsz+iNycHMP+q+fDCT9yrEQJU1lYWVnR/u4BRBz/j7TExEKPizx+kgNr1tNt9P0MfXk6VtbWLJr2ElEnTtG1mGZgD38/GnW9jX0r16CUuuXxiGMn8G9Yn9Fvv4a1jY1hBLDKzdWWPOvSCVsHh3K9TgdnZ/wa1ONiWMG/R6UUaz7+Aq/AAG4fNazE161Zrw5DXnwGV2/jVE5vu+8e3Ly9+O6Zl1j3xTcEN29arv6jDXT9Lc/qkrmwjVsAaN3/RnXurqceo3nPbtwx+eGyB17JtR3Yj3aDBtBn4gPmDkWIcpNkzkwSoq+x+49VdBwyyNCMZelqNWlEzMXIUlWfSkpfvWnStVOZzm/VrxdpScmc2LaTy6fOcGbPfrqNHV6mvlfBLZuRnZnJ5dPnCj3m4Jr1ODg706JXd+q2aYWNnS1nS9hfTi82MorXe99tGFmZ14G//iawaWP8G9YvbfjFatW/N/4N67Nl0Y/FHrv83RB+fPl13rnrfubeN5aj/2wl9Lc/CWza2NAfrSC9JoxB5eSyZ/nqAh+POHrcMHnwXx9/kW9QzfGtO7F3cqRROVdoCGreBGtra8O0KAU5FbqXU7v2csekh4qd48/a1ob+j0/kud8X03PcKKOMOra2taH3Qw9w4VAYYZu2suv3FeTm5tLuzv7Fn1yI+h3bkXI9nuiz5wFtOqTww0dpPUBL5vzq16XNnf1JuR5P56GD8QoMKPfrqIz0f5C07NvLIlegEaI0JJkzo0N/b8TWzi5f3ytLVqtJQ6L+O2WSa4cfOUpiTCyt+vcu9bnWNja06N2dE9v/JSc7G4BtS37Fq1ZAmfpeNe/VnYhj/5GTlVXoMecOHCY++ioDn3yM8R++Q3pKChcOFtz/rCwO/b2JnOxso/Xn8q1bm7ptW2NlZcUdj0/k6vlwDq//p9jzUhMSObB6Xb61eA+sWUdGaipdRxQ8OMLF04Mu9w9h/+q/ib8SXeAx+ilfzu47yM6ff8/32Nl9B0lPSaF5r24lfXkFMgx+KKQyp7dizjxsHex5+NM52Ds5FniMd1AgT33/FXc9NYmwjVs4u/8g7QcNLPd0Om0H9sMrMIBN3ywGIPFaDOf2HaTdoAFlvmaDju04u/9QvorokQ2bCW7elIFTHmXgk4+RmZbG/EefIjcn55bqXN4pYwrj6uVJ15FDK20i6N+oAXXbtuLw+n+wd3I0Wh/Nmw2eMZWJ8943ybVNxcbOrkoOCqrq5DdmRhcOhZGamFjuL62K4OjqgndQYIFTdRiDys3l6KatNOt5O7b29qU6t2671rh6eRK2aath3/GtO4m5GFnqJpTGXW/Dv0E9QpcuLzbeA3+to2a9OoQfOcan4yaRnpxSqucqSnLcdU6F7qH93QPKnTA4ODsz+ZtPmfrDV0z/7XtqNWnExgXfoXJzy3S9jJRUDqxZT9s7++PiUeOWx3uMG4mtgz3/LPyh0GskxcSyaNpLLJ7x6i3NsDlZWZz6d0+5/13UbduKa+ER+dbWLciV02f54fmZBDVrwgOz3zBUymvWq8P9rz3PlO++YMYfS/CtG8z3z73Kkhdnseu3P/EOqkXddkXP4VbUl6Kbtxd3PjWJy6fPcmLbjalbDv69kZr16pSpL5eHX028gwIN/eX0dv66jH2r1jLgiUdoM6AvO376ncunzrLz12V0HHwXfR4eh2ctf4a+PJ339mwu9N+NV2AAY9+bxf82rmD4/17ggdlvWNT8kCWlH3Sz7K05xEZG0XGwcfpo5tWkWxd6TxhLy769CGjcoPgTLICrlyfPL/+Rl1b/WqY/rIX5VIZk7gJwRrdt1+2bBlwETgJ5e4m/D0QCYYDFr6Kdm5PDfzt20azH7cX+hxjYtDF9Hh7HmHdn0mv8GOq2bU1A44YENG6Af8P6Jp+EOKBxQwAunTL+4Ae9sE1bcHB2pkkpF6Fv2bcnWRkZ/Lc91LBP5ebyz8IfqN2yOY1L0XTbY9xIEmNiObRuU7HHrvv8Gz64fxzfPDGdK2cKb5Itq/2r1+EZ4E+v8WPwDCj7QJk7n5qEu68Pmxcuwc3Hm+hzFzi4dkO5Ytv+w69Y29pw//9eyLffyd2N7qOHE7ZxC9cuXCzyGkf/2WpYs/Zmx7ftxMPfr8yd062srKjXvm2Jp4o5sW0nf77/ES379OSVNb8z5p2ZzFi2hA6D78QKK/au+IuQ+8dzRFfNPPrPNjJSU+lQwEANaxsbhr06g5dW/cqcA9vo8cDIW45x8fRg8jef4urlyW9vvJ8voQ3bsJmcrOx8A2xKqqFu3ryzNyVzWekZ/PzKmyx8+gUO/b2Rrd//BMDGBd9zKnQv9zz7JK+tW87to4YRffY890x/it4Txmqvx9aGum1bM/i5qbyw4mda9u3Fv7/+wZpPvqRum1Z0vNd0A3VMwd7JkQ733MmRDZtJiU9g/+p1NOzcEfeaxlv5xNHNlZFvvMzV8+FkZ2Zy231l679bkWwdHJj4yWxq1PQlKz2Dhz56j3uff9rcYYkSKt9kXBWnYZ7bDYAngRZAMLARqAP0ALoDdYE+wLdA24oMsixObNtJ+0EDCGrRjIgCRt351q3N0JenGxYmT4yJLXSUY9imrSx7aw5JsXFGj1P/pWqqyhzAmb0HSE1MpFX/3hzbsqNE59jY2dGqby9Ohe4lMy0t32P7VmqViH6PTiiwX9rNfOoE07xnN9Z9/nWRTax62ZmZXD5l/MEgesc2b+Pq+XAGz5jK4BlTuX75CucPHGbTN4tLnDwGNW9C97HDCV26nNUffc7fX3yDjY1NvgEXZRF97gJ/f7aAe559kvb3DOTA6nUAjHzjFeydndi44LtyXf/E9n/Jzc2lRZ8eZZoKx69BPVw8apQ4mQPY+csywo8c455nn6TjvXexe9lK1nzyJclxtyacmWnphG3aSpuBffnz/Y/yLRXWacgguo2+n+Nbd6KUotvo+9n+41LD41bW1jzy2Qd4BwXy9RPPEn44/3Q2KfEJnNq1h7Z39mfNx/MLHEBSEBePGtz19ONcPR9e6FyQxzZv59jm7Yb7aYmJfP3EswQ1b0rLfj05vG4T0Wcv8MDsNwyfO71cXTV6zbz5JERfw8rKiua9unH3s08StmmrUSvTptT5/iE4ubmy85dlAOxftZYBkx+m05BBbPr6e6M8x5AXpuHm7cWn0ybR+6GxdBh8J6s/+rxE/69UtP6PT6RO6xZ4Bvjj16Ae3z/7Cse37uDBD96m472DWBXyWYmq+M163E7rO/rw18dfFPhvRpiYUsrStws33Z+hlHo7z/1/lVJdlFKfKaUezbM/SinlX9S19+7dqwCzbs413NXcQzvUwCcfu+WxjvcOUrMPbFNv/7tB9XxwtHLz8VaAcvPxVs163K5a9u2lWvXrpVrf0Uf1f3yien/fFvXm9r9V/Q5tyxSLk7u7Gj7zRfXY/I/UA7PfUO3uusPw2MjXX1ZvbF1j8vdj9Nv/U2/tWKec3N2VlZWVatz1NnXfS8+qXuPHqPod2iora+t88U5Z9IUKCQtVLfv2LPB6PcaNUiFhoapum1bFPvewV2eo2fu3KldvT7N/LvSblbW1CmjcUHUbM1w9OPct9dbOdWrmxpXKzdurROc+88tCNeufVcrRzdUksT353Xz19r8bVLfR96t+j05QIWGhquf40Ua5/uNff6JmblqpbO3tS33u7aOGqZCwUOUVGFCm57axsyv2mMZdb1MhYaGq7Z39DfvsnRzVzE0r1dQfFihAdRoy6JbPX4fBd6mQsFDV/p6BhV67wz13lvhzq98e/mSOmr1/q6rVpFG533trWxvVdeRQNWDyw2rglEdVq369lJO7+y3HBTVvouYe3qmmL/1eNe/VvUzP5ertqfzq1zX657Ow3+v/Nq5QTyz8PN/+x+Z/pGZtXq1sHRwKPM/BxVl1GXGfemrxVwX+X513a9bjdhUSFqrunDpJAarJ7Z1VSFioaj2gr0leU1DzJsra1qZM5wa3bK5CwkLViyt/UU99/6XqdN/dhsfa3XWHCgkLVcEtm5foWk//+I0KCQtVMzetVPU7tquQ32d13JRS+wrKZ8ydqJVkO6GUOquU2qWUGqiUmqeUeizP40uVUkOVUiuUUnfk2b9HKdWugOtN0r0Z+86fP2/2Xwygnvxuvpq+9Pt8+zoPG6zmHt6pHl8wr8TJRc16ddQLK35W7+7epOq2aaWsrKyUd1CgCmreVNVp07LQ/6gA1bhrJzVz40o158B2Ne2nb9X/Nq5QIWGh6sG5b6nhs15Ucw/vVBM+es/k70WTbl1USFioCgkLVW/vXK9CwkLV+/u2GPa9/NdvqveEseruZ6eoV9b+rmbv35rvy/Tmzd7JUb2+5S/18prfivxi9woMULMPbFPDZ71o9s9DUVtA4wbq3d3/qKe+/1I5ubsrd18fZWVlVeCx3ceO0JKNgf1MFo9ngL96esnXht+PMT8jDW/roELCQtXto4aV+txxs99Q/9vwp0l/F1bW1uqFFT+rGX8sMfwO+j8+MV8SZu/kpN7dvcnwubK1t1evrV+upv38baG/N9CSh/f3blFDX55eolg63Xe3CgkLVd3Hjqjwz2Tbgf3Uy2t+UyFhoaX6/0q/TfnuCzX30A7V95HxRb4nxthuGzpYhYSFqsZdb8u3v0Gn9iokLFR1HTH0lnNsbG3VS6uXqpCwUDXrn1VFfiad3N3UzE0r1XPLfjD8QWBlba1eW79cPTb/I6O/nmY9u6mQsFA16cuPlIOLc6nPf/jTuerN7X8rB+dbz3XxqKHmHt6p+j8+sdjreAb4q5CwUDXqzVfViyt/UbP3b1XBLZpV2GewZr06yt7JyWTXd/PxVo27dqqw11PUVpmTOf3WQykVo5Sar5R6JM/+X5RS9yql1iql+uXZv0sp1bqoa1pCZQ5uVBGGvTpD2drbqzunTlIhYaHq0fkflroq4ebjrV5a9at6d/cm9daOdYYv2ZCwUPXm9r/VoGlPqJr16hiOt3VwUENefEaFhIWq5//8SQU2a6xA+w+o7yMPqjkHtqs5B7arwTOmKkdXlwp5P+q2ba36PjJejXrzVdV2YD9la2+vXL08VduB/dTUJQtUSFiomn1gm3ryu/mqXvs2xV4vuGVz9dYOraLl36hBgcc8MPsN9d6ezcrd18fsn4fitrYD++X7vWqJnVu+Y2r4+ap3Qjea5AukoK12q+ZqwOSHjf4ZeWrxV+q19cuVja1tqc6buXGlemD2GyZ/3frqRes7+qjAZo3Vu7s3qQkfvpvvmNFv/0+9/e8GZevgoPo+8qAKCQtVDTq1L/ba40PeUa9v+UtZ2xRfdZmy6As1448lFfo5zLtZ29qo20cNU+/v3aJmblqparcqWTUnqHkTQ2UoJCxUjQ95J1/1HbREoaB/lz3GjVJP//iN8gqqddM1m6qhrzynPPxq5tvvFVRLvbR6qXrml4UFxjLtp2/Vy3/9dsvz66uk7QYNUFbW1urhT+aouYd2qEe/CFFvbv9bvbt7k3p++Y+GKvicA9sN/4/qt0HTnlBzDm43+r+PxxfMU2/tXKfmHNiunlv2g3LxqFHic/Xvfb/HJhR6zLSfvlVPLf6q2Gv1fHC0CgkLVd7BQcq5hrt69e8/1GvrlysXTw/VuGsn1XXk0DJV2Euy1fDzVXMObFfP/vpdgdVjY2zjZr+hQsJC1UMfv69cvczbclNYMmellKIS2Qfop8p/U/dzBzBVt20BFuv2X0TrM1doB7J9+/apTp3KNq+Zsd3z7JP0eXictth4DXf2/Lma39+cU6Y+FjX8fBnywjOkJSYRfuQYSbFx2Nja0mHwnbTs0wNrGxtiIy+RkZJCDb+auHjUYNsPv/LXvPm3rEVas14dcrJziI2ILOTZKp53cBBJMTFkpqWX+Bz/Rg14/KuPcfaowbYffmHjgu/ISNHWCw1q3oRnf/2OjQu+Y+2nX5kqbKNq0acHvrWDsbG3Y8Dkh7l64SKLnn6BuKjLeAcFMuad/xHUvClzho7NN61IZdPk9s5M+upj/vl2Mf8sXEJaYlKx53gHBfLK2t/5/c05hP623KTxWVlb8/zyH7GxtcW5hjvpySl8PmEy8dFXDcc06NSeKQs/J/FaDO6+PhzfupNvn5pR7LVb9e/NQx+9x5ePPc3pXYX3+XT18mTWP6vYuOA71n3xjVFeV1kFNG7AxHmzsbWzZ+6wcUVOSg0w5p2ZtOzXk7f6D6HriPu4Z/pTbPhqEes+/5oBUx6lxwMjcXJzJTsri2+fnMGp0D04urky6o1XaH1HH3Kys4mNiOKTcZOwsbOh3yMT6K6bXzI++irfP/syAY0b0m3U/QQ2a0xubi7fPjUj32ApvVb9evHQx+/z08tvsH/134b903/7HhtbW+YO1Ub42js58uj8D6nh68u5/YdIS07GM8AfW3s70pNTCNu01TBQRq9u29ZM/eErvp/+Ckc2bDbCO63NF/jCip/56+P5RB7/j8e+/IgN879lvW4C7uI8/Olc6rVvzTsDhxXa3/HOpybR79HxzOx5V5H/9p5a/BX2jo58OHICAEHNm/LU4i/Jyc7G0cUFgKj/TrF4xmvEhEeU8pUWrd9jExj09GSyMzOJPnuBLx+bessIdhtbW8O0VaVlY2fHm9vWcv3yFXzrBJMcd525w8aRnpRsjPBLTSm1H+hY0AOWvLkopQJ0t9sprR9cN6XUcaWUs1Kque62lVLqfqXUJqWUjdKaWzcWd31Lqczpt76PPKieX/6jatqjq8meo4afr+o6Yqia8NF7auIns9XI119WjTp3NPtrr4jN1ctTjXrzVa3pdu8WNT7kHTVu9hvqze1/qze3ra2wyqOxt0ZdOql3d29SIWGhavrS79X7+7aod3ZtLLJPVmXaHv0ixFCNfeD91/NVlgva9E2OFdUPS1+de3XdHwU25VtZWalHvwhRk778SHUbM7zEzWG2Dg7qndCNavTbrxV5XOdhWtNhQOOGZv9dASqwWWM158D2Yiujbt5eavaBbeq+l5417Bv5xitatXnxV1qz/Yfvqq4jhqrpv32v3t29SfV8cLTWHeTgdkM/2tn7t6pX//5DzT6wTc09vFMNe3WGqteutfrfhj8N1evpS79XPcePLrKrhZW1tXr6x2/U2/9uUD61gxSgGnXuqELCQtVtQweX6z2xtrFRb+1Yp0a9+arR3uf7X3tevb9vi6Ea9/iCeeqVtb+XqKm6z8PjVEhYqOrz8Lgij6vbtrWh8lzYMTX8fAus8LW/e4DWD2/IINWyb0/15ra16p3QjapOm5ZGew+srKzUy2t+U098+5lq0q2Lmr1/qxr5+sv5jrG1t1cz/liiRr7xSpmeo2l3retP0x5dVZ02LdXcQztu6f7g5u2leo0fY7TXVdRWWGXO3MlacZuvUuqU0vrMHVBK9dHtf0UpdV5p/em66fZZK6U+UUqF645tWtmSOdkqZgtq3kQNfXm6mvXPKjVr82o15p2ZqnbrFuW6pt6oUaPM8pq8AgNU30ceVFO++0KNeWemcq/pa/b32bi/s6ZqyAvPqHd3b1JzD+1Qk776WA2c8mi+ztnWtjaq8/33qv9tXKFe3/JXhcVmZW2tuo4cqjwD/I1+7aGvPKcNlrh7QKHHPPpFiHp5zW9m/x3l3fpPekj7gn90gnKuUXDT18Apj6q5h3caEifQvnif+WWhmntoR77+f27eXoZ+ec8t+0EFNW9qeKzNwH7q1b//UPe+ME351q1t2F/Dz1fd+/zTJWrS1m+eAf7qze1/q+eW/aBa9u2lnl7ytXp9y19GaSIcN/sNNWvzaqP0C3Ryd1Pv7v4nX4LS/p6BKiQstMABcG0G9lOvrF2mnlr8lbr3+adVSFioGjf7jWJjsbaxUW/vXF9kEqr/XfvUCS7yWh5+NdVLq5eqt3euv6UZuqxbg47t8g0mGj7zRfX+3i35mpv7THxAhYSFqrmHdyr/hvVL/RzDZ72o3tm10dAHcujL09XcQzsMA0+6DB+i3tq5Ts3evzXf589UW2VN5ky6STInm7E2cydzpd02b96sbpadna1iYmLUjh071EsvvaQ8PDzMHufNm4unhxo07Qn13LIf1NxDO1RIWKia/PWn6v7/vaDe2LpGhYSFqqeXfF2qUaCWvNna26snFn6uZh/Yplr27XXLl6+jq4uafWCbGvzcVLPHmneztrFRjy+Yp0LCQtWcA9vV+JB38o2ydfXyVO+EblQPffz+Lec6uroUWH318PdTt913T6n7T5Z2a9Kti5p7eKcW+8HtqsvwIUa5rr7vXVDzJuW+1v2vPa/mHtqRrw+wvZOjeid0Y77Ey9bBQY0PecdQnXx++Y8qJCxUPbHw8xKN2AYtmZlzcPstAxpcPGoYKqmPL5hXomt5+PupV//+Q725ba3y8Pcr9/sw5p2Z6u1/Nyg7R21wn3/D+iokLFT1feRBw+fs7X83qMlff6reCd2oxoe8U6rrW1lbq9e3/KUenPvWjc+nm6uatXm1enPbWvX+Xm1w3uRvPi02mTXWJsmcJHOymXCrrMlcfHy8On36tDp9+rSKiIhQWVlZhtcSFRWl2rZta/ZYC9scXJxVz/Gj1ax/Vqn39mxW4+a8qZp062L2uIy9Obq5queW/aBCwkLVG1vXqGGvzjAMeOk6YmippzDJuzVs2FDNmDHDZJ/bwGaN1T3Tn1Jv/7vBMNrRxtZW3f/a82rOge0VUskoy1a3TStVp01LQ5JgjM3F06PEo0OL2uq1b6NCwkLV4Bm3JvAj33hFvbNro7J3clTWtjbq4U/nqrmHd6q+j4w3DKTxq1+3yJkNbt6c3N3U/zb8qV5c+YvyDPBXg6Y9YRiwMvfQDnXX1MdLlWD71A5S7+zaqB7/+pNyVSmd3N3Ue3s2q/tfez7f/slff6peW79c2Ts5qTHvzjR8zu58apKuO0LBg+BAGxWbt2qob2bOO00XaKOIn1j4ubr3+afLPCVPWTdJ5iSZk82EW2VN5ubPn59vv5OTk3r44YdVfHy8Ukqp8PBw5WTCIf/G2KxtbEpcZaism4Ozs2o3aIB64P3X1ZyD29XMTSvVxE9mq5Cw0HxTo5R2O3HihFJKqVmzZpk0fkc3VzVo2hMqJCxUTV2yQM09tEMNefEZs7+vFb09veRrNe2nb0t9Xos+PdTzf/6kJnz0nnr5r9/UK2uXKXsnx1uO0yd6r6z9XU39YUGh062UdtP3HdQncI9+EaL6PTqhzHMa6vt5lmcqHX2/v5tnKGjRp4cKCQtV7+zaqELCQtXdz05RoCV/b/+7IV+VzfD5dHVRQ154Rs05qM3e0GHwXcrFo4aa9NXHavaBbRbVn7qwZK6yrAAhhKgAaWlpLFy4kKSkJJYuXUrt2rUZNmwYP/74o7lDK1RuTg6Uc0ULS5eRmsrBNes5uGY9Wxf/zKi3XqNR5078/fnXbP3+J+0vcwuWnpTMmnnziT53gVFvvEJ6SgobSjjqsio5sGYdQ19+jk5DBrF3xZoSndOoc0fGf/A21y9dIahZEzz8a/L1E88WOJr//IHD/PjSLNrdNYD6HduyKuQzo4zoPr17H6tCPsOvfl02L1rC1fPh5bre7j9W0bJvL+559knCjxwrcPWjotjY2tJj7EhOhe7hyk2rnRzfupOz+w+SmZbOP9/+YFinOC0xiV2//UnP8aPx8KuZb8S5NrK3Dbt+X4FP7SDGvjuT1IRE7J2dWDn3k8qxuom5q2NSmZOtKmxVpTKn32xsbFRKSopSSqkPP/zQ7PGacjP1RLUmidnausCJXku7lacyV9b3Lbhl8xKvKlDWzfqmueIsZbOytlZPfPuZenf3pnwDPwrb6ndsp97dvUnN+GOJYQ41U06OW5Gbq7enennNb+rN7X8XO0L95q393QMMI0xLc55nLX+tafjpyYZ9LXp3zzcRtI2trRr5xitq6pIFRTbJmmsrrDJnjRDC5OrWrcuHH37IkSNHSEhIIC0tjXPnzrFo0SLatm1b5LmtW7fmhx9+ICIigvT0dCIiIvjqq6+oWbMm8+dra3du3rzZqPHm5ORw/fp1ABwdHfM95ubmxgsvvMCOHTuIiYkhIyODy5cvs3LlSu67775brrV//36UUsybN6/A5zp69ChKKT766KNbHrOysiIuLg6lFH369Mn3mJeXF++99x7Hjx8nNTWV+Ph4tm3bxkMPPVTg82zevBmlFPPnz6dGjRp8++23XLt2jdzcXNq0aVOCdwUCAwOZM2cOhw8fJiEhgYSEBI4ePcrHH3+c77gJEyaglCJNt15ww4YNWbhwoeF3GB4ezldffUVwcHChz2Vra8uUKVMIDQ0lISGBlJQUjhw5wsyZM3FxdiYjNbXA85ydnZk+fTrbt28nJiaG9PR0IiMjWb58Oe3atQMwfAE0bdoUgNdff92wL+9nadGiRSilWLt2LXZ2dnzwwQdcunQJpRT33ntvvuft1q0bP/zwA+fOnSM1NZXExESOHDnC7Nmz8ff3NxwXcfT4LZWYIUOGsHbtWq5du0ZaWhonTpzg1VdfxdbWlhMnTqCUYtasWfnOmTVrFkopTpw4AcDLL7/MhQsXyMnJYerUG2vKent789JLL7F9+3ZiY2PJzMwkOjqa5cuXc9tttxX4Hurfi1GjRuHt7c1nn33GxYsXSUlJ4fDhw0yYMMFwbO3atfn666+5ePEi6enpnDt3jnfffRcHB4dbr5uby0+vvEFOVjYPffw+wS2bF/j8AO3vGcjjC+YRf+UqX02aZpiz7+Y1qCur5NjrfDVpGjlZWTz+9Se41/Qt8bk9HxxN9LkLnNyxq1TPef3SFY5u3k7X4UOwdXDA2saGQc9M4er5cHb9vgKAnOxsls56l0/HTTLp2ttGZ+7qmFTmZKsKW1GVuYceekilpaUZjrl8+bKKiooy3M/OzlbPPPNMgdedOHFivkEJkZGRKiYmRiml1MWLF9Xy5cuVUkpt3ry5VPEWV5lzcnJSGRkZSimlXnjhBcP+jh07qsjISEM8169fV+Hh4YZjlVLql19+UbZ5OkS//vrrSimljh07dsvz1KlTx3DeiRMnbnm8Y8eOhufJe8127dqpy5cvG869cuVKvvf4l19+KfI1b9q0SeXk5KiIiAiVkpKi2rRpU+x7dscdd6jk5GSllFJZWVkqIiLCcF8ple/YCRMmKKWUSktLU927d1cJCQkqOztbRUREqLi4OMM5165dU61bt77luby8vNS///6b733W92NUSqmjR48qH59bV0Vo06aNunDhguG4xMREFRERobKzs5VSSk2bNk0BhkEv+t9bbGysYd+SJTdWkli0aJFSSqm1a9eqhQsXKqW0gTGJiYlqyJAhCrQq2BdffGF4zszMTHXx4kUVGxtr2BcbG6t69ep1S7xWVlbq66+/NhyXkZGhwsPDDe/r2rVr1alTp5RSt1YPZ82aZfjczJw5UymlVHR0tIqLizO8TkBdu3Yt3/ud93OTkZGh+vW7dbk7vaefflqdP39epaWl5TtPKaVmzJihmjdvrqKjo1V2draKjIw0vM9KKbVy5cpCP0tNbu+sXt/yl2GlnwFPPKLaDRqgmnbvotrfM1BN+vIjwyjJm1d3qWqbtkThJjV1yYIS9X3VT9dz2333lOn59NOZ3Pv802rwjKkqJCxUtep362fTUjclAyAkmZPNdJvezcncoEGDVE5OjlJKSzDq1KljeKxWrVpq8eLFhnMHD84/MWmXLl0Midyff/6pate+MfKvT58+6uLFi4ZzjZ3MTZ8+XSmlJZqNG2uju4KCgtTVq1eVUkodOHBAdelyY+Soi4uLev755w3xfvDBB4bH9AmZUkrVqpV/6aUpU6YopZThyzvv+wOoF198USml1K+//mrY5+fnZ/hiXbZsmQoO1qYEsLa2/j975x0eRdX24Xtme3pvhN47KoKgVEFQ+VQsWBE7KoqKDXvvBRX7q6KABSxYAKUpCEjvvYcS0nvZZMuc74/ZXRKSQEgPnPu65kp25syZM7uzO795zlPETTfd5Jsevvfee8s953379omDBw+Krl31CFCr1XrSIA9FUXzv95w5c0Rk5LE8fi1atBCvvFI65YFXzDmdTpGUlCT+97//iaioY+Wlhg0bJlJSUoQQusgtOS2oKIpYtGiREEKIzZs3i969e5e6Jvbu3SuEEGLmzJmljhkfH+/rc/v27eLCCy/0TYVaLBZx3XXXlbnGTjbN6hVzBw4cKCXIDAaDCPJM+73++uu+a+Xpp5/2rQfE2WefLVavXi2EECIzM1PEx5eeWnz00Ud918YLL7wgAgN14WI0GsXYsWNLCfSKxFxycrLIzMwU11xzzJk+NPRYyaWjR4+KJ554otSx27VrJ3bt2iWEEGLDhg0Vfp9zcnLEt99+6xtX8+bNxdq1a4UQulDeunWr2Lhxo2jZsqXve/Dtt9/69u/bt2+F15TFz09cdM/tYuLsmb5UKN7lqb9+EUPG3lrraVgaytJt6CDxzpYV4upnHxdmm1UoqipantVNXDz+bnHHJ++KibNnils/eMOXZmXEhPuqdbyHZnzte6/H/u+Dej//U1mEFHNSzMml9hYvJcWcoii+G8asWbMq3HfOnDlCCCG2bNlSar33hr5y5cpyfYA6d+4sHA6HEKLmxFxERIR49tlnff2++eabvm1ffPGFEEKIhIQEERwcXG6/jz32mBBCt3iUFG5Hjx4VQggxZsyYUu1nz54thBA+68zYsWNLbZ8/f74QQojRo0f71nmtQP/880+574vXSrN79+5yz1kIIYYPH35K71dUVJRv36FDh560vVfMCSHEt99+W26bK664wtdmxIhjVoZRo0YJIXQrU0xM2UTE/fv3F0II4Xa7SwmU6dOnCyGE2L9/fykxc6KlsmJOCCHuvvvuMttbtGjhu1Yqsi4HBwf7Pv8PP/zQt97f399nbXzrrbfK3feuu+7yHb8iMSeEEK+/XjZfnXcpKbxLLtdff71v/5JCG459nw8dOiTMxyUMLvlw4nQ6fQ873sVms4m8vDwhhBDPPvtspT4Ho8Uiolo2F826dRZNu3RqlH6c1V0ufehen8DyVrR5Y/2/YsLMb8TN77wiJs6eWSNCDnQhHdmimQhrElup2scNaRFSzEkxJ5faW7yUFHO9evXyrfdagcpbBg0a5GvXurXucBseHu5bd8UVV1S479y5c4UQVRdzJfPMeW+4QuhCoaSQMxgMIicnRwghxP33V5yg1s/PTxQWFgohhLj99tt96z///HMhhCg1hWe1WkVBQYHYuXOnGDBggBCitOg1m82ioKBAuFwuER4e7huHVwBUJMjOO+8833lER0eXOee9e/ee8uerqqrvBv3ll1+e1MG+pJjr2LFjhe28VrZ33nnHt84r7k8kULzvsfd6CwwM9ImqksL3ZEtlxVxeXl651kuveE9OTi41DX788sILLwghdHHkXXfllVcKIXRBVN6U8fHX3YnEnNc6eyrLwIEDffufddZZpbZ5Od7i6l2818Iff/xR7vZly5YJIYT44osvTnlcZ+qiKIroPPACceEdY8TIJx8WPYZdWKb03ankxztdFyFTk0gkdcvZZ58NQGZmJlu2bKmw3erVq33/d+zYkX379vn2Bfj3338r3PfQoUPVGmNwcDDBwcEAFBYWsnv3bhYvXswnn3zCxo0bfe3atm1LUFAQAEuWLKmwv8LCQrZt20bPnj3p2LGjb/3s2bO58847GTJkiG/doEGD8PPz4/fff2f58uXk5uYyePBgjEYjLpeLvn374ufnx3///UdGRgYA7dq18433448/xl1OShKj8djPWkxMDCkpKaW2b99+amkQADRN4+WXX+b111/ntttuo3///nz88cdMnTrVN7byKCoq8jnol8fOnTtp3bo1zZo1863r2VOvoT1mzBiuuuqqcvfznqM3sODcc8/FZDIBMHdu5VJenAoHDhzwBXOUxHud/vfff7hOUMjce403bdqUgIAA8vPzOeeccwDYsWMH6enp5e7ndrtJSkryXXvlkZuby+HDFRdvVxSFIUOGcOGFF9KpUydatWpFq1atsNlsvjZms7ncfffu3Vvu+qSkJNq2bVvhZ5uZmQnowSiSyiGEYNviZWxbvKzCNq7i4jocUeNCijmJpJYIDQ0Fjv2wV0RBQQEulwuj0UhgYCCgR+ABuFyuE+4vhKjWGD/99FPuueeek7bzngtwQvECkJ2dDeA7F4AFCxZgt9uJjo6mW7dubN68mUsvvRSA3377DZfLxaJFixg5ciTnn38+S5Ys4cILLwR0IVjeOFq2bHnScR8fiQv6jbgqvPHGG+zdu5eXX36ZDh068O677/Laa6/x9ddf8/TTT5crSIqKyuYCK0lOTg5QWoB6z7FkBGhFeM8vKioK0K+Xk30+VaGi98w71speE6BfF/n5+b5rPDU1tYK9dE52jScnJ1e4rVmzZsyaNcsnOnNzc9m1axd//PEHWVlZjB079oR9F1YQMex9iCgoKD//mHe7oign7F8iqSlkahKJpJbIz88HICQk5ITt/Pz8fDdzbzoQ783AaDSWEjDHU9K6UJt4zwVOfj5ey5n3XEBPRuxNeTF06FAALrnkEtLS0vjvv/8A+OuvvwAYPnw4QLliruQ4WrZsiaIoJ1xWrVpVZnyaplXupMvh559/pmPHjlx00UX89NNPGI1Gxo4dy5o1a8q1Hp3sZh4bGwtQSgh6z/HWW2896fm98cYbABR7LBZGo7FWromK3rPKXuPeawLKXuORkSdOSXGy8znR5/njjz9y9tlns2HDBnr16kVISAi9evXi2muv9b13EsnpgBRzEkktsXXrVgAiIiJ8+bzKo2Suq/Xr1wOQkJDgW3eiHGglp2Nrkz179visTP369auwnc1mo3PnzoCeX64kf/zxB6CLuY4dO9KyZUvmzJnjs7z8+eefgC7mAgMDOffcczl48GCpKep9+/b5pvO6du1aQ2d36ixYsIBrrrmGfv36UVhYSIsWLcq18gQGBlYoxm02m29K1fu5A+zevRs4tfPbuXOn7//+/ftXer/q4r3G+/Tpg6pWfDvxXuPbt2/3XUfea7xNmzYVTkdGREScMBffiWjTpo3vuOPGjWPNmjWlrHxt2rSpUr8SSUNEijmJpJZYtmwZiYmJALz44osVtnv44YcBXSB4p5w2bNjgs9Y89dRT5e532WWX1ZmgKSoq8omxRx55hICAgHLb3Xvvvfj5+ZGRkeETZ168FrZ+/fr5Es7+9ttvvu2HDx9m+/bt9OjRg1GjRmE0GpkzZ06pPgoKCnw+ew8//PAJLV8V+UHVJCtWrGDTpk2Anhj6eFRVZfz48eXuO378eAIDA3E4HMyaNcu33vs+3Xzzzb7p0/IoeX47duxg27ZtgJ5Mt+S07YnwThOGhYVVqv3x/Pjjj2iaRpMmTbj77rvLbRMUFMQdd9wBUKos3MKFCwHdMv3QQw+Vu++TTz55QpF4Ikpa/EpO83q58847q9SvRNIgKS8q4kxZZDSrXGpq8XJ8nrkbbrjBt23atGmlou5iY2N90YIFBQVlIl6ffPJJ374fffSRLx2IwWAQN910k8jNzfUlEK7pPHPlLe3atRO5ublCCCHWrFkjzj33XN82Pz8/MWHCBF9E5R133FFuHxs2bBBCCLFp0yZRWFgo/I4rSfX2228LIYQvl9fFF19cpo8BAwb4cvf9+uuvpVJDmEwmMXjwYDF37lwxbNiwap+zd2nWrJmYOXOm6NOnT6lI1mHDhpUbvVsymtXlconHH39cWK16YXSr1SoefPBBX06+49NyhIeHl8pBN2DAgFKpKrp27So++ugj8eKLL5bab/jw4b73ZdGiRaUSIdtsNjFmzJhSudgA8eOPPwoh9Dxy3hQe3shhKJ00uKL3xhup7HA4xMSJE3052QDRo0cPsXLlSiGEntzX3790wXJv6pmioiJx1113+SJiAwMDxWuvvSaKiopOGs1aXrJp0NPJeJP4/vLLL77vT1BQkHj//fd917IQolQuvxN9n73LyaKAvcm8v//++1O+1uQilxMtQqYmkWJOLrW3nOjH/5FHHimVGT4xMVEkJib6brzZ2dllhAfoou3333/37edwOMTBgwd9aRGmTJkiPvnkEyGEEH///fcpjbeqwmbw4MGlKhhkZGSUqgDhdrvFE088UeH+L774om/f2bNnl9k+ZMgQ3/b8/HxhqSAVwX333VfqPU1NTRUJCQmlksz279+/Rs4ZSleqyM/PFwcOHBBZWVm+dXPnzhWGEvmqSlaAeOutt4QQQhQWFoqEhASf+BNCiN9++61MHjNAnH/++aXe55ycHHHgwAGfsBFCiGeeeabMfnfddZdPUHs/n4SEBN/nU7IyAuhVLbwUFxeLI0eOiEWLFvm2V0bMmc1mMXPmzDLXqfdBQwhdlHoT65Zc4uLifBUevO+t93pyuVzi9ttv9wmn43O2nUzMAeLDDz8sdX7e711BQYG48cYbfdukmJNLY1lEBWJOEUJwBpMGHKzlY0QA5cfdS+qTmv5czvH83Q9klbPdBkQDgYAJ/YtZDOQAKUDFeR0gEn283tBMO/q1mwG0AMI9/ZSfR6F82gMBnn5ONb+JEf1cggELoABOIA/9XE5UPNIP8OYsOUjZzyACaIruAnKyc/Lj2HtqRH9PHUAB+nkdH2pYnXNWgCggFP2cDejnXOTpL/u49uHon40A1nteR6F/hgL9PUpH/wwrwsSx99nsGYPLc16ZlH+d4TlGNBDk6UNDf1+ygVTKXmthQIznvIRnXEc821p4xl4EbDvBWAFCPG0D0N8fzXOeWejvUUU3G4Pn+KGe83R7zjEZyAe6etYfQb++vMQBsZUYWwT6d8j73ucBRz3H8fop7KT09XKy73NnT39Jnr6OpzX6+5Hl6aO2kPeXhkdtfybN0a/nUpzpYq4uWAv0rO9BSMpwunwuC4AhwBTgtnoeS01wunwut6B/JsUcE+GNmfr6XIxALvrD0Bhgaj2MoSFzunxfTifq5TORARASSeMlADjP8//a+hyIRFJLnI8u5EBe4xJJhUgxJ5E0XEwn2f4kuqBzArNqfzgSSY1zomvcCLzk+X8rcOqlOySSMwQp5mqfz+t7AJJyaQyfyz3Aj+jTqJYS61sBHwNPeF6/i+67czrQGD6XM5Ha+ly+Rr9+e6D7BIJ+X+qN7kLQD93P7fFaOn5jR35fGh718plInzmJpOHyIDDJ878T3YncD92x2suXwN2cOIBCUvfcwunlM1db/Apc7vm/ED1gIBT9Ogf9ur8PKVokkhNyRou5tLR0cfBgbQezgjXAn4jm8aQdOERx4YkC/SQVokBIdBQmq4X0Q4mISpRkMlsthDdtgsFswmkvIic1naL88mspAqgGA3HtW+OwF+N2OlFUFZPFjGo0kLIvAZfDWWafoMhwgqIiyEvPxFVcjBAC1WjEaDJh8bNhslnJz8giOzmV0LgY/EOCKMovRHO79JByTQ8rL8jK9vWvqCqBEWGYzWb8rTYCbDZMJhMGRUEAmhAUOYpJPHiIvLz8MmOqCcw2K0azPgMm9IB43E4XjpPUGm0oeD+X/MwsAsJCyU5KJT9TD0qMaBaPNdAfoQnSEg7hsNf8OYWHh9OyZQs0TWP9+g3V7k9RFaJaNseel09u6skD5az+fkQ0i8dRXEz6wcNo7mPfF9VgIDgqAv/QEM8aAd7ky0KQk5qB0WTEPyyE4vxCctPSKbbbS8WiGkxGrP7+qEYDQtPQNA3h1nC7XKf0flqtFsLDwwkKDsZsMmEwGNA0jeJiB3l5eaSmpuJwOCrc32gyoRhUhBAYjEZ9DG4Xbpfbc+GWs4/ZjKqqWAL8CY4K189dCLJT0sjPzK5wP4CAsBBCYqN975WzqBi3y4U9Lx9HoR2X01X2t0mBwLBQ/EOC0TT9u6653SXzgyE83y+3p7oJChhNZgLDQ/EPDT72+QAIEEJDKZlMWUBRfgEWfz8UtZxE2gJy0zPKXDsGk5Gols0xmI4lmdZcblSjAUeBndSEioO+VaOB4MgIbIEBFBfayUlNK/c38nTEaDHjPu6ztgUGEBYfB0KgaZrvPXUVO3DY7fgFB+F2uSnIyqYgK+fYZ10Ci5+NyBZNcTldIARGy7HE4G6HE7fTRbOIyHRkNGtp1q5dJ84997yTN6wm/qEhvPjvH/zxzscs/vr7Wj9eQyK2XWtSDxzC7azal1w1GLjonls46+IhRDSLR3O72bl8Ncu++wmAsCZxNO/WiYCwEPauWs+e1euJbN6U1j170PuqEeSlZ7Dsu1847+r/I6JZPPmZ2STt3sfyGbMIi4tBURT2rtnAke276DPqCq5+5mHevuoWknbvAyA4OpJHf/mGjCNJ/Pr6exzYsAWDyUTTTu0565IhXHDDVayfM59vJ75U7vj/75FxDBxzHf/N+JXzrv4/ln77E7+/9eGpvw9GAxFN4zGaTcR3as/Vzz7ClkX/Mu2R56r0vp6IERPuZdCt15e77bO7JrB7xZoaP2ZNEhwdycQ/vmP7kuVMe/R57v7fe8S1b83XE56h6+B+9B89ikVfTOe8q0awb+1GvpnwTKX7jmvfhu4XDeLg5m1sX/Kfb33H/n3xCw5kw58LueLxB9ixdCU7/j22vf/oUXTq35ectHR+eOoVTvV39+rnHqXP1ZeRmZjEK8NHAdB54PlENm/K4W072bd2I6rRQKf+fWnVswd9rr6MtIOH+eT2B7Dn5pXbZ3h8HD0vG45iUHEUFgGC5t0602WwXq7t7y+nM/f9z095rI2JgPBQ2vU5l5S9B0jcuadS+0S2aIrRbCbj8FEc9tp/OA+JiaLDBb3R3Bqa201oXAwBoSEc2rIDza2L5+S9B8g4chRrYADt+55LeHwcxYV2tiz6F1exg8sevY9zL7+YKQ88yda/lwJgMJkYN2Uy0a1bsPDzqRRk57BvzQYyjhxl4Jjr+L9HxvHWlWNI3lM2s4pqMHD/9E+Ia9+GXctW0frcs0jZf5DJo++p1IN2YyWsSSyj33qeZl074SwupjAnD4PRyMqffmfQrTeQuHM3X4x7nIKsbKwB/nQbOpBeIy+lebdOrJs9n8DwMDpc0BuAtITDLPpiGmt+0yvlKIrCk3/NxFXs4IObxmLPzSembSuade6APb+ArX8vRWgaQjjXUU60rBRzdSDmAJ78cwZHtu9i6sPP1snxapO2551Duz7n4na5WPLND9hzy7cOxbZrzSM/f82WRf/yzUNPV+mm0GVwP259/1X2rl7P0m9/IjgqgiufmlCqTU5qOvbcPGLatPStc7tcrJ41hznvfYY9V//C9Rp5KXEd2tBpQF9Coo+VScrLyOTFIVdy71eTsQb48faVt5QZw6gXHsc/JJiFn0+l/QW9adqpPQD/Tv+ROZM+xVWB9UA1GrjxtWfodtEgivMLeO3S6ynIzjnl9+F4Bt9+E5c+OJY/3vmYZd/9XOb4iqLQ8uxuGExGDm/bRdFxFjxbUADdLxrEvrUbSUs4XGrb479PJy8zi59ffAe3243BYMBgMnLLe69QlF/ApGvvaNA/2KNeeJxzRlzE6/93I1lHk4lu3YI7P3mbUI9F5b+Zv/LzS+9w6YNjGXjL9bwyfBTZyanl9mWyWrjwjpuIa9+W8Pg43zWmud388c7HbJi7kG4XDeSKiQ+AECz97mcGjB6FpmnMenUS/834la5DBnDLpJfJOHKU8Pg4/nfPI+xctqrS59O6Zw/unTKZlP0JRLdqwZtXjCYnJY2Xls1B9ViyVsz8lS6D+hEcHYnDXsSBDZv5duJLFGRln9J7p6gql4y/k7zMbP6dOuOU9pU0XFSDgQk/fonF35/JN92Ns9jB6Defp/35vfhmwjNsXrC4VHu/4CCe+3sWy2f8yu9vTi7Tn/f3Z+ojz7Jp3j+cPeIibnztGf6b8Stph46Ql57Btn+W14nYrQ06XNCbC264iiYd2pFx5CjfPfESmYlJ3PHJW7To3oV5H39FaFwMfkGBRLVsTvNunTi8bSef3vFgubM/iqr6fjPD4+PodtFAug7uT/PunVnx42/89OLbtDqnO+O+/pDpjz3Phj8XVTg2KebKoS7F3E1vPk/z7p15Zdg1dXK82iAoKoLRbz5Pq3O643I4UI1GNv65sEKr1OWP3U//0boVYfOCxWz4axGb5y+usH9rYADdhw5k7R/zfJa8Wz94laadO/LyRVejud0ARLVshjVQrw1akJVDxmG9/ml8p/aENYkl9cBB0g8lViiwjBYzLc/qStKe/bTo3oVb33+VBZ9/w9C7xjD73U/4Z8p3ZfYxWS1c/cwj9LxsOM7iYn55+V32rtlAZmLl4g6CIsMxmExkHU2uVPuToagqd336tk9UF2Tl8O3EF9m7ej2hcTHc9enbRLVsDkDGkaO8ecVoVNWAw26nRY+u3P7h6/gFB+FyOPjllUms+kWvBxoSHcUzC3/mtzcn8++0maWO2WP4hYx+63m+feIl1s+eXyPnUdNEtWzOo7O+KWMBtQYG0GvkpRzatI2ETXpx+NC4GJ78cwbblyzn+ydfIbJFM65+5hE2L1jMoi+m0aRjO25+50UimjYhceceCrJz2LxgCTuW/MfVzz1Cx359fP3vWbmO+M7tsQUGcHDzdgqysmnftxc/PPMqI594kPRDR/j4tvFMnP0daQcO8+mdD5Y7/lbndGfIXTcT3rQJ/06byX8/zGL8d58RGB7GJ7c/wJNzf2D2u59wdPde7vr0HaY88CS9r/o/OvXvw4ENW/j7y+nsXLbK912RSLy0Oqc7d3/xHgZP3V7N7Wbm82+y5te55bYf/fYLtDuvJ9Mfe4HC3DwyDidSmJNL76v+j6ufeZgti/4tZZy4bfLrdB54vu/1ke27+WLcY+SlZ+gPHdW4JkOio/APDcZZXEz6ocRy+zIYjfS6cgQ7l62s8Hc2ICyEfjeNwmg2kZ2UwtHd+9i35pgbRMuzu3HpA2NpeXY3clLS2L1yLd2GDmD3irWs/f0vbn3/1TK/jarRQPeLBrFz2coKDRvloagqlz54N4NuvZ7f3pxMRLN4el42nOcHXnZCVwUp5sqhLsVc/5uv5fJH7+OFwVeQm3aipO8Nh8G330SHC3pzeNtOlk7/kQe++xyzn40/3v6QNb/9xYW338iwcbez67/VqAYDmYlJ/Pr6+zjsRRiMRp5dNIt9azeQlZTCuZdfjH9IMF/dP5Fti5eXe7xRzz9O76tGsGv5aqY99hwGk4lnF/7CkqkzmDPp01o5R9Vg4JkFPxMUGU5eRiavXXJdhX6Niqoy6NbrObhpG/vWbqyV8ZwKiqrS5tyzaN3rLM6+ZChup4u3r7qFOz95i6adO/Dzy+9gNJm49qUnWP7DLM4ZcRGb5v9D0y4dsfjZmPHMawwZO4ZWZ3fjnatvI/XAQc694hKue+mJCqdXHvnla4Ay1sv6IDg6kuKCwlJPwmMmvUy783ry6sXXVsoCOvCW67nkgbt8N7jiQjsWPxsHN20jrkMb8jOz+e6Jl9i/blOp/RRFoXn3LrTo0YXEHbvZt3Yjg267gUvG38WndzxI4s49PPbbNALDw8hOSeXjW+4n48hRBt16AyMm3MO2f5aRk5pOwqatrPtjHj2GX0jb3udw7hUXk5OaTl5aBs27dyZpz35i27biuydfZt0f85jw41cUFRSwf90mBt92I0/3vQSX00FM65Yc3XUqBUAkZyJRLZvRZXB/QLBn5ToOb9tZYdvYdq25bfLrhMXFAFCQlc3+9ZvpemF/dixdwdSHny0jOvyCg9A0jTbnnsUNrz1NdnIqf3/5LVc+NYE/J/+PpdN/5KyLL+Sie27l64eeJmVfgm9f1WggMDwMe24+Drud8KZNaHdeT86/fiSxbVv72i399id+ff39Use1BQVw6/uv0bpnD4ryC/j+qVd808klz2fc1x9itllxO12YbXpc0i+vvMvyH2Zx2aP3MeDma8lJTWf+p1NYPWsOmsvts0K6XS5S9h9k0rW3o7lq5mFJURRufvclug0ZgMvhYMuipUx/7PkT7iPFXDnUpZiLaduKR3/5hp9efJsVP/5WJ8esDl0v7M8t773imxrKTk7BGhDA5NH3kLz3AKA/Cd3+0RsERoTjtBfRvHtnfnjmNdb8OpfOgy7gtg9e43/3PsrOpSsxGI088P3nBEaEMXn0PWQeKW3RimnTkod/msKhLdtp1rUTbqeL4kI7AWEhvHn5aFL2J9TauV760N0Mvu1GZj7/Jqt+/qPWjlObdOzXhzs+fpPUAweJatm81LmM+/pDnzXVaNYdar9+6Gm2LFxCQHgoj/82nczEZP7+ajrnXnEJTTq05YVBV5R7nJ6XDef6V57i87sfZtfy1dUac0B4KBffdyc9hg9m+mMvsGPpikrvG9G8KQ9+/zm5ael8cNM9FOXl06xbJx749jP+/PALFn72TaX7iu/Ujk79+6JpGv/N+JVBt91Am3PP4uiufcz94PNKT1Uqqkpcu9Y+36v25/diwOhr+fHFt3yWArPNyogJ99C2d08CwkPxCwpk1c+z6X3VCApz89i5dAU/vfQODnsRF919C827dyZ5XwJ/vP0RQtMYctfNXHz/nWQcOUpBdg7vX39Xpc9TIjlVjGYzXS/sh9vtZvBtNxLbthV/f/ktCz+fWq4Df0la9+zB2M8nYTAZKS4sxOLnx4ENW2h5ll5Bbdvi5Xx1/0QAwps24b6pHxEUEY7DXkT64UTi2ukCLmnPflb+9DvZyan0GnkpbXqdzYtDrizlOnLj67oryx9vf8Q5Iy4iunVL3h11OxmHE2nauQMZhxMZ9eLjtDq7Ox/cdDdpCYfxDw3h2hcep0O/80jZf5C4dq1Z9v3PzH73E5xFxaXeg3u/+oC0Q0eY9dp7ZVxWauI9HjbuNvqPHsUX9z7KnpXrTtheirlyqEsxB7ovUk5KeoVTLDVBaFwMN7/9AnHt24CiUFxQSE5KGn+88xG7V5RNoB4SE8XF4++ix7BBuF1uNi9YzPxPpnD7h2+gGlTevvIW7vzkbdqedw7fPfEy62bPq/DYT8z5nsyjyXx250OMmHAv/W68iid7D/N96WPbtea+qR9jMBj466MvWfLNDz4/utFvPU/7vr145eJrCY2NpveVIzD72diycEkpR/PawC84iLMuGcJ/M35t0L5gJ+PqZx8htl1r9qxcy18ffulb36JHV659cSLfP/0K5187EpPVytSHjzn9dx0ygGtfeBxbUCAAq3+dy4xnXiv3GAajkSf/mkHq/oN8dteEcttUBrPNyn3ffERUq+YU5uShKApvXjG6Qmf9kgRGhDP283cJjorA7Gcjafc+Nv65iHMuG05geCivXnxdo/DVMZhMPPjD/4hr15o9q9bx2V0TTnr9+QUH8dS8H7H6+7Fk2sxy/ZkkktpANRiw+PtV6jvq5axLhnD2pRcx87k3uOjuW4hu04KjO/diz83jontu5a+PviTjyFEGjL6WsCYxzH3/c+I6tCG2TSs2L/qXnUtXkHrgWERtk47tmDDzy1JTne36nMvYz99l/idTmPfxVwRFRfDoL9947jsKgeGh5GVkERgeyl8ffcmCT7/29Wfxs3HFxAcIjo5k1/LVLKlHP9HKTkU3ZjEXjF4I+kBNd1zXYm74/Xdw4e038fygK07ZMbmy/N8j47jghqtY9u1PaG43Zj8b7c7rSVTL5iz77mfmvPeZ70anKArjv/2U6NYtWTd7Hqpq4NzLL/aFVH/z8DNsnr8Ya2AAzbt1OqklZti42xly1828NORKbnj1GSwBfmUsB8HRkVwx8QG6DRnA5oVLmPboc5htNp7/51dW/Pg7v73xQa28L5IToxoNNGnfFqPZROLOvScUQxfeOZpLxt/FayNuIP3g4QrbVYR3aqHLoAs8PjWZPPj9/9g472++e6K0/6XJauHsS4YS2641+9ZuxBbgz4gJ92CyWvnq/onYggP5vwn3EtYklryMLH555d0yztwNmaiWzRh8+03MmfQpeRmZldrHa0n2WlclksaG2Wblge8+PxZQpGlMGf9EpR7c7/vmIwLCQnn9/27gssfu54LrriTzaBJvX3mLz0+6be9z6D96FPlZ2SRs3MqFd9yELSiQV4aPqnHLWl1TkZjz5bppAMsEIcQeIcQBIcQ4IUQLIcR8IUShEOLpEu38hRDfCiH2CiFWCSHaedafJYRY6lm/QQjR/WTHXLNmrQBjnS2x7dqLd7asEH2uuapW+lcNFvHcP7PFmEmvl1pvtPiJyx57SLyzZYV4a+My8dCMb0S7Pn3EwDE3iXe2rBBnj7jE1za6dRvRZ9TVosfwYad8/MgWLcU7W1aIATffKF5aPl9c9czjFbbtf/ON4p0tK8SoF54Sva8aKd7ZskI07dK1Tj8PuVRtCQyPEm+s/1dc9uiDVdp/+P13i3e2rBD9brret+6ie+4U72xZIboNHeJbZzT7ibv/96F4Z8sK8ca6JeKdLSvEO1tWiPun/09EtWxVZkz1/b7U1WILChHD7r1LGC1+9T4WucilqouimIQtKFRENGshQqLjKr1f7yuv0O+jo64W72xZIa5/9fmTfv8t/kGndIyGvAgh1panZxqKZa4FsBjojJ4tfT/QCWgGDEfPAv6yp+0L6BnwHwAu8/y9EBgG7AISgJuB0cDQEx20ri1zAI/+Og17Ti4fjhlX7naD0Uh40zhy0zMrfIIw22yYLGYUg4pqMKCqKqrRQLvzenLNc4/x1fgn2PbPsjL7Ne/emQ7n9+bsERcR0bQJAHtXr+eT2x+osfN78If/ERQRTnB05El90IaNu52L7r4Fl9NJVmIyr//fDTU2DkntctObz9N54Pls+2cZs15/v9KW5mZdO/HAd5+x8qc/+PGFN33rvT6VTTq0paigkKyjyQSEhRIYHsoPT7/Kutnz6di/Dy6Ho9q+ehKJpPHiHxLMc//8iuZyo2kaLwy6/IxKxl+RZc5YTtv6wJtRVkMfUx6QCiSii7SS9ATe8/z/OzANvVhzSWeu9egir8Gx7o+/uPTBuwmPjyPjyNFS21qfexa3TX4dq78fmtvNxr8W8d0TL/v8yroOGcCo5x/DLziowv7zMjLZuXRludsObtrGwU3b+Purb+kxbDCFuXnsWVnWj646rJ+zgMsfux+AxB27Tth23kdfknE4kWH33sZSTxJgSeNgzqRPEJqbHhcPITXhEPM/mVKp/S4efyd5GZn8dpyvl9vl4vO7H6bHsMGEN21CWJMYDm/dwdZ/lvkeTMp7QJFIJGcWBdk57F21nvbn92LNb3+eUULuRDQUMZcIPA+sRC+yfAPHBN7xbANGAgvRizAHAuFAycQyo4GK1MFdnoWIiIhqDvvUWT97ARePv4u+141k9jsfI4TAPzSEmDYtGf3WC+SmpjHri+k07dKBC66/iqQ9B9jw50L8Q4K49sWJZB45yt9ffespI+NGaG7fE0phTi6JO/ecNMrIWVTsyzpd02z4cxH/9/C9aJpG0p4DJ22/9ve/WPv7X7UyFkntkZWUwrcTXyI0LpZOA89n/idTsPjZuPzx8bQ9ryd/f/ktK2b+Wmqf1j170O68nvz6xgfl+uTlZ2Sx7Luf6+gMJBJJY2XDnwtpf34vVs+aU99DaTA0FDEXhC7gHgBaAo8A/1F+8fBXgM+ArcAcdBFX0nN4JNAHfeq1PD73LKSnp9f5HHN2Sirb/lnGwDHXcdbwC3G73b48PkUFhXx861OkHjjI2t//IiginEsfHMulD47Vt+cX8PVDT1c6UW19kJeewc5lq7AG+Fe5hJek8bB9yXIuffBugqIiaN6tM72vHIGzqJhuQweUEXMDb7mevIxMVsxs+Kl5JBJJw2Xt739xdPc+Enfsru+hNBgaipi7CdiM7je3GF2QDQXKMx/lANd5/o8GLge8qf6HARM55mfXIJn6yLOcNXwIHS7ohRDw3w+zSNqzj8Qde0pFtP3wzGvsXbMBZ1ExiqpycNPWBi3kvEx79LnSRaAlpy3bFutirlP/PoTGxuB2udjw50K6DhmAoig+F4GIZvF0GtCXeR9/VWFlDolEIqkMQggp5I6joYi5IqAHuu+bFWgHZFXQNhAoQJ+OfRPwlgYYjB4ccekJ9m0QaC4362bPO2HONoDigkKWf/9LHY2q5jhRKRLJ6UXKvgQyjhyl04DzUY0GUvYlsH/dJnqNvJTIFs1IPXAQgP6jr8HldEqrnEQikdQCDcV8Mh19unQ/sA49qCEH2AuMBx7y/N8WPQBiH3AQyAa8ick+R4+KXelp+2NdDV4iOZPZtng57c7rSbMuHTmyfReHtuwAoFnXjgA07dKRPtdczupf5lQ6l5pEIpFIKk9Dscw50Kdaj6dNOev2oPvVVaatRCKpZXb8+x/9b7oGk9XCkR27ST1wkKL8App17cj6uQu49sWJ5KalM+e92qmvK5FIJGc6DcUyJ5FIGin71mz0FbtP3L4bIQSHt+6kbe9zGDjmOmLbtuKXVyb52kgkEomkZpFiTiKRVAu3y8Wu/1ajud0c3b0XgP9+/JWI5k259MG72blsFdsWL6/nUUokEsnpS0OZZpVIJI2YPyf/jy2L/vUFv2yev5gf/d5gyNgxZRIESyQSiaRmaSjlvOqF+ijnJZFIJBKJRFIVKirnJadZJRKJRCKRSBoxUsxJJBKJRCKRNGKkmJNIJBKJRCJpxEgxJ5FIJBKJRNKIkWJOIpFIJBKJpBEjxZxEIpFIJBJJI0aKOYlEIpFIJJJGjBRzEolEIpFIJI0YKeYkEolEIpFIGjFSzEkkEolEIpE0YqSYk0gkEolEImnESDEnkUgkEolE0oiRYk4ikUgkEomkESPFnEQikUgkEkkjpiGJOTOwHfjC8/oB4BCwC7jYs84f+BbYC6wC2pXY/wJgM5AATKr94UokEolEIpHUP8b6HkAJnkQXYgCtgXFAZ6ApsBBoDjwGpANtgMuAT4ALgVBgGnAFsAmw1d2wJRKJRCKRSOqPhmKZ6wicC8z0vB7p+T8P3VqXAJwD9ARme9r87nltAm4DpqMLOQB7XQxaIpFIJBKJpL5pCGJOAT5An1b10hQ4WOL1ESAW2IYu9BSgPxAIhAM9AD9gHbqgG3qC490FrAXWRkRE1MgJSCQSiUQikdQXDUHM3Q0sRveD82IGtBKvNcANvAKEAVuBEUAykAlEoU+19gLuRJ9yrejcPke36PVMT0+vqXOQSCQSiUQiqRcags/caHQL2zXoQs0f3VLXpESbeOAwkANc51kXDVwOOIBU9OlXN7Dasy4cSKv94UskEolEIpHUHw3BMtcX6Io+VfosMAtdmF2HPnXaCV3kbUQXfSq6CH0T+NTTx5/A1ejTr2ejizkp5CQSiUQikZz2NATLXHmsQw9o2AYUAXcAAn169Cv0adif0C14ADOA84A9QC5wYx2PVyKRSCQSiaReUIQQ9T2GemPt2nXi3HPPq+9hSCQSiUQikZwUIZzr0A1bpWgI06wSiUQikUgkkioixZxEIpFIJBJJI0aKOYlEIpFIJJJGjBRzEolEIpFIJI0YKeYkEolEIpFIGjFSzEkkEolEIpE0YqSYk0gkEolEImnENNSkwRKJRCI5A7Fa4gAwGwNxuPIoKj5azyOqOopiBOHW/1etmIzBGFQzAEWONKzmSIKtTQFwanayC/fjcmXX13AljRgp5iQSiUTSYPCKt6Lieh5IDSCE69j/mp1ih73U9sKiQxQWHarrYUlOQ+Q0q0QikUgkEkkjRoo5iUQikUgkkkaMFHMSiUQikUgkjRgp5iQSiUQikUgaMVLMSSQSiUQikTRiZDTraYLB4I/bXQAcC+1XUCl2ZqBp9hPtKpFIJNVCVUxowonJGAaA2RSEvzma1JxV9TwyieTMQIq50wSvkAMadV4miUTS+NCEEwCnK9P3t8CeUI8jkkjOLOQ0q0QikUgkEkkjpqGIOSvwObAbOAg85Fn/AHAI2AVcfNw+bQE7cJPndQgwG9gLrAM61eqIzxBiQ85nWMgjxIcMJD5kYH0PRyKRSCQSyXE0lGlWf2AeMBYIB7YB64FxQGegKbAQaA44Pft8AKwo0ccD6KJvhKef54Br62DspzVJ2ctJYnl9D0MikUgkEkkFNBTLXAbwMyCAdOAw0B+YCeQB24EE4BxP+9uB5ehWOy/Fnv1Bt/Sl1PagJRKJRCKRSOqbhmKZK0kXdDEWAWwtsf4IEAtEA7cCg9GnZr28jy7+FgFu4JoK+r/LsxAREVGT465zvBFkEolEUheEBXYFoKnxbHJIJtW+A6BK9UXbh11ND0M7n0Uhz+VinVhOUracCZBITpWGJuYigGnoYu02QCuxTUMXae8BEwHHcfte4Fn3CPAscCUwpZxjfO5ZSE9PF+VsbzRIISeRSOqSzLwt+l+2VLuvXZk/savavUgkEmhYYi4UPYDhSWANesBDkxLb44E09OnXjp51zYBBQCLwCroA3AXcD+ygfDEnkTRIjMYQ/CzRAASYotGEk5TcNaiqHwD9Am7DTzGRSR4A6WoSezN/8+3fK2QsfsJGjpoDQDYpHMiai9USx2DbjQAIBHvVfRzM060fDmcqcSH96U4vAIqFGw3BGsevvtQSXUNH05I48jX9+Wm14zfy7fsxm6IAGBF0GyFmI+lF+sPFBtZS4EqlleE8Whh063eIxUCeU+PPwp8ByC3YRavQEXShs/5aK2adcw55hXt85xPo15ZoaycUj+3mQO4/uFzZvu02SzwCTabikaAqJkA+4ErOXBQhGoRxKgiYC7yOLuhA94+bBvQEWgA/oQdDlBzw1+iBEdOBfz2vvwKGApOBDic66Nq168S5555XM2cgkUgkEolEUosI4VyHrotK0VAsc+OBs9CnUN/zrLsIXaRtA4qAOygt5I7nQeBL4CkgE32qVlIJ/G0tKkzwOSL0MXqEWTlc4AZgetp7pRIUV4UAWyssxiDMBn/cwgXgyxTfNPRCAAKJZG/+3zicqdU6lkQikVSG2JDzAfBXI0i2byHfvr/S+/pZmxFkaUJyzoqTN5ZIaoGGYpmrF6RlTiKR1ARmUxTn+o3CT7EAkEcBBUoBYVooAMGqDYOiUKzpD0VZogCn4iRbTcXtmRo0KCZsIsjX5/bcX6r94CSRSE4vGrplTiKRSBotDmcqy3M+rO9hSCSSMxQp5iQSSb1hMPgDVMkCpaAAelCHpG7wfl7tgi6liRZPmpoBwObsbxEelwkARTECGkJoBPq1BaDYmSPdJiSSWkKKOYlEUm9UZxpRiri6x/t57ciayY4TtCsp7EpGKNc0qmpD0+y11r9E0lhoKBUgJBKJRCI5JaSQk0h0pJiTSCQSiUQiacTIadYGQnzIQIyeSLgmWluCFCs7lC0kZM2r55Gd3jQNvZBAItme9UN9D0UiqVdCA/QEzucYhtEp2B+T51Hf7oI8p8YK59ZSSaolEknDQaYmkalJJLWAwRCE251b38OQSCQSyWmETE0iqZDQgM7EmPSn8p7mthgUhRyH7sC8UltaqvD1OSG3E69GsF6sBeBw1iJU1cLoqEcwq3p04QL7mkZjUbRZ4rEXH6nxft3uXFRVt7RqWjFmUxQxAd3JKk4AoLA4BX9rLIXFKQBE+HckQm1FuBYOQKBqJV3ksi5/Jm0DLwLgoqC2tA4QBBr1B7A0h8oXKcfc0O+P60BLPwcmVS9pfKDAyneHcokzB3CJpzBehMWJSyjsydfHNnHPJ9wRfQ/DY/VSXUEmJ5kOE7MTTewozATghvgwWvg7sLsNAKxMN/LuwZc4P/g+AIZGhRFu1nAK/fPfmiXYbE8hTgmja5h+nCirINmuMC3zXwCOZC8mPLAHJtUGQG5xIn7mCNJz15d5L80mvSSYw5leZluArVW5yV1LvveS05eJrZ7hivhcogP0wAwhIMtuI6PIQnqxXuIrtdjIzlzIKdZz/JkNCsFmlUCTfr12DXbyT4qBzxJfrp+TqAcig3rS2zCY8yL170mYWZDhUChy6++JzSA4Ugh2l/5b0jzAQL5TkOvUf3s2F6aRqSZzttqJIrfeZnbOB9KHsR6RljlpmZNIJBKJRNIIkJa50wCTMQynK7Pcbb1CxhJOIFnks9O5BICC4hTO87+Rca0DAGgflMfhAn/mJpkB2JSXQc+gcGbnr+NA1twaHevA4Ae5v60VgI6h2dhMLhT12IODqggUzwKgaSrFDiN2p/40bTG6cLgNrEzTM+h/cPgQW7Km1egYJRJJ5Tkv5G4SxCaAMmWrYoL7EKG24qhrMwAGxUJa7to6H2NVOCv0VsbExtM6QLfihpqdGBQNRQG1RPobDQWHW3ckdGgGCl0GnxXcZnCTXGThm/1O/sx+u9bG2ix0KMn5G8q1UkcEnQ1AN2UAAImGwwB0oDUqCjlu/fysipFUslmb/b9aG2dDxZubMsCvDYXFKRW6wjTGlDfSMictcxKJRCKRSBoBFVnmZGoSiUQikUgkkkaMFHMSiURSC6iKCUVRUZRT+5lVFKOnHJZEIpFUDvmL0UgI8m+PpjnLjdyTSCQND004q7RfyVJYDYUAWyuaWnuyI2tmvY6jV8hYggnAKfTI1ADVzL+O38gt2FWv4/JiNkVgMel+vjVRxizQry2RlvYk5CwCZMULScVIMVcF+gXfz2VxIQAYFEgsxJdgc1b2Du6J6cjA6Eyyi/Ww7/XZ/pwVUkiOU3+7sx1GDIpgW66e6mFTpp0/s9/GaAzxHSPQ2oTWxr74Cz11w8UxwSQUwKdHXqqbkzzN8SZIHRN+JV2CNS6I1guG+1kduFwqmifNhkEVuDWF/GI9aMTf7MRkcuNyqTg8qTqEUNCE4nud5zCxICWA1xPeAaBH4HWYhYU8Ncd3/CIlH6sIIEKLBMCmGLGqRqwG/UKyGVWsBgWHJih2636tUTY9nYLBGzQiIMUOiYV6WpFOIRbCLAJPxgUAsp0KLg3ibLqjttkThFKk6Y2S7SoBRkGUVfPtY1IEBW6VtGK9TaRFEGR048k8Q7bTwLZshSCzvqJDoItAkxvN436b5zJQ4FLxN2oEGDVfnwBJRXqAy+48hVgbxFrdvuOmOwzszQXP6RJtA/8Sv1AZxQobMwuxqvrK5oEmzCrkOmFnXh4AB9XdRItmpCp6upn9WbM5k3m+7bNcEptNsFV3fvezOhBCIbvAxvbsIADWZBppHSD4+kgaAE7FwSHXBjLyNvr6aWHtQ3//VuzKqd+UL6uzP6uX41YWhzO93OCEqpJXuKdWa9vWBpeFPg7AwFgzJkWQVqz/puU6BfF+YFEFBS79tyPf89eb8mRp3hH8NH8KVT3VTJ6Syf6sufQMvg2A7cULpEGjAmQAhAyAOCPxt7UAoI11AJuyvqnfwUgktcR5IXeTr+SxNevb+h6KRCKpAWRqEkmjx2AI4o6Y8QD0jdQINrkxKQLVZ6lSKHSrZDj0yzqlSOFooWB+oZ6INsW+FbfmoNiRTKilBQChWmjdn4ikzmgbNpIs18EyyYgDbK0AMBv9KShOo9iRjNUSB0Bz/74EaqGEEwxAsNGEoiiEWnTLq1sT+JsUoqzg8Fg4/0nNZknOBzUyZm/6hBfbPc0FEYWEW4tKb1cELk+KjGS7jUyHiWLNa+FQSSlSmJt1EIDzgyNZmn3mPrBLJGcKDc0yZwOaArvr4mDSMieRSBoqcSH9OZr9b30PQyKRNCAaumUuCJgKDAZmAnd41j8APAzYgQeBP4GWwMdAW8AJjAP+LtFXf2Cx5++yWh95I6dL6I3cEtOKXmH5AMQF5uNyG8h36L5Nm7OD+DdFoVuY/uQ/KCoLs9GNW9MtA0UuA9kOMzF+dixG3XF7Q3oYn+wrqDFLhURyJpKcu6q+hyA5TekYOoorwzrQOUgP0rEaNNKKTdg95bxCzW6EUHxJ3YNNbvKcBp/frMG33kWiXfcnnn6wgMU579XtiUh8NBQxpwGTgdmA11TWGl2odUa31i0EmgMxwERgE7pg+xJd2AFYgFeAdXU18MZOsVLIpymbeWTHbydumOz5u73WhySRSACD6i9ry0pqhcNFa3nz4MIKKwpVhRD/jjXWl+TUaShiLh9YBNxSYt1IdCtdHrqESADOAUrWkVkPhJV4/TTwGccse6cNbcIu547IbmzO0qP/fsz8tNQXcXLnp+kSbCfHaWRXnv6k9HeynaGxNgZGZQMQHZyPzc+JvdATUZgWRoHLyC+HTezlJGJOIpGUwZsPbmLLJwFYkaGXB9qiLSYjbyNhgV0BuC74CrqHCoJN+ve30K2iCRBAiGddhMVJjtNInlP3zducY+CtAw0nen1sk6eJ99dNMzPS9rM95xdui3kYgLvb5hAfkUNGjr++PSGStgEuhrRKxGzVLfa52Ta2pIXz7m5doEorzqlzf9Nn8DfBigw9Mr5DQBDRNpX2gS46BevXXrCtCNVwzJfYYNDQNAXhidB3u1X2ZwXz4S4TszJfr7GxZRfsqLG+jicquDcA90dfhFNTyHYIwvXAaorcCtuzi2kXrN/3ugW78Te6KfL4le4vMLIzW+PcSJVuwYUAWA0uitxGDhToJSeXpECcn4GuwbqlMsCokVRkYnGyxvdprwLQM+ROQglio6aXy2xo5eoams/cLcAF6GLsfWAr4C0gNxP4HphVov09QA9gLNAFeAO4FH2a9WnKn2a9y7OQkHDwnJYt29TsGUgkEolEIpHUAg3dZ648zOjTr140wF3i9XnoomwQeiWLD4A7K9Hv556F9PT0BqVkJRKJRHJqjAh9jHShW6VWZn/qWx8fMhCAzKL93Bo5hsP5ej7GHcpu+po7YVB0S5XVoPBr/hIZbCJp1DRkMZcENCnxOh447Pn/LPTp1MuBbOBcoA3ws2d7G2AKMAJoGKnBJWcc3qmB1JyG68iuqrYqZZVXVUu9+HOpiqncygoWcwwALnceQnPwdOsnANiV42KGZ5pEcvphtcSxlU0kZM8rs+1I9mLf/x8dLj1dvafEBE/PkDuxKkG1NkaJpC5oyGJuDjANeBtoge4btxHoCnwFXInuRwewBmhWYt/F6NOsp42QC7C1osiZicuVXd9DqRR3xz9DkO6ax3dZS0nO3+gbu9kUhVsrIMy/I9GG9gCcY2lBl1CVEJNujC1yK6xI05hdoOvzQZYr+C3zjTo/j+rQkEWcl6qWB6ovx/yKSmQVO5JLvV6RrmeQdwutvOY1xjkhtwMQKoJZmPNurR6rvlEUY4MsNZaQVVbInQodLVF0CY1hvbEboFvqIqwqSYVumgfot8hwi2BP7rGJnKb+ChaDXgEIwKmBn0GwJ09hSvoPQM2U82pM+FmbEWJtUSsWzqahFwIQSCTbs36o8f5PBxqKmAsENnj+WoGB6FOm04FtQBG6H50AJqFHt3q/wWlAn7ocbETQ2ZhUvcyW3ZlJG9MF5Kh6CRe7lkUb0YNQg5UkLRuAMAJxopGu6AEL2aTgFIUUuPTyOVn52yo8lvcibqZ1ZJVzem2dUo3z6ZGXfNFNTc09OeJa7NvmcKYCugNpGroT6VY4FjGLLl7Pt1zJDaGjAPinsHaca82mKEL8Wh4bmysXP1Mk+c4UAHILdhEe2IMIk+5bmebcRZEzB6spGAXdUT3QGI2CAeHxAijUshuFkDud8Yq4S+ICGNPySVTfegWnAG/FM5tBYFIFBkXg9jiIOzWFYk0h16nvpYGvVBmAqkChCywGfX+AXw8X1sFZVY2o4N6Eq80BaCaakUEOISKQRFUveZah6QmG03JWAyAo632iKibPtoaFw5FW7T6mpbwCKaXXGQz+uN0FkFq5PhTFyOMtn6BbiMbZORcDsIQzS8wVFh3CbPDn8jC9nFfzADN+xmMl+UqWGfTMcKMq4NbA5bmwitwKbgH5nvJeBS6BUxNEWvXv4rKcSn4gZyANLQCiTpFJgyW1RWhA5xOKdIlEUn0s5pgyVtn6JDbkfFI81UaqavWWSE5EYwyAkEhK4W9rQZztLACaulsQoJqxGlRcngcStxAIAalCD9vfaP+douKj9TJWKeQk1cVgCKJ90CW08niQmFUVIfTrPNczzX3EcIAiLQeT4gfoMwOpeevPmPx0kX4dONKAxFxS9vL6HoLkDEWKOUmjocCewB57AsAZNoEhOVPZnvWDzNNdDqrHzaWvsQ9zbYfIt++v5xHpqKrF9/+ZIqglDQMp5iQSiaQB4nbn1vcQagWjMQSA68PH0SdSwd+o+zdaVEGhWyWhQPdFzSoWHMx3kKsVE2HUxdvfjtnk2g9zRfA9el+q0mCEHICfpQnnW64EYJ+6B6sIIEaLBkBRFLayspT1rlnoUAzo/ojZzoPYjOGk5K3T/fU8RASdTbpn6lYiqQjpMyd95iQSiUQikTQCKvKZU8tpK5FIJJI6wBslevy68tZLJBJJRVRVzG1CTx9yIp4H9lWxf4lEIjntKS9vniacFebTk0gkkvKoqs9cV2Ah8C7wFFDeL084erJfSQPmkpBHub2NgTibHkafZLeyPddMmFmffu8YZEdB4GfUk4UeLvRjbaaZi2J0n47W4VlYLC4cDgNJ2YEAzD4awot7X6yHs5HAMSfs8hywFRSMxlCcrsxS622WeACMBhsF9oQyYsLP2ozCokPVGFPVKk1IJJKa5974Z7g0rtiXW3FDtpnDBYIiT8K3nhEqbQOO/X4cLTKxMUsl0qq3Pze0CItBI8thZGeebkVek+bg96zGldj9dKI6ARAu4BFgCHAjUDtZXSW1SrjFzJJUlZW5WQDscMw9YebymOA+JOes4LVyfI7DArsCcFXg5b52krrnRFF0AlFGyAHYi4+csM/qCDl9TFLISSQNhT35hby5y8nSvM+Asr8Z0yuZm9fP2oyB1msB6BNl5QCj2ZI1rUbHKqkc1RFzXwCJwAvAWuBx4MOaGJSkLBZzDG6tCFUxAxDi17JUlYFWoSOIEE1IVRJIK9KrmBXYE+gUeh13xLYFoLmfkzWZJlZk6HnYluR8QLtglS2ZLlZnf1apcZxIoGXmbQFgiv0wwwPvIjmkCwBrs/93imcrkUgaEv62FtweOZp1OfpD3/Ic/ade8dTS6Bh6LaFaBAeVrQDE04FtjkWYDFZCjHr1iVitBUWKnXXZX9bDGTRu2oRdDsBFft1YlX/0hO9hWGBX2qv9OKzoSW3aibMYEhOA01PZbn2Gg3CLiWlpU6qdPqWw6BBzi94CYGFBlK+6j6TuqWo0q4Yu3MYDvYDvgJboJbZuRS+OMhm4Fzw1jxogjSmatVfIWPqFRPnqnQaawC30UigAqUVQ5IZgs0KIZ4rUokJKkcI/mfoXrEApIEwLxeTR8F1C/NEE/Jj7d60kuzSbIgBwONNrvG+JRFJ3nB98H4+28yfSot/8VUVQ6DKS7dR/kHblmcgohhb++m9PuNlNgVtlQ6bK2nz996eLLZIQs8InyVOAk1uDJcfwBsQoqo0BAbcTY9FTtagoZDudOIVGvigC4L/cjxFCIzywBwCFjvRS77XNEk8T/3PYm/lb3Z5EDRAe2IPswj34WeIIMEcBYMCEQ9jJKtBnlMqbeagqqmpDUTxl/bRibJY4/D3HtTsz6yUtTkXRrDUh5gACgI+Bm9BrpY4FLkSKuRojPmQgkUpLNmRNqe+hSBoI7du355xzziY1NZWFCxfV93AkpzFdQ0fTz78Fq/P1agtVtbb721pQ4En8LZFITp3aLueVD9wM/Al8AvwMZNRQ3xIg15lEqmNrfQ9D0kAYN+5e3n33Lcxmfdr9l19msXDh33U+juLiYr7//gfsdukTdzqTIQ6yJS+EtTnVc5mQQk4iqR1qugLE98AK4FugD3DmZiSuYfyMYZgN/qTLKcsaJSa4D27hJC13bX0PpdIEBQXxwQeTWLTobx588GEuuWQ4r7zyEldeObJexmO32/n++x/q5diSkxNga1Xt6aAQJY5oQ0ANjUgikdQ0VRVzLwCrKtiWAPRDzzP3RBX7b9B0DR1NKyUOgNaBZg7lu+gZob+Vg6NzyCi2sDrTStsAPZ2HxSDIdBiIserpHiIsxTg1FavBDUCQxYGf1YHbrc/Nm0wunE4jKfn+FDj1flOKzHxwIIt0ZFmXmqBL6I0APN2yGdlOA9tzLgbApIIQcChf/+ysBpU4fxU/o+7ovSnDQZTNiKIoPv9FVQGjohBg1J9dAkyCLIfCSwf0oJKadgqOiYlBVVW+/noq27dvZ/v27XzyyWf4+fnV6HFORmBgIPv27SImJqZOjyupPE+1fpZ+EXaO2HULrkUVGBRBqNmFzfP7A2AxuLF50g+ZjW6sRhdOt+4h43AbyHeYmH3UJOdbJBUS4t+REf5X4va4bv3j+IdItY3vXpmi5XCEncTTAYPQ72t+igUhBGZFv9airBYcmobbYwbyN6oEmRWOeH6Pf8p4rY7PqvFQHTF3IjTgWU7T6NZt2T+wxZuHy+Nr+ZP3R04PJK3xvFrxIQPJdSbVWH9nOm2VpgAcLDSyJVPjX6f+bHIoawGKYiQ0oCNwLELXS4CtFQWZB1ANfqXqJ5bkyvCJ3NRS8GD8WADePPBSjY49KioSgNTUYyKxoKCAgoLyx1NbpKWl4XQ6iYgIr9PjSiqPSYXP9xo4oB0FqJbPbWRQGTcdicRHdsEOphe8UmpdMivYcly7IyyuszGdSdT0NOvxnJZxypXJzl7TebWOZC+u0f4aI0NDHuaCSN36tCdHI8qmEmqBKIv+GBdmdhFgdBNidgAQai0m0L8Im7/+WnOrGC0aRj8Nt/0gAPO3NOeZfV+Vsp4J4Soj4rx4p6sqEnIAv2V/TNjR8WQW104W/+hovXB3Skr9f73S09OJiIio72GcVpwTcjsAt8bHYlUFBzyF5w26cRg/g6BTkH5NtwzKw2p04dZ0q77Z6MJicWH106+9nKyjPLY6kmxSqj2uxuSKIJGcaVRWzH1Qxf4F8EAV9z0ZwUAYcKCW+pc0MJYUTGNBti5gbol5mgKXYF12LgdUPV91SsEWih3JvtxXwuOyaTAEAeB25/r66ho6GoC2KhhUc42O0+3O5W/7RrRyC6NUn6goPTS+pGWuvkhLSycyUoq5mmRAsD4tNSQ2je1ZwRyx62LOqAgyi2FPjptfU/RckXu11aTnlnW9MBnDAOjlfwNBipMD2XPraPQSiaQ+qKyYu6+C9d4AB+UE26sr5hLQq00AJAGjgc+BC4BXgZc921qip0dpi15ebBxQ9+F9klqjpPXs6+SXK2wnjou7KSnivHizlJdvf6s+R/JXo3sb1DxRUZFomkZ6ev0Hw0jLXM2zJjsbANeuSObl72BX5k+n3Ic315Y3ua9EIjm9qayYu7WC9TcBg0+wvaZoU+L/WOA5YPhxbWKAicAmoD/wJbqwk0hqFUVRUBQFTTsm3mozE3p0dDQZGRm43e6TN65l0tPT6dq1S30P47Rik2s+AMsO70MI10laSyQSSeXF3DcVrO+JLuYq2l4bJHmWYcetL1lnaj36FKxEUqvExsYyZ87vmM0mLrnkMg4dql4N08oQFRXZIKZYwTvNGlnfw6h3uoaO5qBjNQVFeqb9430qVcVEdHAvohT9uTRIC0JFwYABP1UPi7aqBpxCo12wPu2/L9fJLxmv1+FZSCSSxkptB0DUBHZgH3pliefQS4adjNFARXMTd3kWOT0kqTTDhl3EG2+8xlNPPcPw4cO45pqrAAgICEDTNNxuNzt2bCEvL6/MvkIIpk37lpUrV/H222+cUgqRNWvW8n//d0WpdVFRUaSmplXrfGqK9PR0wsLCUFW1lGXyTMHP2gyAayNb0CssmjBPuSuDIjCoZdNsKorHj1N1onrWaejBUkIoKIrA7imRtTQ1hN9zQnC5smv3JCQSSaOnMYi5jp6//YBZ6FOu2Sdofx66WBtUwfbPPQvp6ekyqXEDJy6kPwAWJYADWXXnxB0dHc0bb7xGWFgoqqoydOgQFEVh9my9nuGPP/5Eero+1fnFF1/hdDoZO/ZOTCb9RhxsbUETgydlR7iJRx99GIANGzby11/zKzWG7t27MWLEpdhsNux2O6pqQWgOoqIi2bhxE6piwt/WAqfHChRha4eqmDiUtQDQneA1UYzbXUB8yEAAbGooezJn+RzkBRpWUxgtrH30fTCTr2STVryT7AI9sMTP2oxWtn4kOjcCkJW/zTfG9PQMVFUlMrIFKSkVJ6Y1GPyxmaMRHj9CbyUA7zhqsp4i6ClkABTFQF7hnhrtuyQOl+6P+VXaBl4+uJ6i4qM11rfJGCaFXAWYTXoQ0KyzbqFbTBo7UvXv2uYcG838XPgb3ASa9AAks0HDanARZNWFtqJAsdOI2ZNXz2Zzsv5INI/sSQBgR9bMKo9LQSnjsyuR1AWNQcx5WYoeDNEC2FhBm7OAz4DLObHgkzQS/NRQgFMqCq0oCjfccD3R0VG+dYWFdqZP/5b8/PxSbTt16oS/vz9r1qzxrYuNjWXx4oXEx8ezY8dOQC+X9dhjT/Daa6+wdOkyPvvs8zLHfeCBh3z/dw8dw51N9Fx2zWxONu46SmCbGHa/PofgIiea0K03Jo/1xqAIjAqYVF3smFRBUFIg9O3DX5e/RP7+VPyNLgJMTto0aUbYthTWDRhLntNEnseSE2x2EmwpxmzQhYxbKNidJhxuFX+TJ4G10YWq3IXTk8oiv9iMhoK/58ZnMzkxqOHYnQModAwB9Juhvl4XfHZnf7KLLLiFQmRYdwBWXDoad6KeB9Gpqbg8CWeNnsS0ZoMbtYTVKbfYjKKAn+eGalA1HC4DeU4TbuFJnq1qmFV9P2+/eU6Tb+x+RjcmVcOlKeS59J8yu9uAJmBvvv76g5T5lLWV1hxesbU/a3aN913TAvd0wmw8Vo3CL8BB/3b69PYAi6LHHQkQWglRpYHwGI4VFVBB8eR6sR9VOFBoJlhU3zNHCjlJfdHQxZw/EITuI3cWevBDRY/ZXYGvgCvRRZ+knugeOob+Ac1YnJ+A1WYmzX6ExLw1tG3bFoNBxc8cRa79AEaDH0aDPuVoNvijKmYy8/X6s2ZTKE39etPak9w31n8QUxM/rdSP5WOPPcJtt91SZv1NN93A2LH34nLpAqJt2zZ8//103G43LVu2JSsrC4DHH3+UZs2aMXjwRaxYseK4Pm6u1HuwKesb7ssqsWJNhU0rpKezJ2tevIF37f/y2+rfATCbzRQHvMv76xfyyuL6j1S80DqYhdzIzbsXsmzZ8voejo+bop4CINgQV6vJLpuFDgXAgKlOLcdnOl6L6Njdq0lc8y9CnPoUf0TQ2QD80HkwzWxO4gwhAPQLvp/luZ+CoiKE/jBiNcdgLz7iS3ukqGY0rdjXl9USR1HxUYaGPIzqaTMv++0qn59Ecqo0dDHnBywBDEAOevRsM+AP9AAHAdwCXAxMAppyzKcuDb0+rKSOaUo093RI490RgRjGvg6HNoLFD6VZ92r1+wTjKt32+edf5J13JvleDx8+jO++m8bWrRtLtdu/fz+tWrXiwQfH89xzL6AoClddNZK//ppXRsjVNXv37gWgdetWvnXeYIOG4zOnlz5paP6nBo9D2rddmtIy9iZMVv1mrygCRQXFoD8UKCV+ARXPPorhmPXGt14FRS2dgUlogqIUvdGibc0Ys21ntWugSk6Nc9TemEL8qiSkvfn5Cl1DGdLnIBdfoV8MilEBrivVVmiAJvQFEC6BcAkUs/75qzYDSogVkZ3G+tkhAORsvpuV2Z9W7cQkklOkoYu5NKBdOevblLNuSC2P5bRFUdQqPdlWxOysN/l7aTOGB57Dz+Nt0FbX1K+88hpbtmxFVQwIoZ3UytbdfwQtAvTIPpsBfk1fRpHj5HaW5ORkliz5t9S6n376md2799CxYwffOk3TWLBgIV9++TkPPHA/b731Dp07dyY+Pp4nnnj6VE+7xsnOziYzM5M2bY5d7t7qDw0nmlUXlQ0tovWHzC8BWLn1Avb/97dvylJVLaUsKtXFW62hjUmVQq4OUTwqvFBzVZzltJK8sCed67b8h8UYCJT2CT0VRkc/xZBYgUPTB7RfLKzewCSSU6CyYq5s1lUd80m2C/RKDZLjiIiIYNSoazAaG7qerjy5ublMnToNTdMoLDrE+effj91u5+mnnyUzM4uvvz61DDYzqLojcnls3ryZzZs3l1n/3nsfcOWVIxk+fBi9ep2Lw+Hgjz9q3geqKuzdu6+UZc5bl7UhlPICyMjwWuYaVn3WYkcyQJmEu5URcp06dWLIkAtP8Yh5jOf+U9yn8hQWFvLdd99TWFhYa8doTHg/37/dn56wtF5l2JT/M6piprCoemmFpqW8wvQUGQAhqR8qqyQCqrldUoKQkBD+/nvBaZlstaioiB9+mAHA+ef3Zc2atbz77nv1O6iT8N9/K8jIyOCqq0bSv38/FixYSE5OTn0PC4B9+/bRu3cv3+uGZpkrLi4mLy+vwU2zVpXu3buzZMkigoMb3jPoVVeN5LLLRuJ01k6ZuLqiU6g+haliYGvWt5Xax2gMASgT3dsl6GqOurdVq26s25WDMARWef+S3BT9JH5G3TK3oSCN1dmfVas/VTFxbcSjLHEuA+Bo9r8n2UNyplJZMaeevImksnz88WTatWvL8OGXsmrV6voeDv62ZhTYq/dUqigKK1YsZcKEB/nhhxnYbDbOPvss3n773Wr1q6oW739omr1afVWE2+1mzpw/ufnmmwC47bY7a+U4VWHv3n2MGnUNJpMJp9NJbGwMAElJSfU8smOkpaU1uGnWU+Wqq65kypQvCAwM5PDhw/Tq1bfBCGaAa665ms8//4Qnn5zICy+8VN/DqRajInTPmetbphAedhNmPz3IQDUJDP6gmj3zpgaP/5rGsTuQqoAmcGXpbiE7NgcxceMAFlB1MScQ5Zb8qwqDYmBYSz2y1ubvQDXegGry+mse88v0HVsD4T42T6wYdJ9OzVPcxWVX2ZpgR9t9AQAzkGJOUj6nzxxfI6JfvwuYMeNH5s2rXL6x2sZVHEa+Pbva/bz33mQ++eRDJk16B6vVislkYvny/6rVpzeaTIia83Mqjz/+mM3NN9/Etm3bGsznArBv334MBgPNmzdn7969xMbGkpOTg91eO8K2KqSkpJZKA+MlJCSEkSOvYPr0b+vEmnT11VfRuXOnU97PbDYzYcKDbNmyldmz5zBt2rccOHCgFkZYdf73vy8YN+4ezjnn7PoeSrVJtuvTkFszQ3FnhOEq4a6b4TCQ4dAVT55TcDhfjzzPcenXz4LcyRhUf26JuheAC2PcFIraTD5zaiw4Kvg7qQmgi7dwq0quQz9fTUC+043Dk1z7MKkUUUBHVXejCDIZ2V6UxrbiediLUwAI9W/PKy1a0SzAI/hqKO5JQcFsjvZNV0saP1LM1TGBgYHEx8ezffv2+h6Kj/aWQRwy6TmWqjNd8c03U3n00Qk8+OB4AFJSUqqdrqKualPOmzefffv28cILL9fJ8SrLvn37AGjVqqVHzMU0KKsc6J9zq1atSq0zmUzMmvUTAwcO4Pzz+3LHHXfV6hhuv/02vvii6lNa69dvYPjwS8nMbLi53Q4fPkyTJk3qexjV5pc8/WFpSurBKokJTStmtf2w/iK5KUfVhhN48n3aq6iKnktRE5V7gNlxgm0ZeRv54EgHUlw7a2B0xwgJ6ESsqSvbHT/UaL+S+kOKuTqmQwc9mtKbjLa+uSz0cQyKwnZ7+T+q3UPHsCnrG2KC9YjU5Jzy03UE2FpxU/iNvDVgOlFWhX/SsliaM7nWxl3T5OXl0aZNh5M3rGMSEg4C0KJFC0BPaJyU1LCeppOTU+jb91gWoHnz5nL++X3x9/fnr7/mcfvtt3LNNVchRO05hgcGBvLXX/MYMeJy3G53rR2nPjlyJJFevc6t72FUm9ScVdXu46BDd08J0oI4mLug2v3VFKpiIi74fACOZC+ukT63Z9W84BrhfwWpxcXUhEkh0K8tQK1WWpGcHCnm6hhvaoxTFXOKYsRkDMPhrFk/nltaw8UXJKCYdZ+M3AQTQlMIjHEAYOlkQgm+H5GjT+vZNzWnOM+Af5x+wzRGmcGoIgqcCE1/Qk5db2LVktPDIb6+OXr0KE6nk+bN9RqgMTHRrF5dhQzEtUhycjIREREYDAYURWHIkAtZsWIlH374MTNmzOS++8bRsmWLWh1DTk4Okya9f9oKOYAjR44QFRWFxWKhuLh23Q5qiwBbK1xaEUC1Sp/lFOi/nwmhcZW2gNUFmnDiqmWXkOoSEXQ2Ezrm0L5bOsVZNwCQmhJIVpEVo6JPATeNzME/3OGrmpGbZuVQRjBNw/TAsLCmRaBCfrKJ3FwrAIdzL+P5bU6W5HxQ9yclkWKurunUqSPFxcXs339qUwN+1njsxTU7vaYqJmJtRRijTaih+hcy3DdbpgceiNxiRL4DNVoPWPa7MAY/IcDhmf50aWA2gsWEyNJTBLjWuGT28xpC0zQOHTpEixbNAd0yl5ycUs+jKk1KSqqnPmskBoMBVVWZOnW6L6p58uT6r1RxOnDkSCIAcXFxde7Tp6o2rObIaqXvMJsi6Gm+jKX5X1V7PN70H/nOhmWlBkjJWVnfQzghLdRziAgqwBxvxtxC908MdNkR7hJpb1waYECx6GX5/LqqRGu54PVvdJrAYiS8k5GwHF2cq4sFu6hajj5J9ZFiro7p2LEDe/bsOWULwistR9Ml2M7kXfqX6/esd+gQciXn2/TIsHh/lSMFGnsKcslVdYdgDY0YEcnQWBsA7QOL8TO4SSnS0wM+nrCaLh1SSF1lpfWfc4BjT8tB/u0B6GAayPr8GQwK0JOjhhrNrHavJxDd4b2ALPwJJaF4JX3NlwMwsZNgYqtneH1/4466aygkJBykRYsWBAYG4u/v3+B85pKT9RtqTEyML2/i0aM1V3BeonPkiB4lGR/fpM7F3PCg+7i7rcqKDP0hb3FGOlGGQJr46b8lYRaFZLtGdrH+u5bjdhBsMNMyyIjZUzmjiU3jovgU/jys+9S+e3R9tUugVTXBb21S03nmbJZ4JrcfA0ATm4P/7TUwv1DPwelNVN0xdBT9/fR7QZyfQoFLD/wF6BzkJt6v2Ff3OcJmJ7JdHjO+b8Ud26cCYDL6E23phIp+f9FwY9eySLfv1vuwXUwzNYokLRsAizBToNjJVJK4IugsAEa3zOKOiKG8XIErTnUY20RP4t41FN5MXMWhrNJT6wZDELGBenBQZtF+NOEi0q8jAHmOo2QX7MBmiefa0FsAiLIpCKDAY9RdULiVhNwljI/XqwyFWyDLAftynfyRo9fhdrvzGBh0n69c22aWl3EZCLC1wu5I8bSvXv5DgAcffIBly5aTkpLCxImP4efnV2FbKebqmI4dO7Bx46ZT3q97SCEDxjkY1MdTEitwuv7XExklLFawWMBoBLWCTDIuFzidvu2jDP1R0tPxn/8fvybdCMDju1PZlPUNuQW7AFiN/ndB9jsnH6QnhfSmbD+yHad8ipIKSEg4yMUXDyM2NhagQfrMgT4FbDLpzt8NbYynA4mJukCOj4+v82O3C7YyfPg+Rlyh3zBFTFv9d8So3/yFzQ88n70PVdUXTy1kiotRDx9m7E+65co54xwmyHq2J8VefIRoq646Lroxg2F9OyLCntQ3Wiz6Z6Cq4PIYCJwO/b7gvQ+43Ch2Ozg8ysXphIQkhiQc4bb0WwH46PBLvt/88lhX/CXrKtiWoOr5UnflBhLvp9Ey9BKAGq1VfLYen8dtNxzk3kEXIqKuLX29Ca1s3hcvbpceSuw6FkynaBoI4bt/og0EVz/wGllcbn2bywz2ezz9uHWLZZF+cxOZ3XAntqYoSe8jL91KZp4f6XbdeJJkN3PYbmRvrmBrgR5YtdO9pNIPIGPH3sWkSW+TkpJCYuJROnXq6HtwLg8p5uoQs9lMq1at+P77Gae8b6HLgGt3BkabJ/YpPAgMBl+tQMVeBDkFUOwEmyc3m78+dUq67ufg2p2FM1PDFKZf9IZmgSiqQuHabI7Y9W9LhjhY5fPbo+h+LC1yerAzv2byNkkgISGBuLg4n99ZQ7bMWSz6tdfQxng6UNIy52XcuHsZP778msWFhXbuuec+2rRpzVNPTUSt6CGvEoSawjH4OcDmqV9qMui5Nzwobg2KSsw2qKq+XdPw5R5RgLieGMbqFvwxN5u51FG6Burpgfd9rrkSiZFmvcKKsDhRrAqK0Vs4GL3OkhDgsbwJtbRlUJgUXCYFt/DUkVUEhiYaAecZeMqhf4bj3VX/HMyqnnA50GDGLWCoJx+oS6u5aiVR5nAc+UU4fvoQ68Z9KMElLP8ut369eQ0bRS4odiE8152iKrpfd6ETd4YuxJzZAuECg667MAQqCOexWstF+UYMRg1LoAvV4DlMkYrbeeyadxQZScsOJSFPd0HaW2AmIR/SPd+DbIeTFFI54F5NZt6WUzrfjh07MmnS26xYsZLu3btx9tlnceWV1zBr1q+ICnxEpZirQ0JCQjAYDFXyefrjqIU5X7bm9/ylQNUjpQyGoFIJMluGXkKO6zCZedWPmDqQrT+JTS/aSoE9odr9NWaOf5+rgzei1VsJoqFZvVJSjlnmrFYrmqb51klqjvz8fHJyckpZ5kaOvJzg4GAWLfq7TPt+/S7gp59+IDw8nF27drNtW9WnJFvburBPQEKxHrFoMQVT5MxGiFMxwauEmltgFroJ341GunN3lcckqTpWUwRFzvQa6ctkDAIgWo0nkwwKHTX/3W9h7UyX/q1JH/UgnXudS37B6fuwaLFY+O67aeTl5TFy5NWcdVYPmjZtyqxZv55wPynmTpHrI5+keaCBOVkJAOzMm4PTlUlYYFcAzjUMI18UcVTdj9VT5SxPpHI0dwU2m/4Y4HLp1osAmx5t0NrajyYiijyhO5K2sgVhM6qsz09lr1tPuntLq1xyHSZ+2lG9ZLHHC4yaNIULT+hTrK07h1yFNR55W5P0DNGrPDzQIpLDdgMLk/MB2K9uJyFrni9XVHRwLwqc6b4pCAWFpqFDOJq3xldaSKF0PUZFMfJKmwc45HGZ+PhI9XwHExISAOjT5zyg4Vm97HY7ubm5REdH4+fnR2pq6mkdVVqfHDlypJRlLi4uln//XcqNN95cpm2vXr34b/lSirMLGXP1S2SkZ5d6CPSmG8ouOojDmcHQIL22bKEoprUtmEibboUocEJg7DaaBeQzd3sIoNchrQptwi5nb+ZvQM0+8EjqD4PBH4Dve4wnyOjij0P6/e2HrKnYi4/47gtVISywK5rmYmqny9ixpC293x9DXv4h3zW/cOFftG3btkbOo76YNu1bbrnlNsxmMwsW/EX//v0AuOSS/yMlJYW//ppXqX6kmDtF+kapjGxzmEds+s3b5RyB2erCHKBfsOaYowiXwJkZhCnYW5YmFnfeSAzxcQB8PKQVH8XcAJ4afqpNgDldNwcDmHVRJwqd4NKdS4Uzg80LQmskR1NtY8CE0WD1uWg0RHr46TVOL+6QQHBXeChN96dwFYRisF3nmyFxF4Nqbopq8XwODnAVKqim4agelw3NrbtrKB5zvKJCUcY+pq/3hAYfqd5YvZa5887rTVFREdnZ2dXrsBZITk4mJiaagIAAjh5tWGLzdOLIkcRSiYPj4uKYP39huW1Xr17NmglT6RG7m1VXWIEYNMd1KCqoVgU10HPBqm3069fmSZhsVMHk8E3lCZcGTje5Kwo5tN5QrfGHaTG+B6m12f+rVl+ShoHX0T/c7KBv70T6e1Ihvpo0ECEUDMZjYs5ocmMwCd90paKC0aqhevytFQVQOfbapKAYFbTig8BBdjylsCA6l/Hj72PdulUEBwfz+utv4nLVTXL5mqZ169aMGTOaxYuX0K5dW/r378f7709myZJ/+fPPv06pLynmTpF9+QoutwH/GI/g0kArBsXzTubvBZOfwByhoBXrgk849Dl5r8OmK7MYV7KGs1D/sXQ5BU6H8CVVdbkVDKqG1ebCaNa/CCY/jTyHCcUTSVPTEVM1SYZrf7VSGJSkX7BuLRgVH8yhQoWF2boy6miKZbcjje1F8yh2ZgC6ZdBiCqeoWE/hIBBYLXEMsum5lDR0q8NZwSEMjtanh0IvsOBKKsTcQff7MBtU3f/E4w+kGFVEsQuRr7dXrEYsZgMUuRAOj/VJEwi38PkGCQ38/DXa7K6ZfFNHjx6luLiYkJAQX0WIhkZycgoxMTEEBgY2OMthY+O8kLsB6OIXwbT0LzAZ9Ai2AHM0aSl2unXrTsvQS/DztxIcHFwmcjgssCtd1UEAdMj+B3N7G+5ij7+UbkRBs2s4k/QboOYG4QJnodvzWiUv14rLrf/GGA0awaGF5GT5EWaoOJquMiQr+zma17DyJEpqhlWZfoRtjKBpTDYAIS0dqDYV4fLcqwQIl9Dr7Ro898ZigVYEmufB3+0GNAVXsf7763IaENoxQbhv/y4eWP0mgYGB3HrrGB5//AnefLPxpsFSVZXmzZsxZcoXAHz11dc8+OCEKvUlxdwpsiwnmdBdcexdo19cC4sXk5S9HFXVp1A7BV+JG40M7aDPAdSgWMgtOsK5vTqw9EG47Jf5LFiwEJtF932xFx8hIuhs0nPXA3ooeqRfRw5lLSA0oDMATza9ErPasEWcl7yimktLEWvSp6pHNE8mrnsBL3rqOqbtS8ZicREY0xeDp26hYlFQrAbUQM9jncWIYjaAzfPUZjQAZrA69SgwQGwT/PZXC77ep7cpEMWsc8ymq3k4AOFqABlaPitydCvCwOAHCTVY+af4N7IL9GCU2JDzScpejtmkp2sJtjVjUc/e5LuqZ8XwomkaV199LR07dmhwCYO9pKSk0LVrF4KCgli/fkN9D6dR091fT7j9UKd0Xg8fQnGR/jPtdBkIM2oExkaz9ZZIlOAQAF7r35pXY24B9IcPrEYUm+dBwz+WPZ/m8+423Ur8WeLLqIqp3ES74YE9AMjM20S7sKvIcesPRck5K7gp6ikGxsAuUb2HiXxXMqF+bYDqlQ6UNDx+TjnKW4krfdOqXY1DyFDT2Jnzm6+N5gmOiAzqCUB63vpKTcM+3OIZAII8syH33Tee2bPn8Ntvv9fkKdQ5mqZx5ZXXcNNNN1JUVMQ330ytcl9SzJ0im/J/Zm122fqN3ot0a9a3Fe5rsehFwL1F0u3Fx+bfvELOu/6QZ5s3jHlz5hUUu2suOqo2cXosZTWBJ1gXPz8Hph5R0FSfHo33pkWwmPV0LACKglDVY681TZe+3vDzEhFPil23rGJOwqAIdij6+3wgey4KCivsH5c7nsU575VZl5St15/1+gi29r+S7dlBZDtrRswBzJ49h9mz59RYfzVNUlIyF188HJvNJi1z1STOT384ad45G0v/Jsei0gHi9OvXNuYCMOoPJEq7MJQm3fTtqnoswRjA4SQiI/NwapG+VRVVTMjI2+j7f1fmT6W2HS7OY1FSAOla9fLbZeVvw2AIqlYfkobJuuwvS71eeoKqs6cq5Hfl6LMceZ7qIYWFhfzyy6xTHGHDJC0tjUmT3qt2Pw1dzFmBD4CB6CUJ3gMmAU7Am0NjLeCNq+4EfAnEAauBa2p6QE5X1QtxewMg7F4hcQrMyv2eYmd2lY9dl9RkeZ3fc3WLmPXfsfTeobAqTffP6BqmklEMRwrcJBbrwQs7WEVqzir8bS0AKLAnEBXc2zeeQkc6VlMwbQx9iTeEAnBJkyi+OZjLgZxjgSDVtX5uLprL1pxbyHE0fCtqTTFz5k+MH38f0PCibRsb4Rb9uknaFcAnv/mRWKBb2dwCIjok8uG/MG5SEkajgQ++gE6XPcfOnaXLA/pZ9fJv98WOIcjUmq+SqheEsyTnA6yWuGqV4ALdFcIbOCSRVJbZWW/W9xAaPA1dzPkD84CxQDiwDfgJSATaHNfWCPwM3A8sBGx1N8zKcUzMnXpEqjfT95mGwxM+/1v+TKan7qFp6IUATN+5CLMpqtyI2ZJpUY4PGCksgtVsISG4NwCHDnUjWanZAtHFzgyyHAK768wRc8uXL2fq1OncfPNNsvpDDbEtI4ykAo0ZGXo5NLc7lwB7AB8ynuDYfBwO3Y+zvPfb67O6KjMHBzXjHF5dIeelMfj9SqqGjFCuPxq6mMtAF2gA6cBhIKSCtpejW+m8oV3Vy+FRC1RHzJ3p5BXqgutw1iLfuuqkPvGKvCL/7BNmPq8KbncB+U6NrOLGGWFVVR555DEKCwv599+l9T2UOsMbmdnNFs3swgUVRpsH+bcnyBRLoKL7VWZphwlTm5NPBjFC92cLJZBDyiGCPc7eoWYnW5wppW6O+fn5JCUl0bZtW7KysigoKCA3t+Kb5/KCqQ3u5ipF3OlLQ7vWziQaupgrSRf0adet6Fa6fcAh4FF0EdcDKASWA6HAK0B5Dmx3eRYiIiJqe8ylkGKu4VHTQs5LuEUl0a5P7/pZm1UrutcbXOP1yzSb9OvW4UxHQcFi0ct8eS0nJdvr/2to2rHIWkVRSzkdl/c0rShGVNXie11enUGTUa8a4nU9SEtL4557yq9GcDyKYgS0Ms7PimJEiOqLYO9Ue5S1U43mUjyea2JiALjj7P181rENqJ6cV15nT096D0WlVMUE8ObGisX33KkWATbc6bpf2rIlcWzK+qbMMffs2Uvbtm04cuTISa2gckpTIjkzaCxiLgKYBtyKXrwk0LP+GmAW0BSIApoDQ4AYYBUwH0g7rq/PPQvp6el1+ogoxdyZQ8sAwaVx+s17ffYYku3oxa9LtDEbIMTsicRFIFAwe0rxGBSwGiDboe8H0DpAYDVo5Ln0XoyKnirH61M1JFYh0OimwBNFW6wpHChQUFDoEqx3YjVoZDoM5Dj1PvbkCuL8FLoEe4SnwU2Ww8iefCNHC/WxdA2FOKuTPE+/hwoN7MrWCDLrffQK1zCrGrme7enFCgUuhTCLwN+TgsDP8/egJx3PlkwXPcKNxNt0MVfoVsh0KCTkC4I970m4BfwM4PR8S3McCntyXYRb9ON0DBaYVThcqJJs1/spcGp0CDHQwl9/T5alqvyvFsWc97yyMv1IX6pS7NJ/Ut2agtGg4XAbfK+dmopb6Ofm1FRMqoZDKx0kYzW4CbbowjvHaSQssGuZUkB79uzl0ksvRtM0mdNP0qBQVUupB0dJ3dEYxFwoMBt4Ejg+L8OPwCfoU6+pwC70x9wDwE6gBWXFXL1hs+lRaYWFNVezTtIw8TcKerbXrSYXxIDQBMKh56ADT5Jho54UE9BzL8ExtacqKKqel8mbwFixeiIVS+SzE3bNl8dJDTSgmNVjViFNIDxBGIpV9R1HuATC4emjWOiJOf10UaEYFBACrdCN8ORJ9KZ88farFbrR7MJX19p3XO+4HAKhefJJqaXPT/PmMrMLVIuCGnBMzIgiDa34mKXOmzDUe/7CKXAXljiuv75dOASaJ2WN0PT3NTtBtypuy2lWiU+r6hg8H9vPCTE8vfejSgdIGQz+uN0FpdKEeG+E3jxz54eYyS8qWxpp9+7d3H77rSiKUm4ZL4mkvpBCrv5o6GIuCPgDeBn407MuAnAB2cDF6H512Z7trwEfAtHoQq525tCqiJ+fH263G6ezAZdGkNQIeS4VZ5EuVKwGN6pFRajCJ7wUowJKOSLOiyZ0QWdWfcJLK3SjqHpBaL0TUP1Vn2DTCtyQ5/b1pZgUVKuetNOdo1vmfFVGvMn/Pfu70jzXpAaqTUH1OzYgza4h8jRUi0eYmRW9MLX3uHluFKOGx68dxajo43SJYwLQLXzj0cch0Io1tHxd3ClWFYwKKiWSjGoc+98zZoP/sfMXxR6hq+rCzrsPAkJa6DeVwYlFrMi8n6U5k0/0cVWZEJM+/qZ+broEXs6GrCmV2s87bV0y8tt7I9zpXALA0Zz4cv1Cd+3S65lGR0eTmCiDTSQSScMXc+OBs9BTkrznWXcV8Cv6z3YSMMqz/j/0adVt6KlL7gEalDemzWaTU6xnCHtzYc5Oj1VoJzg0hUyHSp6njE2wWeDWwODRTCYFCt3HjGouoWBVBUEmQa5nn6N2CLMoJBbo4i7EotAl2E2uZ8p0Q6ZuKcp36ttbBBpp7q+R71JYl66LjlCLAacmaOKv7xNvc5PtVFmcrAuJQs1J56AAuoQIijT9uLtyINnupEWAnrEz1g8izRqH7Xof+3IFIRYFbxrEWE+RgEKXQrHnhI7ku2kaYKBDkN4oz6WyOxcsnvOP89OnjTWOTStrApya4kubFmIWWFVBoue4BS6Bv1EhyCR8050AKUUqYzsfBuCCsw8z2S+cjKKHASjyTHsGmnQRZVI1TKqGS6h4CrBgUjUMikDzqFODoqEqYDHqAzMZ3GhCwWxyExCkZ0jafTiSpkRRE+mSvcmoCx3l52v86695PPDABKxWC99990MNHFEikTR2GrqYe9mzHE/LCtq/4lkaJFLMnTksyt/D5MPVu9Een6nfaAzB5crGaAzxrXMdyD7WXrX5giQADJn+PguQtxi2211wUr+WJfn+uA+XDXggw3scfX/FM99Z2ULaJcdTcsxAqXFXl6jg3rQ/pKewuTziAB17Z6IVeSyETn0q1ltXVzEeK8Xnnc493kqqqMdZUb1/gaLD+k67cv1JFGWnRKtDRdHaxcXFfPBB7VgaJRJJ46Shi7nTCinmzhy2Z1XfYnJ88mVvZGJFEYrHC6KSwqnk/yfzaykvcrX0cfT9KyviTtRvTYo4L6k5q3j2YDgATx4sLpXOpqYZGTYRAKdwlcmAL5FIJHWFFHN1iM1mlWJOIqkDajMdSUnm5n8NgMudVyfHk0gkkvKQYq4O0S1zp17KSyKRNEyKHbJ0mUQiqX+Oj6GT1CJymlUikUgkEklNI8VcHSLFnEQikUgkkppGirk6RIo5iUQikUgkNY0Uc3WIDICQSCQSiURS00gxV4fIAAiJRCKRSCQ1jRRzdYicZpVIJBKJRFLTSDFXh0gxJ5FIJBKJpKaReebqECnmJBJJbdG0aVNGjbqa5s2bERwc5Cu3JpFIGjZCaKSnpzNz5s+sWrW6Sn1IMVdHqKqKxWKRYk4ikdQ4ffr05qabbuCXX37hq6++ICcnB007tXJrEomkfjAYDLRs2ZIHHngQoEqCTj661RE2m15QvLCwsJ5HIpFITjcuv/wyPvjgAxYtWkRWVpYUchJJI8LtdrN3717ef/89Ro26qkp9SDFXR3jFnIxmlUgkNU1sbCx79uyp72FIJJJqcODAASIiIqq0rxRzdcQxMSenWSUSSc2iKIq0xkkkjRy3211lX1cp5uoIKeYkEolEIpHUBlLM1RFSzEkkEolEIqkNGouYswHt6nsQ1UGKOYlEIqk/pkyZQlZWlu/1mDFjEELQvXv3Gj2OyWRi0qRJJCUlkZ+fT1xcHAB9+/Zl5cqVFBYW8sEHH1S4f5MmTZg1axbZ2dls3LixRscmOX1p6GIuCPgVSAEe86wLB2YAe4B9wHWe9WZgqmfdNqBfXQ70ZNhsVkCKOYlEIqkMzz33HEII35KXl8e6deu45ZZb6ntoJ2TixImMHz+e999/n7vuuov8/HyCg4P5448/UFWV0aNHM2vWrAr3nzp1Kueffz4PPPAAr776ah2O/PTi559/5scff/S9btmyJb/88gvZ2dnk5ubyyy+/0LRp0xP20b17d+bOnUtubi65ubnMmjWL5s2bl2pjs9l4++23OXz4MEVFRWzevJmrr77at33EiBFkZ2eX2a+maeh55jRgMjAbOM+zLhL4BFgMtAHWAj8D16Nb8NoAFwFvA73rdrgVI6NZJRKJ5NS56qqrKCgoIDw8nDFjxjBlyhSioqJ4880363to5TJ06FA2bNjA66+/7ls3ePBgwsLCGDNmDLNnz65wX5PJRP/+/Xn//ff55ptv6mK4pyVjxoyhX79+dOzYEYCwsDD+/fdfcnJyGDduHP7+/rz00kssWLCAbt264XA4yvTRpUsXli1bxo4dO7jnnnsICAjgqaee4p9//qFLly6+NGNz5szhnHPO4dVXX+XAgQPccMMNzJgxg8suu4w5c+Ywe/Zsfv31V6ZOncqAAQNq7ZwbupjLBxYBt5RYt9OzAOwFnOgirhhQAAFY0a15DQY5zSqRSCSnzqJFi8jJyQFgxowZbNu2jXHjxjVYMRcYGEh2dnaZdQB5eXkn3NfPzw+j0XjSdoqiIISo1jhPVwwGA8899xyTJ08mIyMDgIceeoioqCj69u3L4cOHAUhKSuL333/n2muvZdq0aWX6efrpp7Hb7Vx44YW+z2Pp0qVs2rSJ22+/ncmTJzN8+HAGDRrEDTfcwPfffw/AzJkzWb58OS+++CJz5swB4IUXXmD37t0MGTKEhQsX1sp5N/Rp1pNxMbAeyAVmAlnAv8BE4N4K9rkL3Zq3tqr5XKpCUFAQIJMGSyQSSVVxu91s3ryZyMjIUuuHDRvGP//8Q25uLoWFhaxcuZLLL7+8Ro9tNpt57rnn2LVrF0VFRaSmpjJ9+nSaNWsGwIABAxBC0KNHDwYOHIgQgn/++Yd//vmHX3/9FYDFixcjhCjXQvPcc8/5RODzzz+PEILnnnsOACEEkyZN4umnnyY7O5uvvvoKAKvVyltvvUViYiJ2u52VK1dywQUXlOo3JCSETz/9lJSUFAoKCpg3bx6XXXYZQgjGjBnja+c9Rkm851TyvVRVlSeffJL9+/f7phWvuOKKUvt5+7ruuuvYsWMHeXl5LFmyhPbt25dqp6oqDz30EFu2bMFut5Oens7kyZPp378/QgjGjx9f5n06cOAAM2bMqOhj4rLLLqNp06Z8/PHHvnUjR45k0aJFPiEHMHv2bLKzsxk2bFi5/XTv3p0NGzaUEtbbt29n9+7dDB061NcG9M+1JL/++itnn302YWFhvjHPnj273POpKRqzmGsDvAWM9bzuCjQF7gZWU9qaV5LPgZ5Az/T09Foe4jHOO6832dnZJCQk1NkxJRKJ5HRCVVW6devG9u3bfetuvvlm5s6di9vt5r777uOee+6hsLCQX3/9lZtuuqnGjjt79myeeuopfv/9d2688UbefPNNhg0bxn///UdkZCSbN29m+PDh7Nu3z/f/Y489xmOPPcYLL7wAwGOPPcbw4cPZvHlzmWNMnz6dq666yvf/8OHDmT59um/7wIEDGTJkCHfeeSfTpk1DURR+//137rnnHj788ENuvfVWioqKmD9/PvHx8YBupfrrr7+4+eab+fjjj7n55pvZs2cPX375ZZXfi//973+88MILzJw5k9GjR7N3715++uknzj333FLtBg8ezAMPPMBLL73E888/zznnnMNPP/2Eoiilzvndd99l9erV3HLLLUycOBGj0ci///7L3r17GTVqVKk+zz//fFq0aHHC8Q8bNoy1a9f6rHImk4n27duXec+FEOzYsYO2bduW209SUhKtW7cuNV5FUQgMDKRly5a+NkCZPoKDgwF87QDmzZvHoEGDMBprZ0K0oU+zVkRz4CfgZiDBs+4p4ENgOzABfZr1PfSp2npn8OCBLFnyr0zsKZFI6ozLH3uQuA7l36zqiqM79/Dbm+9VeX9/f39cLhcxMTE8/fTTtGzZ0mcJstlsTJo0iSVLljB06FDf1OPUqVNZu3Ytb7zxBt9++221pyRHjRrF0KFDue2225gyZYpv/aJFi1i7di0TJkzgiSeeYN68eeTl5ZGdnc28efN87bwRratXr2bJkiXlHmPfvn14DQx79+4ttT9A8+bNadq0KQUFBQBce+21DB06lGuvvZaZM2cCurXp0KFDPPzwwzz00ENcd9119O7dm+uvv54ffvgB0AMD7HY7jzzyyCm/D7179+a2227j8ccf901z//TTT+zcuZMnn3ySkSNH+tpGRkbStm1b33iDgoJ49tln6dSpE9u2bePSSy/l+uuvL9UXwBdffAHo0ccvvfQS8fHxHDlyBIAbb7yRQ4cOsWDBggrH2LdvX+bPn+97HRYWhtFopDzjTWZmZoVi7ocffuCzzz7jww8/5K233gLgmWeeISoqiqIi3fd93rx5ZGVl8fHHH3PXXXexd+9eLrzwQu655x4ALBaLr7/ly5cTEBBA165d2bBhQ4XjryqN0TLXBPgFuBN9itVLEdDL8397wOBZV+80bdqUNm3a8M8/5X+JJRKJRFI+iYmJ5Ofns3fvXtq0aUO/fv34888/AejTpw9hYWF88sknpQSbEIJp06YRFxdXZmqvIlRVxd/fv9RiMBgAuOSSS8jPz+frr78utc+GDRvYsmULgwYNqpmTPQELFy70CSPQoyTT09OZO3eub7xCCLZs2cJZZ50FwEUXXUReXl6ZaUnvtO+pMmLECNxuN9OnT/cd08/Pj1WrVvmO6WXBggWlxrtmzRoAXwTpyJEjsdvtvPvuu+Ue6+uvv0bTNK655hoAjEYj11xzDV9//fUJxXlsbKzPYubdDyjXkCKEqNDA8vnnn/Pqq69y5513cuDAAQ4cOIDBYGDp0qW+qdeUlBSuvPJKAgICWL58OSkpKbz44otMnjwZKO0jmZycDEBMTEyFY68ODd0yFwhs8Py1AgPRgxwigO9LtOsEPAtMB0YDeehWO1cdjrVCBg0aCMDff/9Tn8OQSCRnGNWxiDUUhg8fjhCCcePGMWjQoFK1K703xkOHDpXZz3tDDw0NrdRx+vXrV8b36ZZbbuGbb74hJiaGI0eOlCsikpKSaNWqVWVPp8qUFCgA0dHRRERElBsssW/fPkB/fxITE8uMOz+/ahNW0dHRGAwGEhMTy2xzu92lXmdmZpZ67R2n11rVtGlTDh06hMtV/m366NGjzJ8/n2uvvZZJkyYxbNgwwsLCSllGyyM4OLhUAIo3eMY79VmSkJAQ33RseTz11FO8+uqrtG3blrS0NBITE9m5c2epKdvFixfTqlUrWrdujdVqZevWrTz++ONomsb+/ft97bw5DkNCQk44/qrS0MVcHrpvXGVIAC44WaP6YMCA/qSnp7N169b6HopEIpE0KlauXElOTg4LFixgwYIFTJ8+na5du5KYmOi7QTZp0qTMfrGxsQCkpqZW6jgbNmwoEzywe/duQL8R9+5dfqar2NjYSh+jOhxvQcrJySEpKclnuSqJdxowNTWVs88+u8z28qxDRUVFWK3WUuv8/f3LHNPtdjN48OAy4u1UycvL831GFfHVV1/x008/0bx5c2644Qb+/vvvk/qd5+XllRJu+fn5HD16lE6dOpVp27FjR98UdUUUFBT4kje3aNGC9u3b+yxvXjRNY8+ePb7Xw4YNY/369aUsk94x5ebmnvB4VaUxTrM2Olq1asn27TtkKLlEIpFUESEEt956K0ajkc8//xzQ/ZDy8/MZO3ZsqbaKonDjjTeyc+dOn5XqZOTm5rJ8+fJSS1paGgDz588nKCiIG2+8sdQ+3bt3p2vXrr4UFHXJ0qVLiYqKIjMzs8y4161bB+gCNSIiwhd96aW8xMuHDx+mc+fOpdb161c69/7SpUsxGAzYbLYyx1y+fPkpjX/hwoUEBQUxevToCtv8/vvvpKWlMWbMGC6//HJfFO+JSElJKSNW586dy/Dhw0tZdS+55BLCw8P5+eefKz3m119/naysLF8akvIYPnw4AwcOLBVNC7pVEyr/cHGqSDFXB8TFxXL06NH6HoZEIpE0ag4fPsyTTz7JJZdcwq233kpubi5PPfUUF110EfPmzWP06NHcfPPNvmSw48aNq5HjTp06lVWrVvHll1/y+uuvc+WVVzJhwgTmz5/P1q1bT1ieq7aYMmUKBw8eZOHChTz66KNcfvnl3H333cybN4/+/fsD8Nlnn5GcnMyMGTOYMGECo0aN4ocffvAl0y3JjBkz6NevH+PHj6d58+aMGTOmjHidPXs2q1at4ocffuC5557jiiuu4I477mDmzJmnHDk8ZcoU1q9fzxdffME777zDVVddxb333svUqVN9bZxOJ9OnT2fChAk4HA5++eWXk/a7atUq+vTpU2rd66+/jhCCv/76i2uvvZa77rqLKVOmMHv2bBYtWgToKU3sdjuXXnopAJ06deL9999n1KhRXHfddcydO5err76asWPHlppC/uCDD7j99tu57LLLeOWVV/jll1/4/fffy0wH9+nTB7vdzqZNm07pfao0JculnGnLmjVrBRhrfcnLyxPvvDOpTo4lF7nI5cxbpk6dJtATpp82y3PPPSeEECI4OLjUekVRxLJly0RWVpZo0qSJAMSoUaPE6tWrRWFhocjJyRHz5s0T5513Xqn9pkyZIrKysnyvx4wZI4QQonv37pUaT0BAgHj77bfFwYMHhcPhEIcPHxYffPBBmfFt2LBB/PPPP6XWXX755UIIIQYMGHDCYwQHBwshhHjuuedKrRdCiEmTJpVpHx8fL7777juRkZEhCgoKxI4dO8Qrr7wiAgMDfW06deok5s+fLwoLC0V6err46KOPRN++fYUQQowZM8bXzmq1io8++kgkJSWJvLw88eOPP4prrrlGCCHE5Zdf7msXEhIiPv30U5GcnCzsdrvYs2ePmDx5soiOjj7heAcMGFCmr+DgYDF58mRx5MgRUVRUJPbu3Ssee+yxUvt169ZNCCHE5MmTK/U5XXfddaK4uLjM59KrVy+xdOlSYbfbRXJyspg0aZLw8/Pzbb/00ktFTk6OuPjiiwUgmjVrJtasWSPy8/NFbm6uWLhwoRg4cGCZ43388cciLS1NFBUViR07dojHH39cGI3GMu1mzpwp5s2bd9Lx69/lir/rQoi15emZehdUp7uYCwwMFUII8fDDj9b6seQiF7mcmcvpKObkUntL9+7dy4i5hrqMHDlSCCFEjx49KtXeZDKJI0eOiMcff7zex+5d4uPjhcPhECNGjDhp26qKOTnNWguUTDLozS909GhSRc0lEolEIpGUw/33389///3nC0I4GU6nkxdffJEHH3yw1iJHT5Wnn36adevWnbAub3WRYq4WeOqpJ1i/Xs+pExenR+tInzmJRCKRSE6ONzDio48+ol+/fkycOPGU9v/8889ZtWpVmSCE+mDYsGFcd9113HDDDbV6nIaemqRRMnToENq107NKS8ucRCKRSCSVJzAwkI8++oi0tDRuvPFGli5desp9HF8vtr6YN29enVgIpZirYRRFoUeP7vj7+6Oqqs8yd3zCR4lEIpFI6oNNmzaVcgdqaCQmJhIUFFTfw2hUyGnWGqbF/7d353FV1/kex1+yuIAIosimqTM5XjWXJhzTJJfJUGsyc1waU6xbZjlp2GTrhOWt6zQWU2qLmahRV82scRwTlzEzG1DMpUwtrBRRVJR9UbPv/ePHOXIEFJAzp3N4Px+P3wPO9/yWz+8A53z4ru3a2X8J/fz8iIiIID8/v9YzbouIiIhcipK5OtajR3f7902bNtUccyIiIuJUSubqWPlkLiAggIiICPWXExEREadRMncJjRs3xsurZi9R5TVzSuZERETEOZTMXcLu3Tt46qknanRM167XcPz4cQACApoSERGhwQ8iIiLiNErmqtCyZUt+9atf0aVL5xodFxERwddf77Ofo3Hjxpw6dcoZIYqIiIgomatK587WQsRhYWHVPiYoKIhGjRqRnn4QgNatWwOQm5tX9wGKiIiIoGSuSp07WzVyoaGtqn1MaGgoAAcPWslcmza2ZC63boMTEZEaSUxMJCcnx/44NjYWYwzdu3e/xFE15+vrS0JCAseOHaOwsNA+cXyfPn1ISUmhuLiYV199tcrjIyMj+fDDD8nNza32Elby89CtWzcGDhzokmsrmatCbWrmwsKsZO5CzVwkgMMbiIiIXF58fLzDQuIFBQXs2LGDCRMmuDq0S3r88ceZMmUKr7zyChMnTqSwsJDAwED+8Y9/4OXlxbhx4/jwww+rPH7JkiXccMMNTJ06lRdeeOE/GLln+eCDD3j//fftj9u3b8/KlSvJzc0lPz+flStX0qZNm0uew8/Pj4SEBI4ePUpxcTEpKSlER0c77NO3b19ef/11Dh8+zO7duxk3bpzD85GRkeTk5Dh9RQp3XgEiEHgTiAZKgU7AWaAF8DUwB/if2p7clszZmk7PnDlz2WMu1Mx9B6iZVUTkSo0YMYKioiJatGhBbGwsiYmJtGrVihdffNHVoVVq0KBB7Ny5k1mzZtnLBg4cSHBwMLGxsZdcbN3X15cbb7yRV155hcWLF/8nwvVIsbGxREdH06mT9TkeHBzMp59+Sl5eHpMnT8bf35+ZM2eyfv16unXrxtmzZys9z4oVK+jduzfPPPMMx48f59FHH2Xt2rVERUWxb5/VN37atGl07NiRpUuXMnny5ArnyMzMJC4ujrfeeovPPvuM7Oxsp9yzO9fMzQG+AloDXYBzZeWzgS+u9OSdO3eyJ3CtWlWvqdWWzGVkZHD27Fk1s4qIXKGNGzeSnJzMe++9x9ChQzlw4EClH5o/FwEBARQUFFQoAyqUX8zPzw8fH5/L7vdzXorL1by9vYmPj2fOnDn2wYdxcXG0atWKIUOG8O677zJ//nzuvfdeOnbsyOjRoys9z29/+1uGDBnCpEmTmDNnDsuXL+eWW24B4E9/+pN9vwkTJtClSxemT59eZVK4ePFicnNzefjhh+v2Zstx12QuDOgDvAAYrJo5A9wE/Aik1vSE5RO25s2bEx4eTkqKdZryTa1+fn40bdrU4Vhvb29atGhBWFgo586d4/Tp0w59JZTMiYhcufPnz7Nnzx5CQkIcymNiYti0aRP5+fn25rBhw4bV6bUbNmxIfHw8Bw4coLS0lBMnTpCUlMRVV10FQL9+/TDG0KNHD/r3748xhk2bNrFp0yY++ugjAD755BOMMfTr16/C+ePj4+2fFTNmzMAYQ3x8PADGGBISEnj66afJzc1l4cKFgDUX6l//+lcyMzMpKSkhJSWFvn37Opw3KCiIN954g+PHj1NUVERycjK33XYbxhhiY2Pt+9muUZ7tnsq/ll5eXjz55JN89913lJaWsmfPngpNiLZzjRkzhn379lFQUMDmzZvp2LGjw35eXl7ExcXx5ZdfUlJSQnZ2NnPmzOHGG2/EGMOUKVMqvE7ff/89y5Ytq+rHxG233UabNm147bXX7GXDhw9n48aNZGRk2MtWr15Nbm4uMTExlZ5n+PDhFBQUsGLFCnvZiRMn2LBhg8Mx+fn5VcZS/vWYO3cuDzzwAN7e3pfdvzbcNZnrAnwPfAAcwKqNawI8B0y/zLETgTQgrWXLlgCEh4dz5MgPDB9+u3XysulINm36BHAcBLF48UJWr/67wwnj4qaSnr6fdu3acuLECYwxFBYW4uvrCyiZExGpC15eXnTr1o2vv/7aXjZ+/HjWrFnD+fPn+eMf/8gDDzxAcXExH330EXfddVedXXf16tU89dRTrFq1irFjx/Liiy8SExPD559/TkhICHv27GHw4MEcPHjQ/v306dOZPn06zz77LADTp09n8ODB7Nmzp8I1kpKSGDFihP37wYMHk5SUZH++f//+3HTTTdx333288847NGjQgFWrVvHAAw8wd+5c7r77bkpLS1m3bp29i4+3tzdr165l/PjxvPbaa4wfP55vv/2Wt99+u9avxVtvvcWzzz7L8uXLGTduHOnp6axYsYKePXs67Ddw4ECmTp3KzJkzmTFjBtdddx0rVqxwqFVMSkri5ZdfZtu2bUyYMIHHH38cHx8fPv30U9LT0xk1apTDOW+44QbatWt3yfhjYmJIS0uz18r5+vrSsWPHCq+5MYZ9+/bRoUOHSs9j+z07f/68Q/nevXuJjIzEz8/v8i9WOcnJyQQHB1d4neqKu/aZawV0BnoBOcAG4HOspO5yow3ml21kZ2cbgA4drsbX15cBA/rz4YcfERUVBcCaNWuZMeMZh5q5AQP6ExAQQMOGDe1Vqv379yMoKIibbvotR45kAlBYWAhAcXFxlVWvIiLOlJCQQI8ePVwaw65du4iLi6v18f7+/vz444+EhYXx9NNP0759e3tNUJMmTUhISGDz5s0MGjQIYwxgDSJIS0vjL3/5C++++669vLZGjRrFoEGDuOeee0hMTLSXb9y4kbS0NKZNm8YTTzxBcnIyBQUF5ObmkpycbN/P1kqzbds2Nm/eXOk1Dh48aO9PlZ6e7nA8QNu2bWnTpg1FRUUAjB49mkGDBjF69GiWL18OWLVNhw8f5pFHHiEuLo4xY8bQq1cv7rzzTpYuXQpYAwNKSkocmgqrq1evXtxzzz089thj9j6LK1asYP/+/Tz55JMMHz7cvm9ISAgdOnSwx9usWTOeeeYZOnfuzN69e7nlllu48847Hc4FsGDBAsAafTxz5kxat27NkSNHABg7diyHDx9m/fr1VcbYp08f1q1bZ38cHByMj49PpX3VTp8+XWUyFxISYp+Z4uJjAAIDAykuLq4yjovt37+f06dP07t3b1JSUqp9XHW5a83cCWAHcAQoAtYD/wU8CuwCJgGTgbHVOZntD61nz6iyr9eRkZFhz+RtNXPt27enRYsWNGzY0GE4u+24Vq1akZWVBUBBgZXMqVZORKT2MjMzKSwsJD09nauvvpro6Gg+/vhjAHr37k1wcDCvv/66Q8JmjOGdd94hIiKiQtNeVby8vPD393fYbE1iQ4cOpbCwkEWLFjkcs3PnTr788ksGDBhQNzd7CRs2bLAnRgC33nor2dnZrFmzxh6vMYYvv/ySa6+9FoCbb76ZgoKCCs2Stmbfmrr11ls5f/48SUlJ9mv6+fmRmppqv6bN+vXrHeLdvn07gH0E6fDhwykpKeHll1+u9FqLFi3ip59+YuTIkQD4+PgwcuRIFi1adMnkPDw83GHVJR8fq87qp59+qrCvMabScttxVR1T1fkuJysrq0YzZNSEu9bMpWCNZI0ATmH1lRsKbCp7fgZW37l3q3OyiIhwwFpX1dfXl549o9i+PY0zZ86Qk5Njf/FtSZvt++3bt3PVVVc59Lc7fvwEcKFmTsmciLjKldSI/VwMHjwYYwyTJ09mwIAB2LrHwIX+zIcPH65wnO0DvXnz5tW6TnR0NJ988olD2YQJE1i8eDFhYWEcOXKk0iTi2LFj/OIXv6ju7dTaxctChoaG0rJly0oHS9hqlMLCwsjMzKwQt+3zqaZCQ0Px9vYmMzOzwnMXN0faarBsbHE2atQIsJK6w4cP8+OPP1Z6raNHj7Ju3TpGjx5NQkICMTExBAcHO9SMViYwMNDhczcvL89efrGgoKAqV2jKy8ur8pjz58/XasqxnJwcgoKCanxcdbhrMlcEPIRVI9cIWMSFRK7GIiOt+eAaN25MdHRfOnTowMKFiwA4fvy4vWauZ88ozpw5Q35+frlaPOtrRkYGbdq0sa/LavtjycnJrW1YIiL1XkpKCnl5eaxfv57169eTlJRE165dyczMtH+g2t7DywsPt/5JP3HiRLWus3PnzgqDB7755hvA+hDu1atXpceFh4dX+xpX4uKaoLy8PI4dO2avuSqvtLQUsO7917/+dYXnK6sdKi0tpXHjxg5l/v7+Fa55/vx5Bg4cWCF5q6mCggL7z6gqCxcuZMWKFbRt25Y//OEP/Otf/+KHH3647HnLJ2GFhYUcPXrUvhBAeZ06dbI3UV/swIEDDBo0qEJ5ly5d+Oabb2rVfSowMLBaAyZqw12bWQE+xhoIcTUV55ObUUlZlSIiwu3VwZMmTQRg+/Y0ALKyjtunHOnZM4pdu3aTmrqNqKhf28vOnj3L4sXv2PcHKCy0zqeaORGRK2eM4e6778bHx4f58+cDsHXrVgoLC7n//vsd9m3QoAFjx45l//79lfZ7qkx+fj5bt2512E6ePAnAunXraNasGWPHOvbc6d69O127duWf//xnHdxhzWzZsoVWrVpx+vTpCnHv2LEDsBLUli1bVkhKKpt4OSMjgy5dujiUXTxB7pYtW/D29qZJkyYVrrl169Yaxb9hwwaaNWtWYZLd8latWsXJkyeJjY1l2LBh9lG8l3L8+PEKyeqaNWsYPHiwQ63u0KFDadGiBR988EGl51mzZg0hISEMGTLEXhYSEsLNN99c5TGXExoa6rTE352TuToTGRlJWtoOTp06xR13WB0409KsP4asrCx6976ew4e/o2/fG9i+PY3t29Po1KkT/v7+9OwZxe7de9i69XOACjVzmjBYRKRuZGRk8OSTTzJ06FDuvvtu8vPzeeqpp7j55ptJTk5m3LhxjB8/3j4ZbF3NR7dkyRJSU1N5++23mTVrFnfccQfTpk1j3bp1fPXVV5dcnstZEhMTOXToEBs2bODRRx9l2LBhTJo0ieTkZG688UYA3nzzTbKysli2bBnTpk1j1KhRLF261D6ZbnnLli0jOjqaKVOm0LZtW2JjYyskr6tXryY1NZWlS5cSHx/P7bffzr333svy5ctrPHI4MTGRL774ggULFvDSSy8xYsQIHnzwQZYsWWLf59y5cyQlJTFt2jTOnj3LypUrL3ve1NRUevfu7VA2a9YsjDGsXbuW0aNHM3HiRBITE1m9ejUbN24ErClNSkpK7HPJLVu2jD179rBo0SLuv/9+Ro0axZo1azh16pRDP79rrrmGmJgYYmJi8PHxITIy0v7Y1h8f4Je//CUhISGkptZ45rTqKb9cSn3btm9PM+Bj0tPTzbvvvmfuuivWLFiw0MTF/cmAjwEf06fPjWbBgoVmwYKF5s033zKdOnU1Q4f+zhhjTL9+A01ubq6ZN+914+vbxPz5z/EmIKC5AR8ze/bLxhhj5s59zX4ubdq0aXPGtmTJOwZrrk2P2eLj440xxgQGBjqUN2jQwHz22WcmJyfHREZGGsCMGjXKbNu2zRQXF5u8vDyTnJxsrr/+eofjEhMTTU5Ojv1xbGysMcaY7t27Vyuepk2bmtmzZ5tDhw6Zs2fPmoyMDPPqq69WiG/nzp1m06ZNDmXDhg0r+8zod8lrBAYGGmOMiY+Pdyg3xpiEhIQK+7du3dq899575tSpU6aoqMjs27fPPP/88yYgIMC+T+fOnc26detMcXGxyc7ONvPmzTN9+vQxxhgTGxtr369x48Zm3rx55tixY6agoMC8//77ZuTIkcYYY4YNG2bfLygoyLzxxhsmKyvLlJSUmG+//dbMmTPHhIaGXjLefv36VThXYGCgmTNnjjly5IgpLS016enpZvr06Q7HdevWzRhjzJw5c6r1cxozZow5c+ZMhZ/Lb37zG7NlyxZTUlJisrKyTEJCgvHz87M/f8stt5i8vDwzZMgQe1loaKhZunSpycvLM3l5eWblypWmXbt2FX6vqlL+9X3wwQdNfn6+adiw4SXjt/6Wq/5bN8akVZbPuDyhcuVmS+aKi4vNiy/OvuQLWH4LCQk3xhjz5ptvGWOMmTDhvyvsM2PGc8YYY2bOfL7a59WmTZu22myemMxpc97WvXv3CsnGz3UbPny4McaYHj16VGt/X19fc+TIEfPYY4+5PPby2969e83s2bMvu19tk7l638zavHlzmjRpwtGjxy6/c5mTJ09y6NAhxo69E7jQJFueRrOKiIhcmYceeojPP/+cXbt2VWv/c+fO8dxzz/Hwww87beRoTY0ZM4bw8HBeeuklp12j3idztjbtyoZaX8r27Wn4+/tTVFRkX3C3vAvzzKnPnIiISHXZBkbMmzeP6OhoHn/88RodP3/+fFJTUx2W9HKVsLAw5s6dy8SJEytML1OX3HVqkjpjm2OuJjVzYCVzv//9CL74YmelQ7RVMyciIlJzAQEBzJs3j5MnTzJ27Fi2bNlS43NcvF6sq2RlZTmMonWWep3MtWnThkcesSbVPHr0aI2OtTWt2qYwudiFeeZyriBCERGRurV7926HNVJ/bjIzM2nWrJmrw3Ar9bqZtUWLYKKirmPnzl32td+qKzV1G6mp21i58qNKn9+1azc7dnzBV1/trYNIRURERCpXr2vmdu3aTc+e19fq2KKiIq6//oYqnz906BBRUZXPGC4iIiJSV+p1zZyIiCcwxuDlpbdzEXfm7e2NMT9dfsdK6K9fRMTNHTt2jA4dOrg6DBG5Au3btyc7O7tWxyqZExFxc3//+yqmTJnCTTfdRHBwsGrpRNyIt7c3V199NVOnPszy5bVb97Ve95kTEfEE//53KkeOHGXkyBH87ne3ERQUSIMGSuhE3IExP5GdnU1S0nukpm6r1TmUzImIeICMjAxefvlvrg5DRFxA/7qJiIiIuDElcyIiIiJuTMmciIiIiBvztGRuFPA9kA7c4+JYRERERJzOkwZABAAvAdcD54FdwD+Aky6MSURERMSpPKlmLgbYDGQCWcC/gN+6NCIRERERJ/Okmrk2wKFyj48A4ZXsN7FsIyrqujPGnPvqPxCbq7QEajedtHvQ/bk33Z/78/R71P25N0+8v7aVFXpSMtcQKL+o2U9Yza0Xm1+2AaQBUU6Oy5V0f+5N9+fePP3+wPPvUffn3jz9/uw8qZn1GBBZ7nFrIMNFsYiIiIj8R3hSMrcOq99cKyAM6FNWJiIiIuKxPKmZNQt4Cvh32eNHgKLLHDP/Ms+7O92fe9P9uTdPvz/w/HvU/bk3T78/uwbGGFfHICIiIiK15EnNrCIiIiL1jpI5z9YE+JWrgxARERHnqa/JnKcv+9UM+Ag4Dkx3bShO0RirL8Q3WHMLxrk2nDrnBazHur8DWAN7PE1D4GtggasDcZIfsN5f0oEtrg3FKQKBpViTtB/E+nl6ise58LNLB0qBoS6NqO5NA77F+hyc7OJYnOVJLryHDnNxLE5XH/vMBWB9iJRf9qsrnrXsV1OgF9Ae6z7vdW04da4F0B9YWfb9Xqy5hDxlKpoGWCOyjwGDgf/B8+ZKmgH8BjiK5/1+gpXMtXNxDM60BOuD8nmgEXAG8MQPk0BgJ1YLx48ujqWutAM+Abpg/WP8HRDB5QcMupMBwCysz4mWwGdY91vowpicqj7WzNWHZb8KgY14zpvPxU4BH2B9eGRjJXFBrgyojhmsRA6s2b53uzAWZ+gE9ASWuzoQqRXb1E8vYP2uluKZiRzAWGAFnvVeeq7s609YM1oUAGddF45TRAEbgBKsz4c9WBUcHqs+JnPVXfZL3MM1WP9detqybNOxktY44DkXx1KXGgCvAlNdHYiTlWA1P6bgec3kXbCa5z7AasKajfVz9UT/DSx0dRB1LBOrZjwFK+H5AxcSPE+xF7gZq5UqHLgWCHFpRE7mSfPMVVd1l/2Sn7+WwDvA3XhezcCLZdsdQDJWbZYn3OMkrCaedKCva0Nxqk5lX6OBD4GrgVyXRVO3WgGdsWo6crASgt8Bq1wZlBNch1XruN/VgdSxZlgJ3FSsrjh/Aj7Hs2of1wC9sZbz+hqrZu6USyNysvpYM6dlvzxDc2A1VifX7S6OxZlWYv132cLVgdSRccAYrL6qzwHDgUddGZCTbcHz+s+dAHZgtWoUYQ3W6ejSiJzjPuBtVwfhBHdhJTefAIllZYNcFo3z/Bn4L6x/iFvjeUm5g/qYzGnZL/fXDPgH1sCAj10cizP8Aut3E6z/Lkux+gZ6gj5YA456AM9g1Vr91ZUBOYE/F7puXFv2/beuC6fOpWDVzEVgDX64CasGxJP4Y9U2emK/zlKsvz9frAGBv8KqYfUkPlg/Q4CJWN0CPLrSpj42s9Zm2S93E4A1AisAqz9Zf6z/Mje5MKa6NAXrQ/JvZRtY/SO+c1E8dS0IWAt4Y00vM9ql0UhN+WENsvIG8rBqQjzpPaYIeAirRq4RsAjPeW+xGY31N+iJox+TgIFY75clwGKsBN2T+GHVHjfBGkDmiVOQOaiPU5OIiIiIeIz62MwqIiIi4jGUzImIiIi4MSVzIiIiIm5MyZyIiIiIG1MyJyIiIuLGlMyJiIiIuDElcyIil9cIa9WKg3j4Go8i4n6UzIlIfbUIa73b6my+QBuslTn8KzmXiIjL1McVIEREwFogvvwM/5HA7Vhrqf7zon0LsdZX9cHzlj4SETenFSBERCz9sZal+idwq2tDERGpPjWzioiIiLgxJXMiItVTiNV/rrxFZWW/B4YAqUAx8D0wtWyfRsAs4DBwBvgaGFvFNSKB+UBm2b4HgRewFg4XEamU+syJiFy5ocAdQDJwCogB/gacBX4HRAHrgNZAPyAJOFlWZtMJq5k3FNgMrAeuB54A+gIDgR+dfici4nZUMycicuVGATcAo7ESu/vLyv8GdAGuBe7C6pf3ctlzD5Q73gtYjjXtye/L9psAdAVWAdFArNOiFxG3pmROROTKLQT2lnuciNXc2hB4HqvZtPy+YCVqNoOBa4B3gA/KlZ8D/rfs+9vrLlwR8SRqZhURuXI7L3p8HiuB6wCkXPScLbFrVq4suuxrG2DuRfvb5rX75RXGKCIeSsmciMiVK6ik7GzZ1/yLykvLvpZvGWlZ9nVg2VaZJrULTUQ8nZpZRURcz5YMTgIaVLG1d01oIvJzp2RORMT1dpV97e3KIETEPSmZExFxvY+APGAcMPyi5xpgDX4I/M+GJCLuQn3mRERcLx+4D/g/YCWwHWt0rC/QB6uJNQwr4RMRcaBkTkTk5+F9rJGuT2AlcNcCOViJ3SPAcdeFJiI/Zw2MuXh1GhERERFxF+ozJyIiIuLGlMyJiIiIuDElcyIiIiJuTMmciIiIiBtTMiciIiLixpTMiYiIiLgxJXMiIiIibkzJnIiIiIgbUzInIiIi4saUzImIiIi4MSVzIiIiIm7s/wFF1FJ73Sj4VQAAAABJRU5ErkJggg==;imageBackground=#666666;" vertex="1" parent="1">
          <mxGeometry x="530" y="390" width="627" height="1170" as="geometry" />
        </mxCell>
      </root>
    </mxGraphModel>
  </diagram>
</mxfile>
